%TF.GenerationSoftware,KiCad,Pcbnew,10.0.0*%
%TF.CreationDate,2026-05-22T16:29:40+02:00*%
%TF.ProjectId,iotpcb,696f7470-6362-42e6-9b69-6361645f7063,rev?*%
%TF.SameCoordinates,Original*%
%TF.FileFunction,Copper,L2,Bot*%
%TF.FilePolarity,Positive*%
%FSLAX46Y46*%
G04 Gerber Fmt 4.6, Leading zero omitted, Abs format (unit mm)*
G04 Created by KiCad (PCBNEW 10.0.0) date 2026-05-22 16:29:40*
%MOMM*%
%LPD*%
G01*
G04 APERTURE LIST*
G04 Aperture macros list*
%AMRoundRect*
0 Rectangle with rounded corners*
0 $1 Rounding radius*
0 $2 $3 $4 $5 $6 $7 $8 $9 X,Y pos of 4 corners*
0 Add a 4 corners polygon primitive as box body*
4,1,4,$2,$3,$4,$5,$6,$7,$8,$9,$2,$3,0*
0 Add four circle primitives for the rounded corners*
1,1,$1+$1,$2,$3*
1,1,$1+$1,$4,$5*
1,1,$1+$1,$6,$7*
1,1,$1+$1,$8,$9*
0 Add four rect primitives between the rounded corners*
20,1,$1+$1,$2,$3,$4,$5,0*
20,1,$1+$1,$4,$5,$6,$7,0*
20,1,$1+$1,$6,$7,$8,$9,0*
20,1,$1+$1,$8,$9,$2,$3,0*%
G04 Aperture macros list end*
%TA.AperFunction,ComponentPad*%
%ADD10C,1.600000*%
%TD*%
%TA.AperFunction,ComponentPad*%
%ADD11C,1.500000*%
%TD*%
%TA.AperFunction,ComponentPad*%
%ADD12RoundRect,0.250000X0.550000X-0.550000X0.550000X0.550000X-0.550000X0.550000X-0.550000X-0.550000X0*%
%TD*%
%TA.AperFunction,ComponentPad*%
%ADD13RoundRect,0.250000X0.625000X-0.350000X0.625000X0.350000X-0.625000X0.350000X-0.625000X-0.350000X0*%
%TD*%
%TA.AperFunction,ComponentPad*%
%ADD14O,1.750000X1.200000*%
%TD*%
%TA.AperFunction,ComponentPad*%
%ADD15R,1.700000X1.700000*%
%TD*%
%TA.AperFunction,ComponentPad*%
%ADD16C,1.700000*%
%TD*%
%TA.AperFunction,ComponentPad*%
%ADD17R,1.500000X1.500000*%
%TD*%
%TA.AperFunction,ComponentPad*%
%ADD18RoundRect,0.250000X0.350000X0.625000X-0.350000X0.625000X-0.350000X-0.625000X0.350000X-0.625000X0*%
%TD*%
%TA.AperFunction,ComponentPad*%
%ADD19O,1.200000X1.750000*%
%TD*%
%TA.AperFunction,ComponentPad*%
%ADD20O,1.200000X2.000000*%
%TD*%
%TA.AperFunction,ComponentPad*%
%ADD21R,1.200000X2.000000*%
%TD*%
%TA.AperFunction,ViaPad*%
%ADD22C,0.600000*%
%TD*%
%TA.AperFunction,Conductor*%
%ADD23C,0.200000*%
%TD*%
%TA.AperFunction,Conductor*%
%ADD24C,0.250000*%
%TD*%
G04 APERTURE END LIST*
D10*
%TO.P,R6,1*%
%TO.N,/BAT*%
X171000000Y-139420000D03*
%TO.P,R6,2*%
%TO.N,Earth*%
X171000000Y-149580000D03*
%TD*%
%TO.P,R5,1*%
%TO.N,/4.7VIN*%
X168250000Y-126420000D03*
%TO.P,R5,2*%
%TO.N,/BAT*%
X168250000Y-136580000D03*
%TD*%
%TO.P,R4,1*%
%TO.N,/LIGHT*%
X168500000Y-104250000D03*
%TO.P,R4,2*%
%TO.N,Earth*%
X168500000Y-114410000D03*
%TD*%
D11*
%TO.P,R3,1*%
%TO.N,/+3V3*%
X164050000Y-97750000D03*
%TO.P,R3,2*%
%TO.N,/LIGHT*%
X167450000Y-97750000D03*
%TD*%
D10*
%TO.P,C6,1*%
%TO.N,/LIGHT*%
X163500000Y-104000000D03*
%TO.P,C6,2*%
%TO.N,Earth*%
X163500000Y-109000000D03*
%TD*%
%TO.P,C1,1*%
%TO.N,/+3V3*%
X156000000Y-117000000D03*
%TO.P,C1,2*%
%TO.N,Earth*%
X161000000Y-117000000D03*
%TD*%
D12*
%TO.P,C3,1*%
%TO.N,Net-(Q1-D)*%
X167750000Y-123000000D03*
D10*
%TO.P,C3,2*%
%TO.N,Earth*%
X167750000Y-121000000D03*
%TD*%
D13*
%TO.P,J_SOIL1,1,Pin_1_1*%
%TO.N,/SOIL_MOIST*%
X119750000Y-162000000D03*
D14*
%TO.P,J_SOIL1,2,Pin_2_2*%
%TO.N,Earth*%
X119750000Y-160000000D03*
%TO.P,J_SOIL1,3,Pin_3_3*%
%TO.N,/+3V3*%
X119750000Y-158000000D03*
%TD*%
D15*
%TO.P,J2,1,Pin_1_1*%
%TO.N,/LORA_RX*%
X157340000Y-97010000D03*
D16*
%TO.P,J2,2,Pin_2_2*%
%TO.N,/LORA_TX*%
X157340000Y-99550000D03*
%TO.P,J2,3,Pin_3_3*%
%TO.N,unconnected-(J2-Pin_3-Pad3)*%
X157340000Y-102090000D03*
%TO.P,J2,4,Pin_4_4*%
%TO.N,/LORA_RST*%
X157340000Y-104630000D03*
%TO.P,J2,5,Pin_5_5*%
%TO.N,/+3V3*%
X157340000Y-107170000D03*
%TO.P,J2,6,Pin_6_6*%
%TO.N,unconnected-(J2-Pin_6-Pad6)*%
X157340000Y-109710000D03*
%TO.P,J2,7,Pin_7_7*%
%TO.N,Earth*%
X157340000Y-112250000D03*
%TD*%
%TO.P,U3,1,GND_1*%
%TO.N,Earth*%
X141710000Y-123919887D03*
D15*
%TO.P,U3,2,VCC_2*%
%TO.N,/+3V3*%
X139170000Y-123919887D03*
D16*
%TO.P,U3,3,SCL_3*%
%TO.N,/I2C_SCL*%
X144250000Y-123919887D03*
%TO.P,U3,4,SDA_4*%
%TO.N,/I2C_SDA*%
X146790000Y-123919887D03*
%TD*%
D10*
%TO.P,R1,1*%
%TO.N,Net-(Q1-G)*%
X154670000Y-139250000D03*
%TO.P,R1,2*%
%TO.N,Earth*%
X164830000Y-139250000D03*
%TD*%
D15*
%TO.P,J3,1,Pin_1_1*%
%TO.N,unconnected-(J3-Pin_1-Pad1)*%
X119300000Y-117250000D03*
D16*
%TO.P,J3,2,Pin_2_2*%
%TO.N,unconnected-(J3-Pin_2-Pad2)*%
X121840000Y-117250000D03*
%TO.P,J3,3,Pin_3_3*%
%TO.N,unconnected-(J3-Pin_3-Pad3)*%
X124380000Y-117250000D03*
%TO.P,J3,4,Pin_4_4*%
%TO.N,unconnected-(J3-Pin_4-Pad4)*%
X126920000Y-117250000D03*
%TO.P,J3,5,Pin_5_5*%
%TO.N,unconnected-(J3-Pin_5-Pad5)*%
X129460000Y-117250000D03*
%TO.P,J3,6,Pin_6_6*%
%TO.N,unconnected-(J3-Pin_6-Pad6)*%
X132000000Y-117250000D03*
%TO.P,J3,7,Pin_7_7*%
%TO.N,unconnected-(J3-Pin_7-Pad7)*%
X134540000Y-117250000D03*
%TO.P,J3,8,Pin_8_8*%
%TO.N,unconnected-(J3-Pin_8-Pad8)*%
X137080000Y-117250000D03*
%TO.P,J3,9,Pin_9_9*%
%TO.N,unconnected-(J3-Pin_9-Pad9)*%
X139620000Y-117250000D03*
%TO.P,J3,10,Pin_10_10*%
%TO.N,unconnected-(J3-Pin_10-Pad10)*%
X142160000Y-117250000D03*
%TO.P,J3,11,Pin_11_11*%
%TO.N,unconnected-(J3-Pin_11-Pad11)*%
X144700000Y-117250000D03*
%TO.P,J3,12,Pin_12_12*%
%TO.N,unconnected-(J3-Pin_12-Pad12)*%
X147240000Y-117250000D03*
%TO.P,J3,13,Pin_13_13*%
%TO.N,unconnected-(J3-Pin_13-Pad13)*%
X149780000Y-117250000D03*
%TO.P,J3,14,Pin_14_14*%
%TO.N,unconnected-(J3-Pin_14-Pad14)*%
X152320000Y-117250000D03*
%TD*%
D10*
%TO.P,C2,1*%
%TO.N,Net-(Q1-D)*%
X154750000Y-132250000D03*
%TO.P,C2,2*%
%TO.N,Earth*%
X154750000Y-127250000D03*
%TD*%
D12*
%TO.P,C4,1*%
%TO.N,/+3V3*%
X155250000Y-122750000D03*
D10*
%TO.P,C4,2*%
%TO.N,Earth*%
X155250000Y-120750000D03*
%TD*%
D17*
%TO.P,U2,1,VDD_1*%
%TO.N,/+3V3*%
X129500000Y-124630000D03*
D11*
%TO.P,U2,2,DATA_2*%
%TO.N,/TH*%
X129500000Y-127170000D03*
%TO.P,U2,3,NC_3*%
%TO.N,unconnected-(U2-NC-Pad3)*%
X129500000Y-129710000D03*
%TO.P,U2,4,GND_4*%
%TO.N,Earth*%
X129500000Y-132250000D03*
%TD*%
D10*
%TO.P,R2,1*%
%TO.N,/+3V3*%
X119500000Y-123340000D03*
%TO.P,R2,2*%
%TO.N,/TH*%
X119500000Y-133500000D03*
%TD*%
%TO.P,C5,1*%
%TO.N,/+3V3*%
X123875000Y-123420000D03*
%TO.P,C5,2*%
%TO.N,Earth*%
X123875000Y-128420000D03*
%TD*%
D18*
%TO.P,J1,1,Pin_1_1*%
%TO.N,Earth*%
X159500000Y-134450000D03*
D19*
%TO.P,J1,2,Pin_2_2*%
%TO.N,/4.7VIN*%
X157500000Y-134450000D03*
%TD*%
D20*
%TO.P,U6,1,VIN_1*%
%TO.N,unconnected-(U6-VIN-Pad1)*%
X166530000Y-167000000D03*
%TO.P,U6,2,GND_2*%
%TO.N,N/C*%
X133510000Y-167000000D03*
%TO.P,U6,3,GPIO13_3*%
%TO.N,unconnected-(U6-GPIO13-Pad3)*%
X136050000Y-167000000D03*
%TO.P,U6,4,GPIO12_4*%
%TO.N,/BAT*%
X138590000Y-167000000D03*
%TO.P,U6,5,GPIO14_5*%
%TO.N,/LORA_RST*%
X141130000Y-167000000D03*
%TO.P,U6,6,GPIO27_6*%
%TO.N,unconnected-(U6-GPIO27-Pad6)*%
X143670000Y-167000000D03*
%TO.P,U6,7,GPIO26_7*%
%TO.N,unconnected-(U6-GPIO26-Pad7)*%
X146210000Y-167000000D03*
%TO.P,U6,8,GPIO25_8*%
%TO.N,/LED_CTRL*%
X148750000Y-167000000D03*
%TO.P,U6,9,GPIO33_9*%
%TO.N,/WATER_LEAK*%
X151290000Y-167000000D03*
%TO.P,U6,10,GPIO32_10*%
%TO.N,/SOIL_MOIST*%
X153830000Y-167000000D03*
%TO.P,U6,11,GPIO35_11*%
%TO.N,unconnected-(U6-GPIO35-Pad11)*%
X156370000Y-167000000D03*
%TO.P,U6,12,GPIO34_12*%
%TO.N,unconnected-(U6-GPIO34-Pad12)*%
X158910000Y-167000000D03*
%TO.P,U6,13,GPIO39_13*%
%TO.N,unconnected-(U6-GPIO39-Pad13)*%
X161450000Y-167000000D03*
%TO.P,U6,14,GPIO36_14*%
%TO.N,unconnected-(U6-GPIO36-Pad14)*%
X163990000Y-167000000D03*
D21*
%TO.P,U6,15,EN_15*%
%TO.N,unconnected-(U6-EN-Pad15)*%
X130970000Y-167000000D03*
D20*
%TO.P,U6,16,3.3v_16*%
%TO.N,/+3V3*%
X166530000Y-144140000D03*
%TO.P,U6,17,GND_17*%
%TO.N,Earth*%
X163990000Y-144140000D03*
%TO.P,U6,18,GPIO15_18*%
%TO.N,unconnected-(U6-GPIO15-Pad18)*%
X161450000Y-144140000D03*
%TO.P,U6,19,GPIO2_19*%
%TO.N,unconnected-(U6-GPIO2-Pad19)*%
X158910000Y-144140000D03*
%TO.P,U6,20,GPIO4_20*%
%TO.N,/TH*%
X156370000Y-144140000D03*
%TO.P,U6,21,GPIO16_21*%
%TO.N,/LORA_TX*%
X153830000Y-144140000D03*
%TO.P,U6,22,GPIO17_22*%
%TO.N,/LORA_RX*%
X151290000Y-144140000D03*
%TO.P,U6,23,GPIO5_23*%
%TO.N,unconnected-(U6-GPIO5-Pad23)*%
X148750000Y-144140000D03*
%TO.P,U6,24,GPIO18_24*%
%TO.N,unconnected-(U6-GPIO18-Pad24)*%
X146210000Y-144140000D03*
%TO.P,U6,25,GPIO19_25*%
%TO.N,unconnected-(U6-GPIO19-Pad25)*%
X143670000Y-144140000D03*
%TO.P,U6,26,GPIO21_26*%
%TO.N,/I2C_SDA*%
X141130000Y-144140000D03*
%TO.P,U6,27,GPIO3_27*%
%TO.N,unconnected-(U6-GPIO3-Pad27)*%
X138590000Y-144140000D03*
%TO.P,U6,28,GPIO1_28*%
%TO.N,unconnected-(U6-GPIO1-Pad28)*%
X136050000Y-144140000D03*
%TO.P,U6,29,GPIO22_29*%
%TO.N,/I2C_SCL*%
X133510000Y-144140000D03*
%TO.P,U6,30,GPIO23_30*%
%TO.N,unconnected-(U6-GPIO23-Pad30)*%
X130970000Y-144140000D03*
%TD*%
D22*
%TO.N,/LORA_RST*%
X154750000Y-106250000D03*
X152900000Y-108250000D03*
X146056942Y-132943058D03*
X145000000Y-134000000D03*
X142000000Y-164000000D03*
X148500000Y-121369887D03*
X148500000Y-123500000D03*
%TO.N,/LORA_TX*%
X156250000Y-141250000D03*
X153500000Y-123500000D03*
X153643289Y-119455241D03*
%TO.N,/LORA_RX*%
X151250000Y-138500000D03*
X150750000Y-123369887D03*
X150750000Y-121369887D03*
%TO.N,/I2C_SDA*%
X142250000Y-131500000D03*
X142750000Y-128500000D03*
%TO.N,/TH*%
X148240000Y-136010000D03*
%TO.N,/I2C_SCL*%
X141681942Y-128568058D03*
X141500000Y-130750000D03*
%TD*%
%TO.N,/LORA_RST*%
D23*
X152900000Y-108100000D02*
X154750000Y-106250000D01*
X148500000Y-123500000D02*
X148500000Y-121369887D01*
X145000000Y-134000000D02*
X146056942Y-132943058D01*
X152900000Y-108250000D02*
X152900000Y-108100000D01*
X141130000Y-167000000D02*
X141130000Y-164870000D01*
X141130000Y-164870000D02*
X142000000Y-164000000D01*
%TO.N,/LORA_TX*%
X153830000Y-146330000D02*
X154250000Y-146750000D01*
X153500000Y-119598530D02*
X153500000Y-123750000D01*
X153643289Y-119455241D02*
X153500000Y-119598530D01*
%TO.N,/LORA_RX*%
X151290000Y-138540000D02*
X151290000Y-144140000D01*
X151250000Y-138500000D02*
X151290000Y-138540000D01*
%TO.N,/TH*%
D24*
X156370000Y-143120000D02*
X156370000Y-144140000D01*
X152240000Y-138990000D02*
X156370000Y-143120000D01*
X152240000Y-138240000D02*
X152240000Y-138990000D01*
X150010000Y-136010000D02*
X152240000Y-138240000D01*
X148240000Y-136010000D02*
X150010000Y-136010000D01*
%TO.N,/LORA_RX*%
D23*
X150750000Y-121369887D02*
X150750000Y-123369887D01*
%TO.N,/I2C_SDA*%
X142750000Y-131000000D02*
X142250000Y-131500000D01*
X142750000Y-128500000D02*
X142750000Y-131000000D01*
%TO.N,/TH*%
D24*
X123170000Y-133500000D02*
X119500000Y-133500000D01*
X129500000Y-127170000D02*
X123170000Y-133500000D01*
%TO.N,/I2C_SCL*%
D23*
X141681942Y-128568058D02*
X141681942Y-130568058D01*
X141681942Y-130568058D02*
X141500000Y-130750000D01*
%TO.N,/LORA_TX*%
X156250000Y-141250000D02*
X157500000Y-142500000D01*
X157500000Y-142500000D02*
X157500000Y-146500000D01*
X157500000Y-146500000D02*
X157250000Y-146750000D01*
X157250000Y-146750000D02*
X154250000Y-146750000D01*
X153830000Y-146330000D02*
X153830000Y-144140000D01*
%TD*%
%TA.AperFunction,Conductor*%
%TO.N,Earth*%
G36*
X172744829Y-94000547D02*
G01*
X172763057Y-94001047D01*
X172897106Y-94004728D01*
X172904193Y-94005125D01*
X173036701Y-94016386D01*
X173044061Y-94017235D01*
X173166203Y-94035064D01*
X173173821Y-94036421D01*
X173285566Y-94059970D01*
X173293413Y-94061894D01*
X173396985Y-94090886D01*
X173404926Y-94093400D01*
X173489077Y-94123193D01*
X173500942Y-94128100D01*
X173679813Y-94213195D01*
X173695185Y-94221904D01*
X173842418Y-94319799D01*
X173856470Y-94330670D01*
X173987406Y-94447888D01*
X173999509Y-94460358D01*
X174117588Y-94600443D01*
X174127411Y-94613818D01*
X174233455Y-94780567D01*
X174240962Y-94794191D01*
X174333225Y-94989710D01*
X174338606Y-95003073D01*
X174413370Y-95225206D01*
X174416929Y-95238016D01*
X174469162Y-95474489D01*
X174471217Y-95486625D01*
X174496621Y-95700749D01*
X174497375Y-95710136D01*
X174499390Y-95757940D01*
X174499500Y-95763162D01*
X174499500Y-167741425D01*
X174499453Y-167744830D01*
X174495270Y-167897103D01*
X174494872Y-167904197D01*
X174483614Y-168036678D01*
X174482759Y-168044089D01*
X174464937Y-168166184D01*
X174463572Y-168173843D01*
X174440030Y-168285557D01*
X174438105Y-168293415D01*
X174409117Y-168396967D01*
X174406598Y-168404923D01*
X174376804Y-168489079D01*
X174371887Y-168500966D01*
X174286809Y-168679800D01*
X174278094Y-168695186D01*
X174180203Y-168842415D01*
X174169331Y-168856467D01*
X174052110Y-168987406D01*
X174039641Y-168999509D01*
X173899551Y-169117593D01*
X173886174Y-169127416D01*
X173719435Y-169233452D01*
X173705812Y-169240959D01*
X173510288Y-169333225D01*
X173496925Y-169338606D01*
X173274790Y-169413371D01*
X173261980Y-169416930D01*
X173025511Y-169469162D01*
X173013375Y-169471217D01*
X172799249Y-169496621D01*
X172789862Y-169497375D01*
X172742059Y-169499390D01*
X172736837Y-169499500D01*
X117519962Y-169499500D01*
X117512043Y-169499247D01*
X117415335Y-169493058D01*
X117404006Y-169491808D01*
X117194109Y-169458827D01*
X117181185Y-169456084D01*
X116961166Y-169396975D01*
X116947793Y-169392554D01*
X116742329Y-169311416D01*
X116728714Y-169305061D01*
X116545913Y-169205825D01*
X116532445Y-169197351D01*
X116373190Y-169082267D01*
X116360424Y-169071673D01*
X116222645Y-168940790D01*
X116211185Y-168928302D01*
X116092211Y-168779368D01*
X116082557Y-168765424D01*
X115980501Y-168594063D01*
X115973011Y-168579335D01*
X115883860Y-168370630D01*
X115879745Y-168359562D01*
X115847148Y-168257140D01*
X115845072Y-168249849D01*
X115814257Y-168127456D01*
X115812676Y-168120284D01*
X115809754Y-168104875D01*
X115787666Y-167988386D01*
X115786553Y-167981442D01*
X115780866Y-167938148D01*
X115767716Y-167838036D01*
X115767023Y-167831361D01*
X115755177Y-167676488D01*
X115754857Y-167670149D01*
X115750538Y-167495359D01*
X115750500Y-167492296D01*
X115750500Y-165952135D01*
X129869500Y-165952135D01*
X129869500Y-168047870D01*
X129869501Y-168047876D01*
X129875908Y-168107483D01*
X129926202Y-168242328D01*
X129926206Y-168242335D01*
X130012452Y-168357544D01*
X130012455Y-168357547D01*
X130127664Y-168443793D01*
X130127671Y-168443797D01*
X130262517Y-168494091D01*
X130262516Y-168494091D01*
X130269444Y-168494835D01*
X130322127Y-168500500D01*
X131617872Y-168500499D01*
X131677483Y-168494091D01*
X131812331Y-168443796D01*
X131927546Y-168357546D01*
X132013796Y-168242331D01*
X132064091Y-168107483D01*
X132070500Y-168047873D01*
X132070499Y-166513389D01*
X132409500Y-166513389D01*
X132409500Y-167486611D01*
X132436598Y-167657701D01*
X132490127Y-167822445D01*
X132568768Y-167976788D01*
X132670586Y-168116928D01*
X132793072Y-168239414D01*
X132933212Y-168341232D01*
X133087555Y-168419873D01*
X133252299Y-168473402D01*
X133423389Y-168500500D01*
X133423390Y-168500500D01*
X133596610Y-168500500D01*
X133596611Y-168500500D01*
X133767701Y-168473402D01*
X133932445Y-168419873D01*
X134086788Y-168341232D01*
X134226928Y-168239414D01*
X134349414Y-168116928D01*
X134451232Y-167976788D01*
X134529873Y-167822445D01*
X134583402Y-167657701D01*
X134610500Y-167486611D01*
X134610500Y-166513389D01*
X134949500Y-166513389D01*
X134949500Y-167486611D01*
X134976598Y-167657701D01*
X135030127Y-167822445D01*
X135108768Y-167976788D01*
X135210586Y-168116928D01*
X135333072Y-168239414D01*
X135473212Y-168341232D01*
X135627555Y-168419873D01*
X135792299Y-168473402D01*
X135963389Y-168500500D01*
X135963390Y-168500500D01*
X136136610Y-168500500D01*
X136136611Y-168500500D01*
X136307701Y-168473402D01*
X136472445Y-168419873D01*
X136626788Y-168341232D01*
X136766928Y-168239414D01*
X136889414Y-168116928D01*
X136991232Y-167976788D01*
X137069873Y-167822445D01*
X137123402Y-167657701D01*
X137150500Y-167486611D01*
X137150500Y-166513389D01*
X137489500Y-166513389D01*
X137489500Y-167486611D01*
X137516598Y-167657701D01*
X137570127Y-167822445D01*
X137648768Y-167976788D01*
X137750586Y-168116928D01*
X137873072Y-168239414D01*
X138013212Y-168341232D01*
X138167555Y-168419873D01*
X138332299Y-168473402D01*
X138503389Y-168500500D01*
X138503390Y-168500500D01*
X138676610Y-168500500D01*
X138676611Y-168500500D01*
X138847701Y-168473402D01*
X139012445Y-168419873D01*
X139166788Y-168341232D01*
X139306928Y-168239414D01*
X139429414Y-168116928D01*
X139531232Y-167976788D01*
X139609873Y-167822445D01*
X139663402Y-167657701D01*
X139690500Y-167486611D01*
X139690500Y-166513389D01*
X140029500Y-166513389D01*
X140029500Y-167486611D01*
X140056598Y-167657701D01*
X140110127Y-167822445D01*
X140188768Y-167976788D01*
X140290586Y-168116928D01*
X140413072Y-168239414D01*
X140553212Y-168341232D01*
X140707555Y-168419873D01*
X140872299Y-168473402D01*
X141043389Y-168500500D01*
X141043390Y-168500500D01*
X141216610Y-168500500D01*
X141216611Y-168500500D01*
X141387701Y-168473402D01*
X141552445Y-168419873D01*
X141706788Y-168341232D01*
X141846928Y-168239414D01*
X141969414Y-168116928D01*
X142071232Y-167976788D01*
X142149873Y-167822445D01*
X142203402Y-167657701D01*
X142230500Y-167486611D01*
X142230500Y-166513389D01*
X142569500Y-166513389D01*
X142569500Y-167486611D01*
X142596598Y-167657701D01*
X142650127Y-167822445D01*
X142728768Y-167976788D01*
X142830586Y-168116928D01*
X142953072Y-168239414D01*
X143093212Y-168341232D01*
X143247555Y-168419873D01*
X143412299Y-168473402D01*
X143583389Y-168500500D01*
X143583390Y-168500500D01*
X143756610Y-168500500D01*
X143756611Y-168500500D01*
X143927701Y-168473402D01*
X144092445Y-168419873D01*
X144246788Y-168341232D01*
X144386928Y-168239414D01*
X144509414Y-168116928D01*
X144611232Y-167976788D01*
X144689873Y-167822445D01*
X144743402Y-167657701D01*
X144770500Y-167486611D01*
X144770500Y-166513389D01*
X145109500Y-166513389D01*
X145109500Y-167486611D01*
X145136598Y-167657701D01*
X145190127Y-167822445D01*
X145268768Y-167976788D01*
X145370586Y-168116928D01*
X145493072Y-168239414D01*
X145633212Y-168341232D01*
X145787555Y-168419873D01*
X145952299Y-168473402D01*
X146123389Y-168500500D01*
X146123390Y-168500500D01*
X146296610Y-168500500D01*
X146296611Y-168500500D01*
X146467701Y-168473402D01*
X146632445Y-168419873D01*
X146786788Y-168341232D01*
X146926928Y-168239414D01*
X147049414Y-168116928D01*
X147151232Y-167976788D01*
X147229873Y-167822445D01*
X147283402Y-167657701D01*
X147310500Y-167486611D01*
X147310500Y-166513389D01*
X147649500Y-166513389D01*
X147649500Y-167486611D01*
X147676598Y-167657701D01*
X147730127Y-167822445D01*
X147808768Y-167976788D01*
X147910586Y-168116928D01*
X148033072Y-168239414D01*
X148173212Y-168341232D01*
X148327555Y-168419873D01*
X148492299Y-168473402D01*
X148663389Y-168500500D01*
X148663390Y-168500500D01*
X148836610Y-168500500D01*
X148836611Y-168500500D01*
X149007701Y-168473402D01*
X149172445Y-168419873D01*
X149326788Y-168341232D01*
X149466928Y-168239414D01*
X149589414Y-168116928D01*
X149691232Y-167976788D01*
X149769873Y-167822445D01*
X149823402Y-167657701D01*
X149850500Y-167486611D01*
X149850500Y-166513389D01*
X150189500Y-166513389D01*
X150189500Y-167486611D01*
X150216598Y-167657701D01*
X150270127Y-167822445D01*
X150348768Y-167976788D01*
X150450586Y-168116928D01*
X150573072Y-168239414D01*
X150713212Y-168341232D01*
X150867555Y-168419873D01*
X151032299Y-168473402D01*
X151203389Y-168500500D01*
X151203390Y-168500500D01*
X151376610Y-168500500D01*
X151376611Y-168500500D01*
X151547701Y-168473402D01*
X151712445Y-168419873D01*
X151866788Y-168341232D01*
X152006928Y-168239414D01*
X152129414Y-168116928D01*
X152231232Y-167976788D01*
X152309873Y-167822445D01*
X152363402Y-167657701D01*
X152390500Y-167486611D01*
X152390500Y-166513389D01*
X152729500Y-166513389D01*
X152729500Y-167486611D01*
X152756598Y-167657701D01*
X152810127Y-167822445D01*
X152888768Y-167976788D01*
X152990586Y-168116928D01*
X153113072Y-168239414D01*
X153253212Y-168341232D01*
X153407555Y-168419873D01*
X153572299Y-168473402D01*
X153743389Y-168500500D01*
X153743390Y-168500500D01*
X153916610Y-168500500D01*
X153916611Y-168500500D01*
X154087701Y-168473402D01*
X154252445Y-168419873D01*
X154406788Y-168341232D01*
X154546928Y-168239414D01*
X154669414Y-168116928D01*
X154771232Y-167976788D01*
X154849873Y-167822445D01*
X154903402Y-167657701D01*
X154930500Y-167486611D01*
X154930500Y-166513389D01*
X155269500Y-166513389D01*
X155269500Y-167486611D01*
X155296598Y-167657701D01*
X155350127Y-167822445D01*
X155428768Y-167976788D01*
X155530586Y-168116928D01*
X155653072Y-168239414D01*
X155793212Y-168341232D01*
X155947555Y-168419873D01*
X156112299Y-168473402D01*
X156283389Y-168500500D01*
X156283390Y-168500500D01*
X156456610Y-168500500D01*
X156456611Y-168500500D01*
X156627701Y-168473402D01*
X156792445Y-168419873D01*
X156946788Y-168341232D01*
X157086928Y-168239414D01*
X157209414Y-168116928D01*
X157311232Y-167976788D01*
X157389873Y-167822445D01*
X157443402Y-167657701D01*
X157470500Y-167486611D01*
X157470500Y-166513389D01*
X157809500Y-166513389D01*
X157809500Y-167486611D01*
X157836598Y-167657701D01*
X157890127Y-167822445D01*
X157968768Y-167976788D01*
X158070586Y-168116928D01*
X158193072Y-168239414D01*
X158333212Y-168341232D01*
X158487555Y-168419873D01*
X158652299Y-168473402D01*
X158823389Y-168500500D01*
X158823390Y-168500500D01*
X158996610Y-168500500D01*
X158996611Y-168500500D01*
X159167701Y-168473402D01*
X159332445Y-168419873D01*
X159486788Y-168341232D01*
X159626928Y-168239414D01*
X159749414Y-168116928D01*
X159851232Y-167976788D01*
X159929873Y-167822445D01*
X159983402Y-167657701D01*
X160010500Y-167486611D01*
X160010500Y-166513389D01*
X160349500Y-166513389D01*
X160349500Y-167486611D01*
X160376598Y-167657701D01*
X160430127Y-167822445D01*
X160508768Y-167976788D01*
X160610586Y-168116928D01*
X160733072Y-168239414D01*
X160873212Y-168341232D01*
X161027555Y-168419873D01*
X161192299Y-168473402D01*
X161363389Y-168500500D01*
X161363390Y-168500500D01*
X161536610Y-168500500D01*
X161536611Y-168500500D01*
X161707701Y-168473402D01*
X161872445Y-168419873D01*
X162026788Y-168341232D01*
X162166928Y-168239414D01*
X162289414Y-168116928D01*
X162391232Y-167976788D01*
X162469873Y-167822445D01*
X162523402Y-167657701D01*
X162550500Y-167486611D01*
X162550500Y-166513389D01*
X162889500Y-166513389D01*
X162889500Y-167486611D01*
X162916598Y-167657701D01*
X162970127Y-167822445D01*
X163048768Y-167976788D01*
X163150586Y-168116928D01*
X163273072Y-168239414D01*
X163413212Y-168341232D01*
X163567555Y-168419873D01*
X163732299Y-168473402D01*
X163903389Y-168500500D01*
X163903390Y-168500500D01*
X164076610Y-168500500D01*
X164076611Y-168500500D01*
X164247701Y-168473402D01*
X164412445Y-168419873D01*
X164566788Y-168341232D01*
X164706928Y-168239414D01*
X164829414Y-168116928D01*
X164931232Y-167976788D01*
X165009873Y-167822445D01*
X165063402Y-167657701D01*
X165090500Y-167486611D01*
X165090500Y-166513389D01*
X165429500Y-166513389D01*
X165429500Y-167486611D01*
X165456598Y-167657701D01*
X165510127Y-167822445D01*
X165588768Y-167976788D01*
X165690586Y-168116928D01*
X165813072Y-168239414D01*
X165953212Y-168341232D01*
X166107555Y-168419873D01*
X166272299Y-168473402D01*
X166443389Y-168500500D01*
X166443390Y-168500500D01*
X166616610Y-168500500D01*
X166616611Y-168500500D01*
X166787701Y-168473402D01*
X166952445Y-168419873D01*
X167106788Y-168341232D01*
X167246928Y-168239414D01*
X167369414Y-168116928D01*
X167471232Y-167976788D01*
X167549873Y-167822445D01*
X167603402Y-167657701D01*
X167630500Y-167486611D01*
X167630500Y-166513389D01*
X167603402Y-166342299D01*
X167549873Y-166177555D01*
X167471232Y-166023212D01*
X167369414Y-165883072D01*
X167246928Y-165760586D01*
X167106788Y-165658768D01*
X166952445Y-165580127D01*
X166787701Y-165526598D01*
X166787699Y-165526597D01*
X166787698Y-165526597D01*
X166656271Y-165505781D01*
X166616611Y-165499500D01*
X166443389Y-165499500D01*
X166403728Y-165505781D01*
X166272302Y-165526597D01*
X166107552Y-165580128D01*
X165953211Y-165658768D01*
X165878388Y-165713131D01*
X165813072Y-165760586D01*
X165813070Y-165760588D01*
X165813069Y-165760588D01*
X165690588Y-165883069D01*
X165690588Y-165883070D01*
X165690586Y-165883072D01*
X165683725Y-165892516D01*
X165588768Y-166023211D01*
X165510128Y-166177552D01*
X165456597Y-166342302D01*
X165429500Y-166513389D01*
X165090500Y-166513389D01*
X165063402Y-166342299D01*
X165009873Y-166177555D01*
X164931232Y-166023212D01*
X164829414Y-165883072D01*
X164706928Y-165760586D01*
X164566788Y-165658768D01*
X164412445Y-165580127D01*
X164247701Y-165526598D01*
X164247699Y-165526597D01*
X164247698Y-165526597D01*
X164116271Y-165505781D01*
X164076611Y-165499500D01*
X163903389Y-165499500D01*
X163863728Y-165505781D01*
X163732302Y-165526597D01*
X163567552Y-165580128D01*
X163413211Y-165658768D01*
X163338388Y-165713131D01*
X163273072Y-165760586D01*
X163273070Y-165760588D01*
X163273069Y-165760588D01*
X163150588Y-165883069D01*
X163150588Y-165883070D01*
X163150586Y-165883072D01*
X163143725Y-165892516D01*
X163048768Y-166023211D01*
X162970128Y-166177552D01*
X162916597Y-166342302D01*
X162889500Y-166513389D01*
X162550500Y-166513389D01*
X162523402Y-166342299D01*
X162469873Y-166177555D01*
X162391232Y-166023212D01*
X162289414Y-165883072D01*
X162166928Y-165760586D01*
X162026788Y-165658768D01*
X161872445Y-165580127D01*
X161707701Y-165526598D01*
X161707699Y-165526597D01*
X161707698Y-165526597D01*
X161576271Y-165505781D01*
X161536611Y-165499500D01*
X161363389Y-165499500D01*
X161323728Y-165505781D01*
X161192302Y-165526597D01*
X161027552Y-165580128D01*
X160873211Y-165658768D01*
X160798388Y-165713131D01*
X160733072Y-165760586D01*
X160733070Y-165760588D01*
X160733069Y-165760588D01*
X160610588Y-165883069D01*
X160610588Y-165883070D01*
X160610586Y-165883072D01*
X160603725Y-165892516D01*
X160508768Y-166023211D01*
X160430128Y-166177552D01*
X160376597Y-166342302D01*
X160349500Y-166513389D01*
X160010500Y-166513389D01*
X159983402Y-166342299D01*
X159929873Y-166177555D01*
X159851232Y-166023212D01*
X159749414Y-165883072D01*
X159626928Y-165760586D01*
X159486788Y-165658768D01*
X159332445Y-165580127D01*
X159167701Y-165526598D01*
X159167699Y-165526597D01*
X159167698Y-165526597D01*
X159036271Y-165505781D01*
X158996611Y-165499500D01*
X158823389Y-165499500D01*
X158783728Y-165505781D01*
X158652302Y-165526597D01*
X158487552Y-165580128D01*
X158333211Y-165658768D01*
X158258388Y-165713131D01*
X158193072Y-165760586D01*
X158193070Y-165760588D01*
X158193069Y-165760588D01*
X158070588Y-165883069D01*
X158070588Y-165883070D01*
X158070586Y-165883072D01*
X158063725Y-165892516D01*
X157968768Y-166023211D01*
X157890128Y-166177552D01*
X157836597Y-166342302D01*
X157809500Y-166513389D01*
X157470500Y-166513389D01*
X157443402Y-166342299D01*
X157389873Y-166177555D01*
X157311232Y-166023212D01*
X157209414Y-165883072D01*
X157086928Y-165760586D01*
X156946788Y-165658768D01*
X156792445Y-165580127D01*
X156627701Y-165526598D01*
X156627699Y-165526597D01*
X156627698Y-165526597D01*
X156496271Y-165505781D01*
X156456611Y-165499500D01*
X156283389Y-165499500D01*
X156243728Y-165505781D01*
X156112302Y-165526597D01*
X155947552Y-165580128D01*
X155793211Y-165658768D01*
X155718388Y-165713131D01*
X155653072Y-165760586D01*
X155653070Y-165760588D01*
X155653069Y-165760588D01*
X155530588Y-165883069D01*
X155530588Y-165883070D01*
X155530586Y-165883072D01*
X155523725Y-165892516D01*
X155428768Y-166023211D01*
X155350128Y-166177552D01*
X155296597Y-166342302D01*
X155269500Y-166513389D01*
X154930500Y-166513389D01*
X154903402Y-166342299D01*
X154849873Y-166177555D01*
X154771232Y-166023212D01*
X154669414Y-165883072D01*
X154546928Y-165760586D01*
X154406788Y-165658768D01*
X154252445Y-165580127D01*
X154087701Y-165526598D01*
X154087699Y-165526597D01*
X154087698Y-165526597D01*
X153956271Y-165505781D01*
X153916611Y-165499500D01*
X153743389Y-165499500D01*
X153703728Y-165505781D01*
X153572302Y-165526597D01*
X153407552Y-165580128D01*
X153253211Y-165658768D01*
X153178388Y-165713131D01*
X153113072Y-165760586D01*
X153113070Y-165760588D01*
X153113069Y-165760588D01*
X152990588Y-165883069D01*
X152990588Y-165883070D01*
X152990586Y-165883072D01*
X152983725Y-165892516D01*
X152888768Y-166023211D01*
X152810128Y-166177552D01*
X152756597Y-166342302D01*
X152729500Y-166513389D01*
X152390500Y-166513389D01*
X152363402Y-166342299D01*
X152309873Y-166177555D01*
X152231232Y-166023212D01*
X152129414Y-165883072D01*
X152006928Y-165760586D01*
X151866788Y-165658768D01*
X151712445Y-165580127D01*
X151547701Y-165526598D01*
X151547699Y-165526597D01*
X151547698Y-165526597D01*
X151416271Y-165505781D01*
X151376611Y-165499500D01*
X151203389Y-165499500D01*
X151163728Y-165505781D01*
X151032302Y-165526597D01*
X150867552Y-165580128D01*
X150713211Y-165658768D01*
X150638388Y-165713131D01*
X150573072Y-165760586D01*
X150573070Y-165760588D01*
X150573069Y-165760588D01*
X150450588Y-165883069D01*
X150450588Y-165883070D01*
X150450586Y-165883072D01*
X150443725Y-165892516D01*
X150348768Y-166023211D01*
X150270128Y-166177552D01*
X150216597Y-166342302D01*
X150189500Y-166513389D01*
X149850500Y-166513389D01*
X149823402Y-166342299D01*
X149769873Y-166177555D01*
X149691232Y-166023212D01*
X149589414Y-165883072D01*
X149466928Y-165760586D01*
X149326788Y-165658768D01*
X149172445Y-165580127D01*
X149007701Y-165526598D01*
X149007699Y-165526597D01*
X149007698Y-165526597D01*
X148876271Y-165505781D01*
X148836611Y-165499500D01*
X148663389Y-165499500D01*
X148623728Y-165505781D01*
X148492302Y-165526597D01*
X148327552Y-165580128D01*
X148173211Y-165658768D01*
X148098388Y-165713131D01*
X148033072Y-165760586D01*
X148033070Y-165760588D01*
X148033069Y-165760588D01*
X147910588Y-165883069D01*
X147910588Y-165883070D01*
X147910586Y-165883072D01*
X147903725Y-165892516D01*
X147808768Y-166023211D01*
X147730128Y-166177552D01*
X147676597Y-166342302D01*
X147649500Y-166513389D01*
X147310500Y-166513389D01*
X147283402Y-166342299D01*
X147229873Y-166177555D01*
X147151232Y-166023212D01*
X147049414Y-165883072D01*
X146926928Y-165760586D01*
X146786788Y-165658768D01*
X146632445Y-165580127D01*
X146467701Y-165526598D01*
X146467699Y-165526597D01*
X146467698Y-165526597D01*
X146336271Y-165505781D01*
X146296611Y-165499500D01*
X146123389Y-165499500D01*
X146083728Y-165505781D01*
X145952302Y-165526597D01*
X145787552Y-165580128D01*
X145633211Y-165658768D01*
X145558388Y-165713131D01*
X145493072Y-165760586D01*
X145493070Y-165760588D01*
X145493069Y-165760588D01*
X145370588Y-165883069D01*
X145370588Y-165883070D01*
X145370586Y-165883072D01*
X145363725Y-165892516D01*
X145268768Y-166023211D01*
X145190128Y-166177552D01*
X145136597Y-166342302D01*
X145109500Y-166513389D01*
X144770500Y-166513389D01*
X144743402Y-166342299D01*
X144689873Y-166177555D01*
X144611232Y-166023212D01*
X144509414Y-165883072D01*
X144386928Y-165760586D01*
X144246788Y-165658768D01*
X144092445Y-165580127D01*
X143927701Y-165526598D01*
X143927699Y-165526597D01*
X143927698Y-165526597D01*
X143796271Y-165505781D01*
X143756611Y-165499500D01*
X143583389Y-165499500D01*
X143543728Y-165505781D01*
X143412302Y-165526597D01*
X143247552Y-165580128D01*
X143093211Y-165658768D01*
X143018388Y-165713131D01*
X142953072Y-165760586D01*
X142953070Y-165760588D01*
X142953069Y-165760588D01*
X142830588Y-165883069D01*
X142830588Y-165883070D01*
X142830586Y-165883072D01*
X142823725Y-165892516D01*
X142728768Y-166023211D01*
X142650128Y-166177552D01*
X142596597Y-166342302D01*
X142569500Y-166513389D01*
X142230500Y-166513389D01*
X142203402Y-166342299D01*
X142149873Y-166177555D01*
X142071232Y-166023212D01*
X141969414Y-165883072D01*
X141846928Y-165760586D01*
X141842913Y-165757669D01*
X141781613Y-165713131D01*
X141738948Y-165657801D01*
X141730500Y-165612814D01*
X141730500Y-165170097D01*
X141750185Y-165103058D01*
X141766819Y-165082416D01*
X142014665Y-164834570D01*
X142075984Y-164801088D01*
X142078151Y-164800637D01*
X142078840Y-164800500D01*
X142078842Y-164800500D01*
X142233497Y-164769737D01*
X142379179Y-164709394D01*
X142510289Y-164621789D01*
X142621789Y-164510289D01*
X142709394Y-164379179D01*
X142769737Y-164233497D01*
X142800500Y-164078842D01*
X142800500Y-163921158D01*
X142800500Y-163921155D01*
X142800499Y-163921153D01*
X142769738Y-163766510D01*
X142769738Y-163766508D01*
X142769737Y-163766503D01*
X142769735Y-163766498D01*
X142709397Y-163620827D01*
X142709390Y-163620814D01*
X142621789Y-163489711D01*
X142621786Y-163489707D01*
X142510292Y-163378213D01*
X142510288Y-163378210D01*
X142379185Y-163290609D01*
X142379172Y-163290602D01*
X142233501Y-163230264D01*
X142233489Y-163230261D01*
X142078845Y-163199500D01*
X142078842Y-163199500D01*
X141921158Y-163199500D01*
X141921155Y-163199500D01*
X141766510Y-163230261D01*
X141766498Y-163230264D01*
X141620827Y-163290602D01*
X141620814Y-163290609D01*
X141489711Y-163378210D01*
X141489707Y-163378213D01*
X141378213Y-163489707D01*
X141378210Y-163489711D01*
X141290609Y-163620814D01*
X141290602Y-163620827D01*
X141230264Y-163766498D01*
X141230261Y-163766508D01*
X141199362Y-163921848D01*
X141166977Y-163983759D01*
X141165426Y-163985337D01*
X140761286Y-164389478D01*
X140649481Y-164501282D01*
X140649475Y-164501290D01*
X140606075Y-164576463D01*
X140606075Y-164576464D01*
X140570423Y-164638214D01*
X140570423Y-164638215D01*
X140529499Y-164790943D01*
X140529499Y-164790945D01*
X140529499Y-164959046D01*
X140529500Y-164959059D01*
X140529500Y-165612814D01*
X140509815Y-165679853D01*
X140478387Y-165713131D01*
X140413072Y-165760585D01*
X140290588Y-165883069D01*
X140290588Y-165883070D01*
X140290586Y-165883072D01*
X140283725Y-165892516D01*
X140188768Y-166023211D01*
X140110128Y-166177552D01*
X140056597Y-166342302D01*
X140029500Y-166513389D01*
X139690500Y-166513389D01*
X139663402Y-166342299D01*
X139609873Y-166177555D01*
X139531232Y-166023212D01*
X139429414Y-165883072D01*
X139306928Y-165760586D01*
X139166788Y-165658768D01*
X139012445Y-165580127D01*
X138847701Y-165526598D01*
X138847699Y-165526597D01*
X138847698Y-165526597D01*
X138716271Y-165505781D01*
X138676611Y-165499500D01*
X138503389Y-165499500D01*
X138463728Y-165505781D01*
X138332302Y-165526597D01*
X138167552Y-165580128D01*
X138013211Y-165658768D01*
X137938388Y-165713131D01*
X137873072Y-165760586D01*
X137873070Y-165760588D01*
X137873069Y-165760588D01*
X137750588Y-165883069D01*
X137750588Y-165883070D01*
X137750586Y-165883072D01*
X137743725Y-165892516D01*
X137648768Y-166023211D01*
X137570128Y-166177552D01*
X137516597Y-166342302D01*
X137489500Y-166513389D01*
X137150500Y-166513389D01*
X137123402Y-166342299D01*
X137069873Y-166177555D01*
X136991232Y-166023212D01*
X136889414Y-165883072D01*
X136766928Y-165760586D01*
X136626788Y-165658768D01*
X136472445Y-165580127D01*
X136307701Y-165526598D01*
X136307699Y-165526597D01*
X136307698Y-165526597D01*
X136176271Y-165505781D01*
X136136611Y-165499500D01*
X135963389Y-165499500D01*
X135923728Y-165505781D01*
X135792302Y-165526597D01*
X135627552Y-165580128D01*
X135473211Y-165658768D01*
X135398388Y-165713131D01*
X135333072Y-165760586D01*
X135333070Y-165760588D01*
X135333069Y-165760588D01*
X135210588Y-165883069D01*
X135210588Y-165883070D01*
X135210586Y-165883072D01*
X135203725Y-165892516D01*
X135108768Y-166023211D01*
X135030128Y-166177552D01*
X134976597Y-166342302D01*
X134949500Y-166513389D01*
X134610500Y-166513389D01*
X134583402Y-166342299D01*
X134529873Y-166177555D01*
X134451232Y-166023212D01*
X134349414Y-165883072D01*
X134226928Y-165760586D01*
X134086788Y-165658768D01*
X133932445Y-165580127D01*
X133767701Y-165526598D01*
X133767699Y-165526597D01*
X133767698Y-165526597D01*
X133636271Y-165505781D01*
X133596611Y-165499500D01*
X133423389Y-165499500D01*
X133383728Y-165505781D01*
X133252302Y-165526597D01*
X133087552Y-165580128D01*
X132933211Y-165658768D01*
X132858388Y-165713131D01*
X132793072Y-165760586D01*
X132793070Y-165760588D01*
X132793069Y-165760588D01*
X132670588Y-165883069D01*
X132670588Y-165883070D01*
X132670586Y-165883072D01*
X132663725Y-165892516D01*
X132568768Y-166023211D01*
X132490128Y-166177552D01*
X132436597Y-166342302D01*
X132409500Y-166513389D01*
X132070499Y-166513389D01*
X132070499Y-165952128D01*
X132064091Y-165892517D01*
X132060568Y-165883072D01*
X132013797Y-165757671D01*
X132013793Y-165757664D01*
X131927547Y-165642455D01*
X131927544Y-165642452D01*
X131812335Y-165556206D01*
X131812328Y-165556202D01*
X131677482Y-165505908D01*
X131677483Y-165505908D01*
X131617883Y-165499501D01*
X131617881Y-165499500D01*
X131617873Y-165499500D01*
X131617864Y-165499500D01*
X130322129Y-165499500D01*
X130322123Y-165499501D01*
X130262516Y-165505908D01*
X130127671Y-165556202D01*
X130127664Y-165556206D01*
X130012455Y-165642452D01*
X130012452Y-165642455D01*
X129926206Y-165757664D01*
X129926202Y-165757671D01*
X129875908Y-165892517D01*
X129869501Y-165952116D01*
X129869501Y-165952123D01*
X129869500Y-165952135D01*
X115750500Y-165952135D01*
X115750500Y-157913389D01*
X118374500Y-157913389D01*
X118374500Y-158086611D01*
X118401598Y-158257701D01*
X118455127Y-158422445D01*
X118533768Y-158576788D01*
X118635586Y-158716928D01*
X118758072Y-158839414D01*
X118841449Y-158899991D01*
X118884114Y-158955322D01*
X118890093Y-159024935D01*
X118857487Y-159086730D01*
X118841448Y-159100627D01*
X118758404Y-159160961D01*
X118758399Y-159160965D01*
X118635967Y-159283397D01*
X118534195Y-159423475D01*
X118455591Y-159577744D01*
X118402085Y-159742415D01*
X118400884Y-159749999D01*
X118400885Y-159750000D01*
X119469670Y-159750000D01*
X119449925Y-159769745D01*
X119400556Y-159855255D01*
X119375000Y-159950630D01*
X119375000Y-160049370D01*
X119400556Y-160144745D01*
X119449925Y-160230255D01*
X119469670Y-160250000D01*
X118400885Y-160250000D01*
X118402085Y-160257584D01*
X118455591Y-160422255D01*
X118534195Y-160576524D01*
X118635967Y-160716602D01*
X118743565Y-160824200D01*
X118777050Y-160885523D01*
X118772066Y-160955215D01*
X118730194Y-161011148D01*
X118720981Y-161017420D01*
X118656342Y-161057289D01*
X118532289Y-161181342D01*
X118440187Y-161330663D01*
X118440186Y-161330666D01*
X118385001Y-161497203D01*
X118385001Y-161497204D01*
X118385000Y-161497204D01*
X118374500Y-161599983D01*
X118374500Y-162400001D01*
X118374501Y-162400019D01*
X118385000Y-162502796D01*
X118385001Y-162502799D01*
X118440185Y-162669331D01*
X118440186Y-162669334D01*
X118532288Y-162818656D01*
X118656344Y-162942712D01*
X118805666Y-163034814D01*
X118972203Y-163089999D01*
X119074991Y-163100500D01*
X120425008Y-163100499D01*
X120527797Y-163089999D01*
X120694334Y-163034814D01*
X120843656Y-162942712D01*
X120967712Y-162818656D01*
X121059814Y-162669334D01*
X121114999Y-162502797D01*
X121125500Y-162400009D01*
X121125499Y-161599992D01*
X121114999Y-161497203D01*
X121059814Y-161330666D01*
X120967712Y-161181344D01*
X120843656Y-161057288D01*
X120843655Y-161057287D01*
X120779019Y-161017420D01*
X120732294Y-160965472D01*
X120721071Y-160896510D01*
X120748914Y-160832428D01*
X120756434Y-160824199D01*
X120864035Y-160716598D01*
X120965804Y-160576524D01*
X121044408Y-160422255D01*
X121097914Y-160257584D01*
X121099115Y-160250000D01*
X120030330Y-160250000D01*
X120050075Y-160230255D01*
X120099444Y-160144745D01*
X120125000Y-160049370D01*
X120125000Y-159950630D01*
X120099444Y-159855255D01*
X120050075Y-159769745D01*
X120030330Y-159750000D01*
X121099115Y-159750000D01*
X121099115Y-159749999D01*
X121097914Y-159742415D01*
X121044408Y-159577744D01*
X120965804Y-159423475D01*
X120864032Y-159283397D01*
X120741602Y-159160967D01*
X120658551Y-159100628D01*
X120615885Y-159045298D01*
X120609906Y-158975685D01*
X120642511Y-158913889D01*
X120658551Y-158899991D01*
X120741928Y-158839414D01*
X120864414Y-158716928D01*
X120966232Y-158576788D01*
X121044873Y-158422445D01*
X121098402Y-158257701D01*
X121125500Y-158086611D01*
X121125500Y-157913389D01*
X121098402Y-157742299D01*
X121044873Y-157577555D01*
X120966232Y-157423212D01*
X120864414Y-157283072D01*
X120741928Y-157160586D01*
X120601788Y-157058768D01*
X120447445Y-156980127D01*
X120282701Y-156926598D01*
X120282699Y-156926597D01*
X120282698Y-156926597D01*
X120151271Y-156905781D01*
X120111611Y-156899500D01*
X119388389Y-156899500D01*
X119348728Y-156905781D01*
X119217302Y-156926597D01*
X119052552Y-156980128D01*
X118898211Y-157058768D01*
X118818256Y-157116859D01*
X118758072Y-157160586D01*
X118758070Y-157160588D01*
X118758069Y-157160588D01*
X118635588Y-157283069D01*
X118635588Y-157283070D01*
X118635586Y-157283072D01*
X118591859Y-157343256D01*
X118533768Y-157423211D01*
X118455128Y-157577552D01*
X118401597Y-157742302D01*
X118374500Y-157913389D01*
X115750500Y-157913389D01*
X115750500Y-149477682D01*
X169700000Y-149477682D01*
X169700000Y-149682317D01*
X169732009Y-149884417D01*
X169795244Y-150079031D01*
X169888141Y-150261350D01*
X169888147Y-150261359D01*
X169920523Y-150305921D01*
X169920524Y-150305922D01*
X170600000Y-149626446D01*
X170600000Y-149632661D01*
X170627259Y-149734394D01*
X170679920Y-149825606D01*
X170754394Y-149900080D01*
X170845606Y-149952741D01*
X170947339Y-149980000D01*
X170953553Y-149980000D01*
X170274076Y-150659474D01*
X170318650Y-150691859D01*
X170500968Y-150784755D01*
X170695582Y-150847990D01*
X170897683Y-150880000D01*
X171102317Y-150880000D01*
X171304417Y-150847990D01*
X171499031Y-150784755D01*
X171681349Y-150691859D01*
X171725921Y-150659474D01*
X171046447Y-149980000D01*
X171052661Y-149980000D01*
X171154394Y-149952741D01*
X171245606Y-149900080D01*
X171320080Y-149825606D01*
X171372741Y-149734394D01*
X171400000Y-149632661D01*
X171400000Y-149626447D01*
X172079474Y-150305921D01*
X172111859Y-150261349D01*
X172204755Y-150079031D01*
X172267990Y-149884417D01*
X172300000Y-149682317D01*
X172300000Y-149477682D01*
X172267990Y-149275582D01*
X172204755Y-149080968D01*
X172111859Y-148898650D01*
X172079474Y-148854077D01*
X172079474Y-148854076D01*
X171400000Y-149533551D01*
X171400000Y-149527339D01*
X171372741Y-149425606D01*
X171320080Y-149334394D01*
X171245606Y-149259920D01*
X171154394Y-149207259D01*
X171052661Y-149180000D01*
X171046446Y-149180000D01*
X171725922Y-148500524D01*
X171725921Y-148500523D01*
X171681359Y-148468147D01*
X171681350Y-148468141D01*
X171499031Y-148375244D01*
X171304417Y-148312009D01*
X171102317Y-148280000D01*
X170897683Y-148280000D01*
X170695582Y-148312009D01*
X170500968Y-148375244D01*
X170318644Y-148468143D01*
X170274077Y-148500523D01*
X170274077Y-148500524D01*
X170953554Y-149180000D01*
X170947339Y-149180000D01*
X170845606Y-149207259D01*
X170754394Y-149259920D01*
X170679920Y-149334394D01*
X170627259Y-149425606D01*
X170600000Y-149527339D01*
X170600000Y-149533553D01*
X169920524Y-148854077D01*
X169920523Y-148854077D01*
X169888143Y-148898644D01*
X169795244Y-149080968D01*
X169732009Y-149275582D01*
X169700000Y-149477682D01*
X115750500Y-149477682D01*
X115750500Y-143653389D01*
X129869500Y-143653389D01*
X129869500Y-144626611D01*
X129896598Y-144797701D01*
X129950127Y-144962445D01*
X130028768Y-145116788D01*
X130130586Y-145256928D01*
X130253072Y-145379414D01*
X130393212Y-145481232D01*
X130547555Y-145559873D01*
X130712299Y-145613402D01*
X130883389Y-145640500D01*
X130883390Y-145640500D01*
X131056610Y-145640500D01*
X131056611Y-145640500D01*
X131227701Y-145613402D01*
X131392445Y-145559873D01*
X131546788Y-145481232D01*
X131686928Y-145379414D01*
X131809414Y-145256928D01*
X131911232Y-145116788D01*
X131989873Y-144962445D01*
X132043402Y-144797701D01*
X132070500Y-144626611D01*
X132070500Y-143653389D01*
X132409500Y-143653389D01*
X132409500Y-144626611D01*
X132436598Y-144797701D01*
X132490127Y-144962445D01*
X132568768Y-145116788D01*
X132670586Y-145256928D01*
X132793072Y-145379414D01*
X132933212Y-145481232D01*
X133087555Y-145559873D01*
X133252299Y-145613402D01*
X133423389Y-145640500D01*
X133423390Y-145640500D01*
X133596610Y-145640500D01*
X133596611Y-145640500D01*
X133767701Y-145613402D01*
X133932445Y-145559873D01*
X134086788Y-145481232D01*
X134226928Y-145379414D01*
X134349414Y-145256928D01*
X134451232Y-145116788D01*
X134529873Y-144962445D01*
X134583402Y-144797701D01*
X134610500Y-144626611D01*
X134610500Y-143653389D01*
X134949500Y-143653389D01*
X134949500Y-144626611D01*
X134976598Y-144797701D01*
X135030127Y-144962445D01*
X135108768Y-145116788D01*
X135210586Y-145256928D01*
X135333072Y-145379414D01*
X135473212Y-145481232D01*
X135627555Y-145559873D01*
X135792299Y-145613402D01*
X135963389Y-145640500D01*
X135963390Y-145640500D01*
X136136610Y-145640500D01*
X136136611Y-145640500D01*
X136307701Y-145613402D01*
X136472445Y-145559873D01*
X136626788Y-145481232D01*
X136766928Y-145379414D01*
X136889414Y-145256928D01*
X136991232Y-145116788D01*
X137069873Y-144962445D01*
X137123402Y-144797701D01*
X137150500Y-144626611D01*
X137150500Y-143653389D01*
X137489500Y-143653389D01*
X137489500Y-144626611D01*
X137516598Y-144797701D01*
X137570127Y-144962445D01*
X137648768Y-145116788D01*
X137750586Y-145256928D01*
X137873072Y-145379414D01*
X138013212Y-145481232D01*
X138167555Y-145559873D01*
X138332299Y-145613402D01*
X138503389Y-145640500D01*
X138503390Y-145640500D01*
X138676610Y-145640500D01*
X138676611Y-145640500D01*
X138847701Y-145613402D01*
X139012445Y-145559873D01*
X139166788Y-145481232D01*
X139306928Y-145379414D01*
X139429414Y-145256928D01*
X139531232Y-145116788D01*
X139609873Y-144962445D01*
X139663402Y-144797701D01*
X139690500Y-144626611D01*
X139690500Y-143653389D01*
X140029500Y-143653389D01*
X140029500Y-144626611D01*
X140056598Y-144797701D01*
X140110127Y-144962445D01*
X140188768Y-145116788D01*
X140290586Y-145256928D01*
X140413072Y-145379414D01*
X140553212Y-145481232D01*
X140707555Y-145559873D01*
X140872299Y-145613402D01*
X141043389Y-145640500D01*
X141043390Y-145640500D01*
X141216610Y-145640500D01*
X141216611Y-145640500D01*
X141387701Y-145613402D01*
X141552445Y-145559873D01*
X141706788Y-145481232D01*
X141846928Y-145379414D01*
X141969414Y-145256928D01*
X142071232Y-145116788D01*
X142149873Y-144962445D01*
X142203402Y-144797701D01*
X142230500Y-144626611D01*
X142230500Y-143653389D01*
X142569500Y-143653389D01*
X142569500Y-144626611D01*
X142596598Y-144797701D01*
X142650127Y-144962445D01*
X142728768Y-145116788D01*
X142830586Y-145256928D01*
X142953072Y-145379414D01*
X143093212Y-145481232D01*
X143247555Y-145559873D01*
X143412299Y-145613402D01*
X143583389Y-145640500D01*
X143583390Y-145640500D01*
X143756610Y-145640500D01*
X143756611Y-145640500D01*
X143927701Y-145613402D01*
X144092445Y-145559873D01*
X144246788Y-145481232D01*
X144386928Y-145379414D01*
X144509414Y-145256928D01*
X144611232Y-145116788D01*
X144689873Y-144962445D01*
X144743402Y-144797701D01*
X144770500Y-144626611D01*
X144770500Y-143653389D01*
X145109500Y-143653389D01*
X145109500Y-144626611D01*
X145136598Y-144797701D01*
X145190127Y-144962445D01*
X145268768Y-145116788D01*
X145370586Y-145256928D01*
X145493072Y-145379414D01*
X145633212Y-145481232D01*
X145787555Y-145559873D01*
X145952299Y-145613402D01*
X146123389Y-145640500D01*
X146123390Y-145640500D01*
X146296610Y-145640500D01*
X146296611Y-145640500D01*
X146467701Y-145613402D01*
X146632445Y-145559873D01*
X146786788Y-145481232D01*
X146926928Y-145379414D01*
X147049414Y-145256928D01*
X147151232Y-145116788D01*
X147229873Y-144962445D01*
X147283402Y-144797701D01*
X147310500Y-144626611D01*
X147310500Y-143653389D01*
X147649500Y-143653389D01*
X147649500Y-144626611D01*
X147676598Y-144797701D01*
X147730127Y-144962445D01*
X147808768Y-145116788D01*
X147910586Y-145256928D01*
X148033072Y-145379414D01*
X148173212Y-145481232D01*
X148327555Y-145559873D01*
X148492299Y-145613402D01*
X148663389Y-145640500D01*
X148663390Y-145640500D01*
X148836610Y-145640500D01*
X148836611Y-145640500D01*
X149007701Y-145613402D01*
X149172445Y-145559873D01*
X149326788Y-145481232D01*
X149466928Y-145379414D01*
X149589414Y-145256928D01*
X149691232Y-145116788D01*
X149769873Y-144962445D01*
X149823402Y-144797701D01*
X149850500Y-144626611D01*
X149850500Y-143653389D01*
X149823402Y-143482299D01*
X149769873Y-143317555D01*
X149691232Y-143163212D01*
X149589414Y-143023072D01*
X149466928Y-142900586D01*
X149326788Y-142798768D01*
X149172445Y-142720127D01*
X149007701Y-142666598D01*
X149007699Y-142666597D01*
X149007698Y-142666597D01*
X148876271Y-142645781D01*
X148836611Y-142639500D01*
X148663389Y-142639500D01*
X148623728Y-142645781D01*
X148492302Y-142666597D01*
X148327552Y-142720128D01*
X148173211Y-142798768D01*
X148137386Y-142824797D01*
X148033072Y-142900586D01*
X148033070Y-142900588D01*
X148033069Y-142900588D01*
X147910588Y-143023069D01*
X147910588Y-143023070D01*
X147910586Y-143023072D01*
X147910350Y-143023397D01*
X147808768Y-143163211D01*
X147730128Y-143317552D01*
X147676597Y-143482302D01*
X147649500Y-143653389D01*
X147310500Y-143653389D01*
X147283402Y-143482299D01*
X147229873Y-143317555D01*
X147151232Y-143163212D01*
X147049414Y-143023072D01*
X146926928Y-142900586D01*
X146786788Y-142798768D01*
X146632445Y-142720127D01*
X146467701Y-142666598D01*
X146467699Y-142666597D01*
X146467698Y-142666597D01*
X146336271Y-142645781D01*
X146296611Y-142639500D01*
X146123389Y-142639500D01*
X146083728Y-142645781D01*
X145952302Y-142666597D01*
X145787552Y-142720128D01*
X145633211Y-142798768D01*
X145597386Y-142824797D01*
X145493072Y-142900586D01*
X145493070Y-142900588D01*
X145493069Y-142900588D01*
X145370588Y-143023069D01*
X145370588Y-143023070D01*
X145370586Y-143023072D01*
X145370350Y-143023397D01*
X145268768Y-143163211D01*
X145190128Y-143317552D01*
X145136597Y-143482302D01*
X145109500Y-143653389D01*
X144770500Y-143653389D01*
X144743402Y-143482299D01*
X144689873Y-143317555D01*
X144611232Y-143163212D01*
X144509414Y-143023072D01*
X144386928Y-142900586D01*
X144246788Y-142798768D01*
X144092445Y-142720127D01*
X143927701Y-142666598D01*
X143927699Y-142666597D01*
X143927698Y-142666597D01*
X143796271Y-142645781D01*
X143756611Y-142639500D01*
X143583389Y-142639500D01*
X143543728Y-142645781D01*
X143412302Y-142666597D01*
X143247552Y-142720128D01*
X143093211Y-142798768D01*
X143057386Y-142824797D01*
X142953072Y-142900586D01*
X142953070Y-142900588D01*
X142953069Y-142900588D01*
X142830588Y-143023069D01*
X142830588Y-143023070D01*
X142830586Y-143023072D01*
X142830350Y-143023397D01*
X142728768Y-143163211D01*
X142650128Y-143317552D01*
X142596597Y-143482302D01*
X142569500Y-143653389D01*
X142230500Y-143653389D01*
X142203402Y-143482299D01*
X142149873Y-143317555D01*
X142071232Y-143163212D01*
X141969414Y-143023072D01*
X141846928Y-142900586D01*
X141706788Y-142798768D01*
X141552445Y-142720127D01*
X141387701Y-142666598D01*
X141387699Y-142666597D01*
X141387698Y-142666597D01*
X141256271Y-142645781D01*
X141216611Y-142639500D01*
X141043389Y-142639500D01*
X141003728Y-142645781D01*
X140872302Y-142666597D01*
X140707552Y-142720128D01*
X140553211Y-142798768D01*
X140517386Y-142824797D01*
X140413072Y-142900586D01*
X140413070Y-142900588D01*
X140413069Y-142900588D01*
X140290588Y-143023069D01*
X140290588Y-143023070D01*
X140290586Y-143023072D01*
X140290350Y-143023397D01*
X140188768Y-143163211D01*
X140110128Y-143317552D01*
X140056597Y-143482302D01*
X140029500Y-143653389D01*
X139690500Y-143653389D01*
X139663402Y-143482299D01*
X139609873Y-143317555D01*
X139531232Y-143163212D01*
X139429414Y-143023072D01*
X139306928Y-142900586D01*
X139166788Y-142798768D01*
X139012445Y-142720127D01*
X138847701Y-142666598D01*
X138847699Y-142666597D01*
X138847698Y-142666597D01*
X138716271Y-142645781D01*
X138676611Y-142639500D01*
X138503389Y-142639500D01*
X138463728Y-142645781D01*
X138332302Y-142666597D01*
X138167552Y-142720128D01*
X138013211Y-142798768D01*
X137977386Y-142824797D01*
X137873072Y-142900586D01*
X137873070Y-142900588D01*
X137873069Y-142900588D01*
X137750588Y-143023069D01*
X137750588Y-143023070D01*
X137750586Y-143023072D01*
X137750350Y-143023397D01*
X137648768Y-143163211D01*
X137570128Y-143317552D01*
X137516597Y-143482302D01*
X137489500Y-143653389D01*
X137150500Y-143653389D01*
X137123402Y-143482299D01*
X137069873Y-143317555D01*
X136991232Y-143163212D01*
X136889414Y-143023072D01*
X136766928Y-142900586D01*
X136626788Y-142798768D01*
X136472445Y-142720127D01*
X136307701Y-142666598D01*
X136307699Y-142666597D01*
X136307698Y-142666597D01*
X136176271Y-142645781D01*
X136136611Y-142639500D01*
X135963389Y-142639500D01*
X135923728Y-142645781D01*
X135792302Y-142666597D01*
X135627552Y-142720128D01*
X135473211Y-142798768D01*
X135437386Y-142824797D01*
X135333072Y-142900586D01*
X135333070Y-142900588D01*
X135333069Y-142900588D01*
X135210588Y-143023069D01*
X135210588Y-143023070D01*
X135210586Y-143023072D01*
X135210350Y-143023397D01*
X135108768Y-143163211D01*
X135030128Y-143317552D01*
X134976597Y-143482302D01*
X134949500Y-143653389D01*
X134610500Y-143653389D01*
X134583402Y-143482299D01*
X134529873Y-143317555D01*
X134451232Y-143163212D01*
X134349414Y-143023072D01*
X134226928Y-142900586D01*
X134086788Y-142798768D01*
X133932445Y-142720127D01*
X133767701Y-142666598D01*
X133767699Y-142666597D01*
X133767698Y-142666597D01*
X133636271Y-142645781D01*
X133596611Y-142639500D01*
X133423389Y-142639500D01*
X133383728Y-142645781D01*
X133252302Y-142666597D01*
X133087552Y-142720128D01*
X132933211Y-142798768D01*
X132897386Y-142824797D01*
X132793072Y-142900586D01*
X132793070Y-142900588D01*
X132793069Y-142900588D01*
X132670588Y-143023069D01*
X132670588Y-143023070D01*
X132670586Y-143023072D01*
X132670350Y-143023397D01*
X132568768Y-143163211D01*
X132490128Y-143317552D01*
X132436597Y-143482302D01*
X132409500Y-143653389D01*
X132070500Y-143653389D01*
X132043402Y-143482299D01*
X131989873Y-143317555D01*
X131911232Y-143163212D01*
X131809414Y-143023072D01*
X131686928Y-142900586D01*
X131546788Y-142798768D01*
X131392445Y-142720127D01*
X131227701Y-142666598D01*
X131227699Y-142666597D01*
X131227698Y-142666597D01*
X131096271Y-142645781D01*
X131056611Y-142639500D01*
X130883389Y-142639500D01*
X130843728Y-142645781D01*
X130712302Y-142666597D01*
X130547552Y-142720128D01*
X130393211Y-142798768D01*
X130357386Y-142824797D01*
X130253072Y-142900586D01*
X130253070Y-142900588D01*
X130253069Y-142900588D01*
X130130588Y-143023069D01*
X130130588Y-143023070D01*
X130130586Y-143023072D01*
X130130350Y-143023397D01*
X130028768Y-143163211D01*
X129950128Y-143317552D01*
X129896597Y-143482302D01*
X129869500Y-143653389D01*
X115750500Y-143653389D01*
X115750500Y-135931153D01*
X147439500Y-135931153D01*
X147439500Y-136088846D01*
X147470261Y-136243489D01*
X147470264Y-136243501D01*
X147530602Y-136389172D01*
X147530609Y-136389185D01*
X147618210Y-136520288D01*
X147618213Y-136520292D01*
X147729707Y-136631786D01*
X147729711Y-136631789D01*
X147860814Y-136719390D01*
X147860827Y-136719397D01*
X148006498Y-136779735D01*
X148006503Y-136779737D01*
X148161153Y-136810499D01*
X148161156Y-136810500D01*
X148161158Y-136810500D01*
X148318844Y-136810500D01*
X148318845Y-136810499D01*
X148473497Y-136779737D01*
X148619179Y-136719394D01*
X148713459Y-136656398D01*
X148780136Y-136635520D01*
X148782350Y-136635500D01*
X149699548Y-136635500D01*
X149766587Y-136655185D01*
X149787229Y-136671819D01*
X150785078Y-137669668D01*
X150818563Y-137730991D01*
X150813579Y-137800683D01*
X150771707Y-137856616D01*
X150766291Y-137860449D01*
X150739712Y-137878209D01*
X150739707Y-137878213D01*
X150628213Y-137989707D01*
X150628210Y-137989711D01*
X150540609Y-138120814D01*
X150540602Y-138120827D01*
X150480264Y-138266498D01*
X150480261Y-138266510D01*
X150449500Y-138421153D01*
X150449500Y-138578846D01*
X150480261Y-138733489D01*
X150480264Y-138733501D01*
X150540602Y-138879172D01*
X150540609Y-138879185D01*
X150628209Y-139010287D01*
X150628210Y-139010288D01*
X150628211Y-139010289D01*
X150653181Y-139035259D01*
X150686666Y-139096580D01*
X150689500Y-139122940D01*
X150689500Y-142752814D01*
X150669815Y-142819853D01*
X150638387Y-142853131D01*
X150573072Y-142900585D01*
X150450588Y-143023069D01*
X150450588Y-143023070D01*
X150450586Y-143023072D01*
X150450350Y-143023397D01*
X150348768Y-143163211D01*
X150270128Y-143317552D01*
X150216597Y-143482302D01*
X150189500Y-143653389D01*
X150189500Y-144626611D01*
X150216598Y-144797701D01*
X150270127Y-144962445D01*
X150348768Y-145116788D01*
X150450586Y-145256928D01*
X150573072Y-145379414D01*
X150713212Y-145481232D01*
X150867555Y-145559873D01*
X151032299Y-145613402D01*
X151203389Y-145640500D01*
X151203390Y-145640500D01*
X151376610Y-145640500D01*
X151376611Y-145640500D01*
X151547701Y-145613402D01*
X151712445Y-145559873D01*
X151866788Y-145481232D01*
X152006928Y-145379414D01*
X152129414Y-145256928D01*
X152231232Y-145116788D01*
X152309873Y-144962445D01*
X152363402Y-144797701D01*
X152390500Y-144626611D01*
X152390500Y-143653389D01*
X152363402Y-143482299D01*
X152309873Y-143317555D01*
X152231232Y-143163212D01*
X152129414Y-143023072D01*
X152006928Y-142900586D01*
X151941613Y-142853131D01*
X151898948Y-142797801D01*
X151890500Y-142752814D01*
X151890500Y-139824452D01*
X151910185Y-139757413D01*
X151962989Y-139711658D01*
X152032147Y-139701714D01*
X152095703Y-139730739D01*
X152102181Y-139736771D01*
X155398768Y-143033358D01*
X155432253Y-143094681D01*
X155427269Y-143164373D01*
X155421572Y-143177333D01*
X155350129Y-143317549D01*
X155296597Y-143482302D01*
X155269500Y-143653389D01*
X155269500Y-144626611D01*
X155296598Y-144797701D01*
X155350127Y-144962445D01*
X155428768Y-145116788D01*
X155530586Y-145256928D01*
X155653072Y-145379414D01*
X155793212Y-145481232D01*
X155947555Y-145559873D01*
X156112299Y-145613402D01*
X156283389Y-145640500D01*
X156283390Y-145640500D01*
X156456610Y-145640500D01*
X156456611Y-145640500D01*
X156627701Y-145613402D01*
X156737186Y-145577827D01*
X156807022Y-145575833D01*
X156866855Y-145611913D01*
X156897684Y-145674613D01*
X156899500Y-145695759D01*
X156899500Y-146025500D01*
X156879815Y-146092539D01*
X156827011Y-146138294D01*
X156775500Y-146149500D01*
X154554500Y-146149500D01*
X154487461Y-146129815D01*
X154441706Y-146077011D01*
X154430500Y-146025500D01*
X154430500Y-145527184D01*
X154450185Y-145460145D01*
X154481609Y-145426870D01*
X154546928Y-145379414D01*
X154669414Y-145256928D01*
X154771232Y-145116788D01*
X154849873Y-144962445D01*
X154903402Y-144797701D01*
X154930500Y-144626611D01*
X154930500Y-143653389D01*
X154903402Y-143482299D01*
X154849873Y-143317555D01*
X154771232Y-143163212D01*
X154669414Y-143023072D01*
X154546928Y-142900586D01*
X154406788Y-142798768D01*
X154252445Y-142720127D01*
X154087701Y-142666598D01*
X154087699Y-142666597D01*
X154087698Y-142666597D01*
X153956271Y-142645781D01*
X153916611Y-142639500D01*
X153743389Y-142639500D01*
X153703728Y-142645781D01*
X153572302Y-142666597D01*
X153407552Y-142720128D01*
X153253211Y-142798768D01*
X153217386Y-142824797D01*
X153113072Y-142900586D01*
X153113070Y-142900588D01*
X153113069Y-142900588D01*
X152990588Y-143023069D01*
X152990588Y-143023070D01*
X152990586Y-143023072D01*
X152990350Y-143023397D01*
X152888768Y-143163211D01*
X152810128Y-143317552D01*
X152756597Y-143482302D01*
X152729500Y-143653389D01*
X152729500Y-144626611D01*
X152756598Y-144797701D01*
X152810127Y-144962445D01*
X152888768Y-145116788D01*
X152990586Y-145256928D01*
X153113072Y-145379414D01*
X153178388Y-145426868D01*
X153221051Y-145482195D01*
X153229500Y-145527184D01*
X153229500Y-146243330D01*
X153229499Y-146243348D01*
X153229499Y-146409054D01*
X153229498Y-146409054D01*
X153270424Y-146561787D01*
X153280394Y-146579055D01*
X153280395Y-146579057D01*
X153349477Y-146698712D01*
X153349479Y-146698715D01*
X153349480Y-146698716D01*
X153461284Y-146810520D01*
X153461285Y-146810521D01*
X153881284Y-147230520D01*
X153881286Y-147230521D01*
X153881290Y-147230524D01*
X154018209Y-147309573D01*
X154018216Y-147309577D01*
X154170943Y-147350501D01*
X154170945Y-147350501D01*
X154336654Y-147350501D01*
X154336670Y-147350500D01*
X157163331Y-147350500D01*
X157163347Y-147350501D01*
X157170943Y-147350501D01*
X157329054Y-147350501D01*
X157329057Y-147350501D01*
X157481785Y-147309577D01*
X157531904Y-147280639D01*
X157618716Y-147230520D01*
X157730520Y-147118716D01*
X157730520Y-147118714D01*
X157740728Y-147108507D01*
X157740730Y-147108504D01*
X157858506Y-146990728D01*
X157858511Y-146990724D01*
X157868714Y-146980520D01*
X157868716Y-146980520D01*
X157980520Y-146868716D01*
X158059577Y-146731784D01*
X158100500Y-146579057D01*
X158100500Y-145555520D01*
X158120185Y-145488481D01*
X158172989Y-145442726D01*
X158242147Y-145432782D01*
X158297385Y-145455202D01*
X158309500Y-145464004D01*
X158333210Y-145481231D01*
X158333212Y-145481232D01*
X158487555Y-145559873D01*
X158652299Y-145613402D01*
X158823389Y-145640500D01*
X158823390Y-145640500D01*
X158996610Y-145640500D01*
X158996611Y-145640500D01*
X159167701Y-145613402D01*
X159332445Y-145559873D01*
X159486788Y-145481232D01*
X159626928Y-145379414D01*
X159749414Y-145256928D01*
X159851232Y-145116788D01*
X159929873Y-144962445D01*
X159983402Y-144797701D01*
X160010500Y-144626611D01*
X160010500Y-143653389D01*
X160349500Y-143653389D01*
X160349500Y-144626611D01*
X160376598Y-144797701D01*
X160430127Y-144962445D01*
X160508768Y-145116788D01*
X160610586Y-145256928D01*
X160733072Y-145379414D01*
X160873212Y-145481232D01*
X161027555Y-145559873D01*
X161192299Y-145613402D01*
X161363389Y-145640500D01*
X161363390Y-145640500D01*
X161536610Y-145640500D01*
X161536611Y-145640500D01*
X161707701Y-145613402D01*
X161872445Y-145559873D01*
X162026788Y-145481232D01*
X162166928Y-145379414D01*
X162289414Y-145256928D01*
X162391232Y-145116788D01*
X162469873Y-144962445D01*
X162523402Y-144797701D01*
X162550500Y-144626611D01*
X162550500Y-143653428D01*
X162890000Y-143653428D01*
X162890000Y-143890000D01*
X163674314Y-143890000D01*
X163669920Y-143894394D01*
X163617259Y-143985606D01*
X163590000Y-144087339D01*
X163590000Y-144192661D01*
X163617259Y-144294394D01*
X163669920Y-144385606D01*
X163674314Y-144390000D01*
X162890000Y-144390000D01*
X162890000Y-144626571D01*
X162917085Y-144797584D01*
X162970591Y-144962257D01*
X163049195Y-145116524D01*
X163150967Y-145256602D01*
X163273397Y-145379032D01*
X163413475Y-145480804D01*
X163567744Y-145559408D01*
X163732415Y-145612914D01*
X163732414Y-145612914D01*
X163739999Y-145614115D01*
X163740000Y-145614114D01*
X163740000Y-144455686D01*
X163744394Y-144460080D01*
X163835606Y-144512741D01*
X163937339Y-144540000D01*
X164042661Y-144540000D01*
X164144394Y-144512741D01*
X164235606Y-144460080D01*
X164240000Y-144455686D01*
X164240000Y-145614115D01*
X164247584Y-145612914D01*
X164412255Y-145559408D01*
X164566524Y-145480804D01*
X164706602Y-145379032D01*
X164829032Y-145256602D01*
X164930804Y-145116524D01*
X165009408Y-144962257D01*
X165062914Y-144797584D01*
X165090000Y-144626571D01*
X165090000Y-144390000D01*
X164305686Y-144390000D01*
X164310080Y-144385606D01*
X164362741Y-144294394D01*
X164390000Y-144192661D01*
X164390000Y-144087339D01*
X164362741Y-143985606D01*
X164310080Y-143894394D01*
X164305686Y-143890000D01*
X165090000Y-143890000D01*
X165090000Y-143653428D01*
X165089994Y-143653389D01*
X165429500Y-143653389D01*
X165429500Y-144626611D01*
X165456598Y-144797701D01*
X165510127Y-144962445D01*
X165588768Y-145116788D01*
X165690586Y-145256928D01*
X165813072Y-145379414D01*
X165953212Y-145481232D01*
X166107555Y-145559873D01*
X166272299Y-145613402D01*
X166443389Y-145640500D01*
X166443390Y-145640500D01*
X166616610Y-145640500D01*
X166616611Y-145640500D01*
X166787701Y-145613402D01*
X166952445Y-145559873D01*
X167106788Y-145481232D01*
X167246928Y-145379414D01*
X167369414Y-145256928D01*
X167471232Y-145116788D01*
X167549873Y-144962445D01*
X167603402Y-144797701D01*
X167630500Y-144626611D01*
X167630500Y-143653389D01*
X167603402Y-143482299D01*
X167549873Y-143317555D01*
X167471232Y-143163212D01*
X167369414Y-143023072D01*
X167246928Y-142900586D01*
X167106788Y-142798768D01*
X166952445Y-142720127D01*
X166787701Y-142666598D01*
X166787699Y-142666597D01*
X166787698Y-142666597D01*
X166656271Y-142645781D01*
X166616611Y-142639500D01*
X166443389Y-142639500D01*
X166403728Y-142645781D01*
X166272302Y-142666597D01*
X166107552Y-142720128D01*
X165953211Y-142798768D01*
X165917386Y-142824797D01*
X165813072Y-142900586D01*
X165813070Y-142900588D01*
X165813069Y-142900588D01*
X165690588Y-143023069D01*
X165690588Y-143023070D01*
X165690586Y-143023072D01*
X165690350Y-143023397D01*
X165588768Y-143163211D01*
X165510128Y-143317552D01*
X165456597Y-143482302D01*
X165429500Y-143653389D01*
X165089994Y-143653389D01*
X165062914Y-143482415D01*
X165009408Y-143317742D01*
X164930804Y-143163475D01*
X164829032Y-143023397D01*
X164706602Y-142900967D01*
X164566524Y-142799195D01*
X164412257Y-142720591D01*
X164247589Y-142667087D01*
X164247581Y-142667085D01*
X164240000Y-142665884D01*
X164240000Y-143824314D01*
X164235606Y-143819920D01*
X164144394Y-143767259D01*
X164042661Y-143740000D01*
X163937339Y-143740000D01*
X163835606Y-143767259D01*
X163744394Y-143819920D01*
X163740000Y-143824314D01*
X163740000Y-142665884D01*
X163739999Y-142665884D01*
X163732418Y-142667085D01*
X163732410Y-142667087D01*
X163567742Y-142720591D01*
X163413475Y-142799195D01*
X163273397Y-142900967D01*
X163150967Y-143023397D01*
X163049195Y-143163475D01*
X162970591Y-143317742D01*
X162917085Y-143482415D01*
X162890000Y-143653428D01*
X162550500Y-143653428D01*
X162550500Y-143653389D01*
X162523402Y-143482299D01*
X162469873Y-143317555D01*
X162391232Y-143163212D01*
X162289414Y-143023072D01*
X162166928Y-142900586D01*
X162026788Y-142798768D01*
X161872445Y-142720127D01*
X161707701Y-142666598D01*
X161707699Y-142666597D01*
X161707698Y-142666597D01*
X161576271Y-142645781D01*
X161536611Y-142639500D01*
X161363389Y-142639500D01*
X161323728Y-142645781D01*
X161192302Y-142666597D01*
X161027552Y-142720128D01*
X160873211Y-142798768D01*
X160837386Y-142824797D01*
X160733072Y-142900586D01*
X160733070Y-142900588D01*
X160733069Y-142900588D01*
X160610588Y-143023069D01*
X160610588Y-143023070D01*
X160610586Y-143023072D01*
X160610350Y-143023397D01*
X160508768Y-143163211D01*
X160430128Y-143317552D01*
X160376597Y-143482302D01*
X160349500Y-143653389D01*
X160010500Y-143653389D01*
X159983402Y-143482299D01*
X159929873Y-143317555D01*
X159851232Y-143163212D01*
X159749414Y-143023072D01*
X159626928Y-142900586D01*
X159486788Y-142798768D01*
X159332445Y-142720127D01*
X159167701Y-142666598D01*
X159167699Y-142666597D01*
X159167698Y-142666597D01*
X159036271Y-142645781D01*
X158996611Y-142639500D01*
X158823389Y-142639500D01*
X158783728Y-142645781D01*
X158652302Y-142666597D01*
X158487552Y-142720128D01*
X158333207Y-142798770D01*
X158297385Y-142824797D01*
X158231579Y-142848277D01*
X158163525Y-142832451D01*
X158114830Y-142782345D01*
X158100500Y-142724479D01*
X158100500Y-142589059D01*
X158100501Y-142589046D01*
X158100501Y-142420945D01*
X158100501Y-142420943D01*
X158059577Y-142268215D01*
X158030639Y-142218095D01*
X157980520Y-142131284D01*
X157868716Y-142019480D01*
X157868715Y-142019479D01*
X157864385Y-142015149D01*
X157864374Y-142015139D01*
X157084574Y-141235339D01*
X157051089Y-141174016D01*
X157050638Y-141171849D01*
X157032595Y-141081147D01*
X157019737Y-141016503D01*
X157019735Y-141016498D01*
X156959397Y-140870827D01*
X156959390Y-140870814D01*
X156871789Y-140739711D01*
X156871786Y-140739707D01*
X156760292Y-140628213D01*
X156760288Y-140628210D01*
X156629185Y-140540609D01*
X156629172Y-140540602D01*
X156483501Y-140480264D01*
X156483489Y-140480261D01*
X156328845Y-140449500D01*
X156328842Y-140449500D01*
X156171158Y-140449500D01*
X156171155Y-140449500D01*
X156016510Y-140480261D01*
X156016498Y-140480264D01*
X155870827Y-140540602D01*
X155870814Y-140540609D01*
X155739711Y-140628210D01*
X155739707Y-140628213D01*
X155628213Y-140739707D01*
X155628210Y-140739711D01*
X155540609Y-140870814D01*
X155540602Y-140870827D01*
X155480264Y-141016498D01*
X155480261Y-141016508D01*
X155470908Y-141063531D01*
X155438523Y-141125442D01*
X155377807Y-141160016D01*
X155308038Y-141156276D01*
X155261610Y-141127020D01*
X154869104Y-140734514D01*
X154835619Y-140673191D01*
X154840603Y-140603499D01*
X154882475Y-140547566D01*
X154937384Y-140524361D01*
X154974534Y-140518477D01*
X155169219Y-140455220D01*
X155351610Y-140362287D01*
X155482461Y-140267219D01*
X155517213Y-140241971D01*
X155517215Y-140241968D01*
X155517219Y-140241966D01*
X155661966Y-140097219D01*
X155661968Y-140097215D01*
X155661971Y-140097213D01*
X155714732Y-140024590D01*
X155782287Y-139931610D01*
X155875220Y-139749219D01*
X155938477Y-139554534D01*
X155970500Y-139352352D01*
X155970500Y-139147682D01*
X163530000Y-139147682D01*
X163530000Y-139352317D01*
X163562009Y-139554417D01*
X163625244Y-139749031D01*
X163718141Y-139931350D01*
X163718147Y-139931359D01*
X163750523Y-139975921D01*
X163750524Y-139975922D01*
X164430000Y-139296446D01*
X164430000Y-139302661D01*
X164457259Y-139404394D01*
X164509920Y-139495606D01*
X164584394Y-139570080D01*
X164675606Y-139622741D01*
X164777339Y-139650000D01*
X164783553Y-139650000D01*
X164104076Y-140329474D01*
X164148650Y-140361859D01*
X164330968Y-140454755D01*
X164525582Y-140517990D01*
X164727683Y-140550000D01*
X164932317Y-140550000D01*
X165134417Y-140517990D01*
X165329031Y-140454755D01*
X165511349Y-140361859D01*
X165555921Y-140329474D01*
X164876447Y-139650000D01*
X164882661Y-139650000D01*
X164984394Y-139622741D01*
X165075606Y-139570080D01*
X165150080Y-139495606D01*
X165202741Y-139404394D01*
X165230000Y-139302661D01*
X165230000Y-139296448D01*
X165909474Y-139975922D01*
X165909474Y-139975921D01*
X165941859Y-139931349D01*
X166034755Y-139749031D01*
X166097990Y-139554417D01*
X166130000Y-139352317D01*
X166130000Y-139317648D01*
X169699500Y-139317648D01*
X169699500Y-139522351D01*
X169731522Y-139724534D01*
X169794781Y-139919223D01*
X169887715Y-140101613D01*
X170008028Y-140267213D01*
X170152786Y-140411971D01*
X170298712Y-140517990D01*
X170318390Y-140532287D01*
X170434607Y-140591503D01*
X170500776Y-140625218D01*
X170500778Y-140625218D01*
X170500781Y-140625220D01*
X170605137Y-140659127D01*
X170695465Y-140688477D01*
X170796557Y-140704488D01*
X170897648Y-140720500D01*
X170897649Y-140720500D01*
X171102351Y-140720500D01*
X171102352Y-140720500D01*
X171304534Y-140688477D01*
X171499219Y-140625220D01*
X171681610Y-140532287D01*
X171774590Y-140464732D01*
X171847213Y-140411971D01*
X171847215Y-140411968D01*
X171847219Y-140411966D01*
X171991966Y-140267219D01*
X171991968Y-140267215D01*
X171991971Y-140267213D01*
X172044774Y-140194534D01*
X172112287Y-140101610D01*
X172205220Y-139919219D01*
X172268477Y-139724534D01*
X172300500Y-139522352D01*
X172300500Y-139317648D01*
X172268477Y-139115466D01*
X172205220Y-138920781D01*
X172205218Y-138920778D01*
X172205218Y-138920776D01*
X172126981Y-138767229D01*
X172112287Y-138738390D01*
X172088686Y-138705906D01*
X171991971Y-138572786D01*
X171847213Y-138428028D01*
X171681613Y-138307715D01*
X171681612Y-138307714D01*
X171681610Y-138307713D01*
X171600731Y-138266503D01*
X171499223Y-138214781D01*
X171304534Y-138151522D01*
X171110692Y-138120821D01*
X171102352Y-138119500D01*
X170897648Y-138119500D01*
X170889308Y-138120821D01*
X170695465Y-138151522D01*
X170500776Y-138214781D01*
X170318386Y-138307715D01*
X170152786Y-138428028D01*
X170008028Y-138572786D01*
X169887715Y-138738386D01*
X169794781Y-138920776D01*
X169731522Y-139115465D01*
X169699500Y-139317648D01*
X166130000Y-139317648D01*
X166130000Y-139147682D01*
X166097990Y-138945582D01*
X166034755Y-138750968D01*
X165941859Y-138568650D01*
X165909474Y-138524077D01*
X165909474Y-138524076D01*
X165230000Y-139203551D01*
X165230000Y-139197339D01*
X165202741Y-139095606D01*
X165150080Y-139004394D01*
X165075606Y-138929920D01*
X164984394Y-138877259D01*
X164882661Y-138850000D01*
X164876446Y-138850000D01*
X165555922Y-138170524D01*
X165555921Y-138170523D01*
X165511359Y-138138147D01*
X165511350Y-138138141D01*
X165329031Y-138045244D01*
X165134417Y-137982009D01*
X164932317Y-137950000D01*
X164727683Y-137950000D01*
X164525582Y-137982009D01*
X164330968Y-138045244D01*
X164148644Y-138138143D01*
X164104077Y-138170523D01*
X164104077Y-138170524D01*
X164783554Y-138850000D01*
X164777339Y-138850000D01*
X164675606Y-138877259D01*
X164584394Y-138929920D01*
X164509920Y-139004394D01*
X164457259Y-139095606D01*
X164430000Y-139197339D01*
X164430000Y-139203553D01*
X163750524Y-138524077D01*
X163750523Y-138524077D01*
X163718143Y-138568644D01*
X163625244Y-138750968D01*
X163562009Y-138945582D01*
X163530000Y-139147682D01*
X155970500Y-139147682D01*
X155970500Y-139147648D01*
X155965403Y-139115465D01*
X155938477Y-138945465D01*
X155880564Y-138767229D01*
X155875220Y-138750781D01*
X155875218Y-138750778D01*
X155875218Y-138750776D01*
X155838925Y-138679548D01*
X155782287Y-138568390D01*
X155750092Y-138524077D01*
X155661971Y-138402786D01*
X155517213Y-138258028D01*
X155351613Y-138137715D01*
X155351612Y-138137714D01*
X155351610Y-138137713D01*
X155294653Y-138108691D01*
X155169223Y-138044781D01*
X154974534Y-137981522D01*
X154799995Y-137953878D01*
X154772352Y-137949500D01*
X154567648Y-137949500D01*
X154543329Y-137953351D01*
X154365465Y-137981522D01*
X154170776Y-138044781D01*
X153988386Y-138137715D01*
X153822786Y-138258028D01*
X153678028Y-138402786D01*
X153557715Y-138568386D01*
X153464781Y-138750776D01*
X153401523Y-138945464D01*
X153395639Y-138982613D01*
X153365709Y-139045748D01*
X153306397Y-139082678D01*
X153236534Y-139081680D01*
X153185485Y-139050895D01*
X152901819Y-138767229D01*
X152868334Y-138705906D01*
X152865500Y-138679548D01*
X152865500Y-138178393D01*
X152865499Y-138178389D01*
X152860155Y-138151522D01*
X152841463Y-138057548D01*
X152794311Y-137943714D01*
X152794310Y-137943713D01*
X152794307Y-137943707D01*
X152725858Y-137841267D01*
X152725855Y-137841263D01*
X152635637Y-137751045D01*
X152635606Y-137751016D01*
X151362238Y-136477648D01*
X166949500Y-136477648D01*
X166949500Y-136682351D01*
X166981522Y-136884534D01*
X167044781Y-137079223D01*
X167137715Y-137261613D01*
X167258028Y-137427213D01*
X167402786Y-137571971D01*
X167537257Y-137669668D01*
X167568390Y-137692287D01*
X167644351Y-137730991D01*
X167750776Y-137785218D01*
X167750778Y-137785218D01*
X167750781Y-137785220D01*
X167855137Y-137819127D01*
X167945465Y-137848477D01*
X168021053Y-137860449D01*
X168147648Y-137880500D01*
X168147649Y-137880500D01*
X168352351Y-137880500D01*
X168352352Y-137880500D01*
X168554534Y-137848477D01*
X168749219Y-137785220D01*
X168931610Y-137692287D01*
X169024590Y-137624732D01*
X169097213Y-137571971D01*
X169097215Y-137571968D01*
X169097219Y-137571966D01*
X169241966Y-137427219D01*
X169241968Y-137427215D01*
X169241971Y-137427213D01*
X169294732Y-137354590D01*
X169362287Y-137261610D01*
X169455220Y-137079219D01*
X169518477Y-136884534D01*
X169550500Y-136682352D01*
X169550500Y-136477648D01*
X169518477Y-136275466D01*
X169455220Y-136080781D01*
X169455218Y-136080778D01*
X169455218Y-136080776D01*
X169421503Y-136014607D01*
X169362287Y-135898390D01*
X169308966Y-135824999D01*
X169241971Y-135732786D01*
X169097213Y-135588028D01*
X168931613Y-135467715D01*
X168931612Y-135467714D01*
X168931610Y-135467713D01*
X168848111Y-135425168D01*
X168749223Y-135374781D01*
X168554534Y-135311522D01*
X168379995Y-135283878D01*
X168352352Y-135279500D01*
X168147648Y-135279500D01*
X168123329Y-135283351D01*
X167945465Y-135311522D01*
X167750776Y-135374781D01*
X167568386Y-135467715D01*
X167402786Y-135588028D01*
X167258028Y-135732786D01*
X167137715Y-135898386D01*
X167044781Y-136080776D01*
X166981522Y-136275465D01*
X166949500Y-136477648D01*
X151362238Y-136477648D01*
X150503150Y-135618560D01*
X150495860Y-135611270D01*
X150495858Y-135611267D01*
X150408733Y-135524142D01*
X150357509Y-135489915D01*
X150306286Y-135455688D01*
X150306283Y-135455686D01*
X150306280Y-135455685D01*
X150232603Y-135425168D01*
X150232601Y-135425167D01*
X150225792Y-135422347D01*
X150192452Y-135408537D01*
X150132029Y-135396518D01*
X150127306Y-135395578D01*
X150127304Y-135395578D01*
X150071610Y-135384500D01*
X150071607Y-135384500D01*
X150071606Y-135384500D01*
X148782350Y-135384500D01*
X148715311Y-135364815D01*
X148713459Y-135363602D01*
X148619184Y-135300609D01*
X148619172Y-135300602D01*
X148473501Y-135240264D01*
X148473489Y-135240261D01*
X148318845Y-135209500D01*
X148318842Y-135209500D01*
X148161158Y-135209500D01*
X148161155Y-135209500D01*
X148006510Y-135240261D01*
X148006498Y-135240264D01*
X147860827Y-135300602D01*
X147860814Y-135300609D01*
X147729711Y-135388210D01*
X147729707Y-135388213D01*
X147618213Y-135499707D01*
X147618210Y-135499711D01*
X147530609Y-135630814D01*
X147530602Y-135630827D01*
X147470264Y-135776498D01*
X147470261Y-135776510D01*
X147439500Y-135931153D01*
X115750500Y-135931153D01*
X115750500Y-133397648D01*
X118199500Y-133397648D01*
X118199500Y-133602351D01*
X118231522Y-133804534D01*
X118294781Y-133999223D01*
X118322851Y-134054312D01*
X118365406Y-134137831D01*
X118387715Y-134181613D01*
X118508028Y-134347213D01*
X118652786Y-134491971D01*
X118794245Y-134594745D01*
X118818390Y-134612287D01*
X118934607Y-134671503D01*
X119000776Y-134705218D01*
X119000778Y-134705218D01*
X119000781Y-134705220D01*
X119105137Y-134739127D01*
X119195465Y-134768477D01*
X119296557Y-134784488D01*
X119397648Y-134800500D01*
X119397649Y-134800500D01*
X119602351Y-134800500D01*
X119602352Y-134800500D01*
X119804534Y-134768477D01*
X119999219Y-134705220D01*
X120181610Y-134612287D01*
X120274590Y-134544732D01*
X120347213Y-134491971D01*
X120347215Y-134491968D01*
X120347219Y-134491966D01*
X120491966Y-134347219D01*
X120491968Y-134347215D01*
X120491971Y-134347213D01*
X120615151Y-134177669D01*
X120616823Y-134178884D01*
X120662208Y-134137831D01*
X120716115Y-134125500D01*
X123231607Y-134125500D01*
X123292029Y-134113481D01*
X123352452Y-134101463D01*
X123385792Y-134087652D01*
X123466286Y-134054312D01*
X123517509Y-134020084D01*
X123568733Y-133985858D01*
X123633438Y-133921153D01*
X144199500Y-133921153D01*
X144199500Y-134078846D01*
X144230261Y-134233489D01*
X144230264Y-134233501D01*
X144290602Y-134379172D01*
X144290609Y-134379185D01*
X144378210Y-134510288D01*
X144378213Y-134510292D01*
X144489707Y-134621786D01*
X144489711Y-134621789D01*
X144620814Y-134709390D01*
X144620827Y-134709397D01*
X144719034Y-134750075D01*
X144766503Y-134769737D01*
X144915849Y-134799444D01*
X144921153Y-134800499D01*
X144921156Y-134800500D01*
X144921158Y-134800500D01*
X145078844Y-134800500D01*
X145078845Y-134800499D01*
X145233497Y-134769737D01*
X145379179Y-134709394D01*
X145510289Y-134621789D01*
X145621789Y-134510289D01*
X145709394Y-134379179D01*
X145769737Y-134233497D01*
X145793610Y-134113481D01*
X145798601Y-134088389D01*
X156399500Y-134088389D01*
X156399500Y-134811611D01*
X156426598Y-134982701D01*
X156480127Y-135147445D01*
X156558768Y-135301788D01*
X156660586Y-135441928D01*
X156783072Y-135564414D01*
X156923212Y-135666232D01*
X157077555Y-135744873D01*
X157242299Y-135798402D01*
X157413389Y-135825500D01*
X157413390Y-135825500D01*
X157586610Y-135825500D01*
X157586611Y-135825500D01*
X157757701Y-135798402D01*
X157922445Y-135744873D01*
X158076788Y-135666232D01*
X158216928Y-135564414D01*
X158324836Y-135456505D01*
X158386155Y-135423023D01*
X158455847Y-135428007D01*
X158511781Y-135469878D01*
X158518053Y-135479093D01*
X158557682Y-135543343D01*
X158681654Y-135667315D01*
X158830875Y-135759356D01*
X158830880Y-135759358D01*
X158997302Y-135814505D01*
X158997309Y-135814506D01*
X159100019Y-135824999D01*
X159249999Y-135824999D01*
X159250000Y-135824998D01*
X159250000Y-134730330D01*
X159269745Y-134750075D01*
X159355255Y-134799444D01*
X159450630Y-134825000D01*
X159549370Y-134825000D01*
X159644745Y-134799444D01*
X159730255Y-134750075D01*
X159750000Y-134730330D01*
X159750000Y-135824999D01*
X159899972Y-135824999D01*
X159899986Y-135824998D01*
X160002697Y-135814505D01*
X160169119Y-135759358D01*
X160169124Y-135759356D01*
X160318345Y-135667315D01*
X160442315Y-135543345D01*
X160534356Y-135394124D01*
X160534358Y-135394119D01*
X160589505Y-135227697D01*
X160589506Y-135227690D01*
X160599999Y-135124986D01*
X160600000Y-135124973D01*
X160600000Y-134700000D01*
X159780330Y-134700000D01*
X159800075Y-134680255D01*
X159849444Y-134594745D01*
X159875000Y-134499370D01*
X159875000Y-134400630D01*
X159849444Y-134305255D01*
X159800075Y-134219745D01*
X159780330Y-134200000D01*
X160599999Y-134200000D01*
X160599999Y-133775028D01*
X160599998Y-133775013D01*
X160589505Y-133672302D01*
X160534358Y-133505880D01*
X160534356Y-133505875D01*
X160442315Y-133356654D01*
X160318345Y-133232684D01*
X160169124Y-133140643D01*
X160169119Y-133140641D01*
X160002697Y-133085494D01*
X160002690Y-133085493D01*
X159899986Y-133075000D01*
X159750000Y-133075000D01*
X159750000Y-134169670D01*
X159730255Y-134149925D01*
X159644745Y-134100556D01*
X159549370Y-134075000D01*
X159450630Y-134075000D01*
X159355255Y-134100556D01*
X159269745Y-134149925D01*
X159250000Y-134169670D01*
X159250000Y-133075000D01*
X159100027Y-133075000D01*
X159100012Y-133075001D01*
X158997302Y-133085494D01*
X158830880Y-133140641D01*
X158830875Y-133140643D01*
X158681654Y-133232684D01*
X158557684Y-133356654D01*
X158518053Y-133420907D01*
X158466105Y-133467631D01*
X158397142Y-133478853D01*
X158333060Y-133451010D01*
X158324833Y-133443491D01*
X158216930Y-133335588D01*
X158216928Y-133335586D01*
X158076788Y-133233768D01*
X157964500Y-133176555D01*
X157922447Y-133155128D01*
X157922446Y-133155127D01*
X157922445Y-133155127D01*
X157757701Y-133101598D01*
X157757699Y-133101597D01*
X157757698Y-133101597D01*
X157626271Y-133080781D01*
X157586611Y-133074500D01*
X157413389Y-133074500D01*
X157373728Y-133080781D01*
X157242302Y-133101597D01*
X157077552Y-133155128D01*
X156923211Y-133233768D01*
X156844987Y-133290602D01*
X156783072Y-133335586D01*
X156783070Y-133335588D01*
X156783069Y-133335588D01*
X156660588Y-133458069D01*
X156660588Y-133458070D01*
X156660586Y-133458072D01*
X156625855Y-133505875D01*
X156558768Y-133598211D01*
X156480128Y-133752552D01*
X156426597Y-133917302D01*
X156404898Y-134054309D01*
X156399500Y-134088389D01*
X145798601Y-134088389D01*
X145800638Y-134078150D01*
X145833023Y-134016239D01*
X145834512Y-134014722D01*
X146071607Y-133777628D01*
X146132926Y-133744146D01*
X146135093Y-133743695D01*
X146135782Y-133743558D01*
X146135784Y-133743558D01*
X146290439Y-133712795D01*
X146436121Y-133652452D01*
X146567231Y-133564847D01*
X146678731Y-133453347D01*
X146766336Y-133322237D01*
X146767638Y-133319095D01*
X146804432Y-133230264D01*
X146826679Y-133176555D01*
X146857442Y-133021900D01*
X146857442Y-132864216D01*
X146857442Y-132864213D01*
X146857441Y-132864211D01*
X146848931Y-132821428D01*
X146826679Y-132709561D01*
X146802008Y-132650000D01*
X146766339Y-132563885D01*
X146766332Y-132563872D01*
X146678731Y-132432769D01*
X146678728Y-132432765D01*
X146567234Y-132321271D01*
X146567230Y-132321268D01*
X146454401Y-132245878D01*
X146454400Y-132245877D01*
X146436129Y-132233668D01*
X146436114Y-132233660D01*
X146290443Y-132173322D01*
X146290431Y-132173319D01*
X146161376Y-132147648D01*
X153449500Y-132147648D01*
X153449500Y-132352351D01*
X153481522Y-132554534D01*
X153544781Y-132749223D01*
X153580022Y-132818386D01*
X153636075Y-132928396D01*
X153637715Y-132931613D01*
X153758028Y-133097213D01*
X153902786Y-133241971D01*
X154057749Y-133354556D01*
X154068390Y-133362287D01*
X154158927Y-133408418D01*
X154250776Y-133455218D01*
X154250778Y-133455218D01*
X154250781Y-133455220D01*
X154293872Y-133469221D01*
X154445465Y-133518477D01*
X154546557Y-133534488D01*
X154647648Y-133550500D01*
X154647649Y-133550500D01*
X154852351Y-133550500D01*
X154852352Y-133550500D01*
X155054534Y-133518477D01*
X155249219Y-133455220D01*
X155431610Y-133362287D01*
X155530277Y-133290602D01*
X155597213Y-133241971D01*
X155597215Y-133241968D01*
X155597219Y-133241966D01*
X155741966Y-133097219D01*
X155741968Y-133097215D01*
X155741971Y-133097213D01*
X155812035Y-133000776D01*
X155862287Y-132931610D01*
X155955220Y-132749219D01*
X156018477Y-132554534D01*
X156050500Y-132352352D01*
X156050500Y-132147648D01*
X156028744Y-132010288D01*
X156018477Y-131945465D01*
X155955218Y-131750776D01*
X155894768Y-131632138D01*
X155862287Y-131568390D01*
X155826939Y-131519737D01*
X155741971Y-131402786D01*
X155597213Y-131258028D01*
X155431613Y-131137715D01*
X155431612Y-131137714D01*
X155431610Y-131137713D01*
X155339470Y-131090765D01*
X155249223Y-131044781D01*
X155054534Y-130981522D01*
X154879995Y-130953878D01*
X154852352Y-130949500D01*
X154647648Y-130949500D01*
X154623329Y-130953351D01*
X154445465Y-130981522D01*
X154250776Y-131044781D01*
X154068386Y-131137715D01*
X153902786Y-131258028D01*
X153758028Y-131402786D01*
X153637715Y-131568386D01*
X153544781Y-131750776D01*
X153481522Y-131945465D01*
X153449500Y-132147648D01*
X146161376Y-132147648D01*
X146135787Y-132142558D01*
X146135784Y-132142558D01*
X145978100Y-132142558D01*
X145978097Y-132142558D01*
X145823452Y-132173319D01*
X145823440Y-132173322D01*
X145677769Y-132233660D01*
X145677756Y-132233667D01*
X145546653Y-132321268D01*
X145546649Y-132321271D01*
X145435155Y-132432765D01*
X145435152Y-132432769D01*
X145347551Y-132563872D01*
X145347544Y-132563885D01*
X145287206Y-132709556D01*
X145287203Y-132709566D01*
X145256304Y-132864907D01*
X145223919Y-132926817D01*
X145222368Y-132928396D01*
X144985339Y-133165425D01*
X144924016Y-133198910D01*
X144921850Y-133199361D01*
X144766508Y-133230261D01*
X144766498Y-133230264D01*
X144620827Y-133290602D01*
X144620814Y-133290609D01*
X144489711Y-133378210D01*
X144489707Y-133378213D01*
X144378213Y-133489707D01*
X144378210Y-133489711D01*
X144290609Y-133620814D01*
X144290602Y-133620827D01*
X144230264Y-133766498D01*
X144230261Y-133766510D01*
X144199500Y-133921153D01*
X123633438Y-133921153D01*
X123655858Y-133898733D01*
X123655859Y-133898731D01*
X123662925Y-133891665D01*
X123662928Y-133891661D01*
X128038013Y-129516575D01*
X128099334Y-129483092D01*
X128169026Y-129488076D01*
X128224959Y-129529948D01*
X128249376Y-129595412D01*
X128249338Y-129606711D01*
X128249500Y-129606711D01*
X128249500Y-129808422D01*
X128280290Y-130002826D01*
X128341117Y-130190029D01*
X128430476Y-130365405D01*
X128546172Y-130524646D01*
X128685354Y-130663828D01*
X128804784Y-130750600D01*
X128844596Y-130779525D01*
X129021763Y-130869795D01*
X129072560Y-130917769D01*
X129089355Y-130985590D01*
X129066818Y-131051725D01*
X129021764Y-131090765D01*
X128844859Y-131180902D01*
X128809873Y-131206320D01*
X128809872Y-131206320D01*
X129453554Y-131850000D01*
X129447339Y-131850000D01*
X129345606Y-131877259D01*
X129254394Y-131929920D01*
X129179920Y-132004394D01*
X129127259Y-132095606D01*
X129100000Y-132197339D01*
X129100000Y-132203552D01*
X128456320Y-131559872D01*
X128456320Y-131559873D01*
X128430902Y-131594859D01*
X128430899Y-131594863D01*
X128341582Y-131770161D01*
X128280778Y-131957294D01*
X128250000Y-132151617D01*
X128250000Y-132348382D01*
X128280778Y-132542705D01*
X128341581Y-132729835D01*
X128430905Y-132905145D01*
X128456319Y-132940125D01*
X128456320Y-132940125D01*
X129100000Y-132296445D01*
X129100000Y-132302661D01*
X129127259Y-132404394D01*
X129179920Y-132495606D01*
X129254394Y-132570080D01*
X129345606Y-132622741D01*
X129447339Y-132650000D01*
X129453553Y-132650000D01*
X128809873Y-133293677D01*
X128809873Y-133293678D01*
X128844858Y-133319096D01*
X129020164Y-133408418D01*
X129207294Y-133469221D01*
X129401618Y-133500000D01*
X129598382Y-133500000D01*
X129792705Y-133469221D01*
X129979835Y-133408418D01*
X130155143Y-133319095D01*
X130190125Y-133293678D01*
X130190126Y-133293678D01*
X129546448Y-132650000D01*
X129552661Y-132650000D01*
X129654394Y-132622741D01*
X129745606Y-132570080D01*
X129820080Y-132495606D01*
X129872741Y-132404394D01*
X129900000Y-132302661D01*
X129900000Y-132296448D01*
X130543678Y-132940126D01*
X130543678Y-132940125D01*
X130569095Y-132905143D01*
X130658418Y-132729835D01*
X130719221Y-132542705D01*
X130750000Y-132348382D01*
X130750000Y-132151617D01*
X130719221Y-131957294D01*
X130658418Y-131770164D01*
X130569096Y-131594858D01*
X130543678Y-131559873D01*
X130543677Y-131559873D01*
X129900000Y-132203551D01*
X129900000Y-132197339D01*
X129872741Y-132095606D01*
X129820080Y-132004394D01*
X129745606Y-131929920D01*
X129654394Y-131877259D01*
X129552661Y-131850000D01*
X129546447Y-131850000D01*
X130190125Y-131206320D01*
X130190125Y-131206319D01*
X130155145Y-131180905D01*
X129978235Y-131090765D01*
X129927439Y-131042790D01*
X129910644Y-130974969D01*
X129933182Y-130908834D01*
X129978236Y-130869795D01*
X129980022Y-130868884D01*
X129980025Y-130868884D01*
X130155405Y-130779524D01*
X130304564Y-130671153D01*
X140699500Y-130671153D01*
X140699500Y-130828846D01*
X140730261Y-130983489D01*
X140730264Y-130983501D01*
X140790602Y-131129172D01*
X140790609Y-131129185D01*
X140878210Y-131260288D01*
X140878213Y-131260292D01*
X140989707Y-131371786D01*
X140989711Y-131371789D01*
X141120814Y-131459390D01*
X141120827Y-131459397D01*
X141254246Y-131514660D01*
X141266503Y-131519737D01*
X141362367Y-131538805D01*
X141363535Y-131539038D01*
X141425446Y-131571422D01*
X141460020Y-131632138D01*
X141460961Y-131636463D01*
X141480261Y-131733491D01*
X141480264Y-131733501D01*
X141540602Y-131879172D01*
X141540609Y-131879185D01*
X141628210Y-132010288D01*
X141628213Y-132010292D01*
X141739707Y-132121786D01*
X141739711Y-132121789D01*
X141870814Y-132209390D01*
X141870827Y-132209397D01*
X142016498Y-132269735D01*
X142016503Y-132269737D01*
X142142402Y-132294780D01*
X142171153Y-132300499D01*
X142171156Y-132300500D01*
X142171158Y-132300500D01*
X142328844Y-132300500D01*
X142328845Y-132300499D01*
X142483497Y-132269737D01*
X142629179Y-132209394D01*
X142760289Y-132121789D01*
X142871789Y-132010289D01*
X142959394Y-131879179D01*
X143019737Y-131733497D01*
X143035738Y-131653052D01*
X143050638Y-131578151D01*
X143083023Y-131516240D01*
X143084510Y-131514724D01*
X143230520Y-131368716D01*
X143309577Y-131231784D01*
X143350501Y-131079057D01*
X143350501Y-130920942D01*
X143350501Y-130913347D01*
X143350500Y-130913329D01*
X143350500Y-129079765D01*
X143370185Y-129012726D01*
X143371398Y-129010874D01*
X143459390Y-128879185D01*
X143459390Y-128879184D01*
X143459394Y-128879179D01*
X143519737Y-128733497D01*
X143550500Y-128578842D01*
X143550500Y-128421158D01*
X143550500Y-128421155D01*
X143550499Y-128421153D01*
X143527675Y-128306406D01*
X143519738Y-128266508D01*
X143519737Y-128266507D01*
X143519737Y-128266503D01*
X143519735Y-128266498D01*
X143459397Y-128120827D01*
X143459390Y-128120814D01*
X143371789Y-127989711D01*
X143371786Y-127989707D01*
X143260292Y-127878213D01*
X143260288Y-127878210D01*
X143129185Y-127790609D01*
X143129172Y-127790602D01*
X142983501Y-127730264D01*
X142983489Y-127730261D01*
X142828845Y-127699500D01*
X142828842Y-127699500D01*
X142671158Y-127699500D01*
X142671155Y-127699500D01*
X142516510Y-127730261D01*
X142516498Y-127730264D01*
X142370827Y-127790602D01*
X142370814Y-127790609D01*
X142234646Y-127881595D01*
X142233180Y-127879401D01*
X142179328Y-127902200D01*
X142110474Y-127890329D01*
X142096224Y-127882119D01*
X142061118Y-127858662D01*
X141915443Y-127798322D01*
X141915431Y-127798319D01*
X141760787Y-127767558D01*
X141760784Y-127767558D01*
X141603100Y-127767558D01*
X141603097Y-127767558D01*
X141448452Y-127798319D01*
X141448440Y-127798322D01*
X141302769Y-127858660D01*
X141302756Y-127858667D01*
X141171653Y-127946268D01*
X141171649Y-127946271D01*
X141060155Y-128057765D01*
X141060152Y-128057769D01*
X140972551Y-128188872D01*
X140972544Y-128188885D01*
X140912206Y-128334556D01*
X140912203Y-128334568D01*
X140881442Y-128489211D01*
X140881442Y-128646904D01*
X140912203Y-128801547D01*
X140912206Y-128801559D01*
X140972544Y-128947230D01*
X140972551Y-128947243D01*
X141060544Y-129078932D01*
X141081422Y-129145609D01*
X141081442Y-129147823D01*
X141081442Y-130000638D01*
X141061757Y-130067677D01*
X141026334Y-130103740D01*
X140989707Y-130128213D01*
X140878213Y-130239707D01*
X140878210Y-130239711D01*
X140790609Y-130370814D01*
X140790602Y-130370827D01*
X140730264Y-130516498D01*
X140730261Y-130516510D01*
X140699500Y-130671153D01*
X130304564Y-130671153D01*
X130314646Y-130663828D01*
X130453828Y-130524646D01*
X130569524Y-130365405D01*
X130658884Y-130190025D01*
X130719709Y-130002826D01*
X130720056Y-130000638D01*
X130750500Y-129808422D01*
X130750500Y-129611577D01*
X130719709Y-129417173D01*
X130658882Y-129229970D01*
X130593351Y-129101359D01*
X130569524Y-129054595D01*
X130453828Y-128895354D01*
X130314646Y-128756172D01*
X130235025Y-128698324D01*
X130155403Y-128640474D01*
X129978787Y-128550485D01*
X129927990Y-128502511D01*
X129911195Y-128434690D01*
X129933732Y-128368555D01*
X129978787Y-128329515D01*
X130155403Y-128239525D01*
X130155402Y-128239525D01*
X130155405Y-128239524D01*
X130314646Y-128123828D01*
X130453828Y-127984646D01*
X130569524Y-127825405D01*
X130658884Y-127650025D01*
X130719709Y-127462826D01*
X130727764Y-127411971D01*
X130750500Y-127268422D01*
X130750500Y-127147682D01*
X153450000Y-127147682D01*
X153450000Y-127352317D01*
X153482009Y-127554417D01*
X153545244Y-127749031D01*
X153638141Y-127931350D01*
X153638147Y-127931359D01*
X153670523Y-127975921D01*
X153670524Y-127975922D01*
X154350000Y-127296446D01*
X154350000Y-127302661D01*
X154377259Y-127404394D01*
X154429920Y-127495606D01*
X154504394Y-127570080D01*
X154595606Y-127622741D01*
X154697339Y-127650000D01*
X154703553Y-127650000D01*
X154024076Y-128329474D01*
X154068650Y-128361859D01*
X154250968Y-128454755D01*
X154445582Y-128517990D01*
X154647683Y-128550000D01*
X154852317Y-128550000D01*
X155054417Y-128517990D01*
X155249031Y-128454755D01*
X155431349Y-128361859D01*
X155475921Y-128329474D01*
X154796447Y-127650000D01*
X154802661Y-127650000D01*
X154904394Y-127622741D01*
X154995606Y-127570080D01*
X155070080Y-127495606D01*
X155122741Y-127404394D01*
X155150000Y-127302661D01*
X155150000Y-127296447D01*
X155829474Y-127975921D01*
X155861859Y-127931349D01*
X155954755Y-127749031D01*
X156017990Y-127554417D01*
X156050000Y-127352317D01*
X156050000Y-127147682D01*
X156017990Y-126945582D01*
X155954755Y-126750968D01*
X155861859Y-126568650D01*
X155829474Y-126524077D01*
X155829474Y-126524076D01*
X155150000Y-127203551D01*
X155150000Y-127197339D01*
X155122741Y-127095606D01*
X155070080Y-127004394D01*
X154995606Y-126929920D01*
X154904394Y-126877259D01*
X154802661Y-126850000D01*
X154796446Y-126850000D01*
X155328799Y-126317648D01*
X166949500Y-126317648D01*
X166949500Y-126522351D01*
X166981522Y-126724534D01*
X167044781Y-126919223D01*
X167088179Y-127004394D01*
X167122413Y-127071583D01*
X167137715Y-127101613D01*
X167258028Y-127267213D01*
X167402786Y-127411971D01*
X167532520Y-127506226D01*
X167568390Y-127532287D01*
X167684607Y-127591503D01*
X167750776Y-127625218D01*
X167750778Y-127625218D01*
X167750781Y-127625220D01*
X167855137Y-127659127D01*
X167945465Y-127688477D01*
X167980822Y-127694077D01*
X168147648Y-127720500D01*
X168147649Y-127720500D01*
X168352351Y-127720500D01*
X168352352Y-127720500D01*
X168554534Y-127688477D01*
X168749219Y-127625220D01*
X168931610Y-127532287D01*
X169062856Y-127436932D01*
X169097213Y-127411971D01*
X169097215Y-127411968D01*
X169097219Y-127411966D01*
X169241966Y-127267219D01*
X169241968Y-127267215D01*
X169241971Y-127267213D01*
X169328814Y-127147682D01*
X169362287Y-127101610D01*
X169455220Y-126919219D01*
X169518477Y-126724534D01*
X169550500Y-126522352D01*
X169550500Y-126317648D01*
X169534427Y-126216171D01*
X169518477Y-126115465D01*
X169455218Y-125920776D01*
X169405804Y-125823797D01*
X169362287Y-125738390D01*
X169354556Y-125727749D01*
X169241971Y-125572786D01*
X169097213Y-125428028D01*
X168931613Y-125307715D01*
X168931612Y-125307714D01*
X168931610Y-125307713D01*
X168858350Y-125270385D01*
X168749223Y-125214781D01*
X168554534Y-125151522D01*
X168379995Y-125123878D01*
X168352352Y-125119500D01*
X168147648Y-125119500D01*
X168123329Y-125123351D01*
X167945465Y-125151522D01*
X167750776Y-125214781D01*
X167568386Y-125307715D01*
X167402786Y-125428028D01*
X167258028Y-125572786D01*
X167137715Y-125738386D01*
X167044781Y-125920776D01*
X166981522Y-126115465D01*
X166949500Y-126317648D01*
X155328799Y-126317648D01*
X155421352Y-126225095D01*
X155475922Y-126170524D01*
X155475921Y-126170523D01*
X155431359Y-126138147D01*
X155431350Y-126138141D01*
X155249031Y-126045244D01*
X155054417Y-125982009D01*
X154852317Y-125950000D01*
X154647683Y-125950000D01*
X154445582Y-125982009D01*
X154250968Y-126045244D01*
X154068644Y-126138143D01*
X154024077Y-126170523D01*
X154024077Y-126170524D01*
X154703554Y-126850000D01*
X154697339Y-126850000D01*
X154595606Y-126877259D01*
X154504394Y-126929920D01*
X154429920Y-127004394D01*
X154377259Y-127095606D01*
X154350000Y-127197339D01*
X154350000Y-127203553D01*
X153670524Y-126524077D01*
X153670523Y-126524077D01*
X153638143Y-126568644D01*
X153545244Y-126750968D01*
X153482009Y-126945582D01*
X153450000Y-127147682D01*
X130750500Y-127147682D01*
X130750500Y-127071577D01*
X130719709Y-126877173D01*
X130658882Y-126689970D01*
X130574355Y-126524077D01*
X130569524Y-126514595D01*
X130453828Y-126355354D01*
X130314646Y-126216172D01*
X130161377Y-126104815D01*
X130118714Y-126049487D01*
X130112735Y-125979873D01*
X130145341Y-125918078D01*
X130206180Y-125883721D01*
X130234264Y-125880499D01*
X130297872Y-125880499D01*
X130357483Y-125874091D01*
X130492331Y-125823796D01*
X130607546Y-125737546D01*
X130693796Y-125622331D01*
X130744091Y-125487483D01*
X130750500Y-125427873D01*
X130750499Y-123832128D01*
X130744091Y-123772517D01*
X130742651Y-123768657D01*
X130693797Y-123637671D01*
X130693793Y-123637664D01*
X130607547Y-123522455D01*
X130607544Y-123522452D01*
X130492335Y-123436206D01*
X130492328Y-123436202D01*
X130357482Y-123385908D01*
X130357483Y-123385908D01*
X130297883Y-123379501D01*
X130297881Y-123379500D01*
X130297873Y-123379500D01*
X130297864Y-123379500D01*
X128702129Y-123379500D01*
X128702123Y-123379501D01*
X128642516Y-123385908D01*
X128507671Y-123436202D01*
X128507664Y-123436206D01*
X128392455Y-123522452D01*
X128392452Y-123522455D01*
X128306206Y-123637664D01*
X128306202Y-123637671D01*
X128255908Y-123772517D01*
X128251492Y-123813600D01*
X128249501Y-123832123D01*
X128249500Y-123832135D01*
X128249500Y-125427870D01*
X128249501Y-125427876D01*
X128255908Y-125487483D01*
X128306202Y-125622328D01*
X128306206Y-125622335D01*
X128392452Y-125737544D01*
X128392455Y-125737547D01*
X128507664Y-125823793D01*
X128507671Y-125823797D01*
X128642517Y-125874091D01*
X128642516Y-125874091D01*
X128649444Y-125874835D01*
X128702127Y-125880500D01*
X128765733Y-125880499D01*
X128832770Y-125900183D01*
X128878526Y-125952986D01*
X128888470Y-126022144D01*
X128859446Y-126085700D01*
X128838619Y-126104816D01*
X128685354Y-126216171D01*
X128546174Y-126355351D01*
X128546174Y-126355352D01*
X128546172Y-126355354D01*
X128496485Y-126423741D01*
X128430476Y-126514594D01*
X128341117Y-126689970D01*
X128280290Y-126877173D01*
X128249500Y-127071577D01*
X128249500Y-127268422D01*
X128276189Y-127436932D01*
X128267234Y-127506226D01*
X128241397Y-127544011D01*
X122947229Y-132838181D01*
X122885906Y-132871666D01*
X122859548Y-132874500D01*
X120716115Y-132874500D01*
X120649076Y-132854815D01*
X120616393Y-132821428D01*
X120615151Y-132822331D01*
X120491971Y-132652786D01*
X120347213Y-132508028D01*
X120181613Y-132387715D01*
X120181612Y-132387714D01*
X120181610Y-132387713D01*
X120104419Y-132348382D01*
X119999223Y-132294781D01*
X119804534Y-132231522D01*
X119629995Y-132203878D01*
X119602352Y-132199500D01*
X119397648Y-132199500D01*
X119373329Y-132203351D01*
X119195465Y-132231522D01*
X119000776Y-132294781D01*
X118818386Y-132387715D01*
X118652786Y-132508028D01*
X118508028Y-132652786D01*
X118387715Y-132818386D01*
X118294781Y-133000776D01*
X118231522Y-133195465D01*
X118199500Y-133397648D01*
X115750500Y-133397648D01*
X115750500Y-128317682D01*
X122575000Y-128317682D01*
X122575000Y-128522317D01*
X122607009Y-128724417D01*
X122670244Y-128919031D01*
X122763141Y-129101350D01*
X122763147Y-129101359D01*
X122795523Y-129145921D01*
X122795524Y-129145922D01*
X123475000Y-128466446D01*
X123475000Y-128472661D01*
X123502259Y-128574394D01*
X123554920Y-128665606D01*
X123629394Y-128740080D01*
X123720606Y-128792741D01*
X123822339Y-128820000D01*
X123828553Y-128820000D01*
X123149076Y-129499474D01*
X123193650Y-129531859D01*
X123375968Y-129624755D01*
X123570582Y-129687990D01*
X123772683Y-129720000D01*
X123977317Y-129720000D01*
X124179417Y-129687990D01*
X124374031Y-129624755D01*
X124556349Y-129531859D01*
X124600921Y-129499474D01*
X123921447Y-128820000D01*
X123927661Y-128820000D01*
X124029394Y-128792741D01*
X124120606Y-128740080D01*
X124195080Y-128665606D01*
X124247741Y-128574394D01*
X124275000Y-128472661D01*
X124275000Y-128466448D01*
X124954474Y-129145922D01*
X124954474Y-129145921D01*
X124986859Y-129101349D01*
X125079755Y-128919031D01*
X125142990Y-128724417D01*
X125175000Y-128522317D01*
X125175000Y-128317682D01*
X125142990Y-128115582D01*
X125079755Y-127920968D01*
X124986859Y-127738650D01*
X124954474Y-127694077D01*
X124954474Y-127694076D01*
X124275000Y-128373551D01*
X124275000Y-128367339D01*
X124247741Y-128265606D01*
X124195080Y-128174394D01*
X124120606Y-128099920D01*
X124029394Y-128047259D01*
X123927661Y-128020000D01*
X123921446Y-128020000D01*
X124600922Y-127340524D01*
X124600921Y-127340523D01*
X124556359Y-127308147D01*
X124556350Y-127308141D01*
X124374031Y-127215244D01*
X124179417Y-127152009D01*
X123977317Y-127120000D01*
X123772683Y-127120000D01*
X123570582Y-127152009D01*
X123375968Y-127215244D01*
X123193644Y-127308143D01*
X123149077Y-127340523D01*
X123149077Y-127340524D01*
X123828554Y-128020000D01*
X123822339Y-128020000D01*
X123720606Y-128047259D01*
X123629394Y-128099920D01*
X123554920Y-128174394D01*
X123502259Y-128265606D01*
X123475000Y-128367339D01*
X123475000Y-128373553D01*
X122795524Y-127694077D01*
X122795523Y-127694077D01*
X122763143Y-127738644D01*
X122670244Y-127920968D01*
X122607009Y-128115582D01*
X122575000Y-128317682D01*
X115750500Y-128317682D01*
X115750500Y-123237648D01*
X118199500Y-123237648D01*
X118199500Y-123442351D01*
X118231522Y-123644534D01*
X118294781Y-123839223D01*
X118335542Y-123919219D01*
X118386208Y-124018657D01*
X118387715Y-124021613D01*
X118508028Y-124187213D01*
X118652786Y-124331971D01*
X118799137Y-124438299D01*
X118818390Y-124452287D01*
X118934607Y-124511503D01*
X119000776Y-124545218D01*
X119000778Y-124545218D01*
X119000781Y-124545220D01*
X119071340Y-124568146D01*
X119195465Y-124608477D01*
X119296557Y-124624488D01*
X119397648Y-124640500D01*
X119397649Y-124640500D01*
X119602351Y-124640500D01*
X119602352Y-124640500D01*
X119804534Y-124608477D01*
X119999219Y-124545220D01*
X120181610Y-124452287D01*
X120278990Y-124381537D01*
X120347213Y-124331971D01*
X120347215Y-124331968D01*
X120347219Y-124331966D01*
X120491966Y-124187219D01*
X120491968Y-124187215D01*
X120491971Y-124187213D01*
X120554164Y-124101610D01*
X120612287Y-124021610D01*
X120705220Y-123839219D01*
X120768477Y-123644534D01*
X120800500Y-123442352D01*
X120800500Y-123317648D01*
X122574500Y-123317648D01*
X122574500Y-123522351D01*
X122606522Y-123724534D01*
X122669781Y-123919223D01*
X122716184Y-124010292D01*
X122751337Y-124079284D01*
X122762715Y-124101613D01*
X122883028Y-124267213D01*
X123027786Y-124411971D01*
X123182749Y-124524556D01*
X123193390Y-124532287D01*
X123275033Y-124573886D01*
X123375776Y-124625218D01*
X123375778Y-124625218D01*
X123375781Y-124625220D01*
X123480137Y-124659127D01*
X123570465Y-124688477D01*
X123671557Y-124704488D01*
X123772648Y-124720500D01*
X123772649Y-124720500D01*
X123977351Y-124720500D01*
X123977352Y-124720500D01*
X124179534Y-124688477D01*
X124374219Y-124625220D01*
X124556610Y-124532287D01*
X124649590Y-124464732D01*
X124722213Y-124411971D01*
X124722215Y-124411968D01*
X124722219Y-124411966D01*
X124866966Y-124267219D01*
X124866968Y-124267215D01*
X124866971Y-124267213D01*
X124937319Y-124170386D01*
X124987287Y-124101610D01*
X125080220Y-123919219D01*
X125143477Y-123724534D01*
X125175500Y-123522352D01*
X125175500Y-123317648D01*
X125160166Y-123220833D01*
X125143477Y-123115465D01*
X125124484Y-123057012D01*
X125124483Y-123057010D01*
X125113115Y-123022022D01*
X137819500Y-123022022D01*
X137819500Y-124817757D01*
X137819501Y-124817763D01*
X137825908Y-124877370D01*
X137876202Y-125012215D01*
X137876206Y-125012222D01*
X137962452Y-125127431D01*
X137962455Y-125127434D01*
X138077664Y-125213680D01*
X138077671Y-125213684D01*
X138212517Y-125263978D01*
X138212516Y-125263978D01*
X138219444Y-125264722D01*
X138272127Y-125270387D01*
X140067872Y-125270386D01*
X140127483Y-125263978D01*
X140262331Y-125213683D01*
X140377546Y-125127433D01*
X140463796Y-125012218D01*
X140514091Y-124877370D01*
X140520500Y-124817760D01*
X140520499Y-124793866D01*
X140523330Y-124780850D01*
X140533940Y-124761412D01*
X140540179Y-124740162D01*
X140556803Y-124719530D01*
X140556808Y-124719523D01*
X140556811Y-124719521D01*
X140556818Y-124719513D01*
X141227037Y-124049295D01*
X141244075Y-124112880D01*
X141309901Y-124226894D01*
X141402993Y-124319986D01*
X141517007Y-124385812D01*
X141580590Y-124402849D01*
X140948282Y-125035156D01*
X140948282Y-125035157D01*
X141002449Y-125074511D01*
X141191782Y-125170982D01*
X141393870Y-125236644D01*
X141603754Y-125269887D01*
X141816246Y-125269887D01*
X142026127Y-125236644D01*
X142026130Y-125236644D01*
X142228217Y-125170982D01*
X142417554Y-125074509D01*
X142471716Y-125035157D01*
X142471717Y-125035157D01*
X141839408Y-124402849D01*
X141902993Y-124385812D01*
X142017007Y-124319986D01*
X142110099Y-124226894D01*
X142175925Y-124112880D01*
X142192962Y-124049295D01*
X142825270Y-124681604D01*
X142825270Y-124681603D01*
X142864622Y-124627442D01*
X142869232Y-124618394D01*
X142917205Y-124567596D01*
X142985025Y-124550799D01*
X143051161Y-124573334D01*
X143090204Y-124618391D01*
X143094949Y-124627704D01*
X143219890Y-124799673D01*
X143370213Y-124949996D01*
X143542179Y-125074935D01*
X143542181Y-125074936D01*
X143542184Y-125074938D01*
X143731588Y-125171444D01*
X143933757Y-125237133D01*
X144143713Y-125270387D01*
X144143714Y-125270387D01*
X144356286Y-125270387D01*
X144356287Y-125270387D01*
X144566243Y-125237133D01*
X144768412Y-125171444D01*
X144957816Y-125074938D01*
X145044138Y-125012222D01*
X145129786Y-124949996D01*
X145129788Y-124949993D01*
X145129792Y-124949991D01*
X145280104Y-124799679D01*
X145280106Y-124799675D01*
X145280109Y-124799673D01*
X145389086Y-124649676D01*
X145405051Y-124627703D01*
X145409514Y-124618941D01*
X145457488Y-124568146D01*
X145525308Y-124551350D01*
X145591444Y-124573886D01*
X145630486Y-124618943D01*
X145634951Y-124627707D01*
X145759890Y-124799673D01*
X145910213Y-124949996D01*
X146082179Y-125074935D01*
X146082181Y-125074936D01*
X146082184Y-125074938D01*
X146271588Y-125171444D01*
X146473757Y-125237133D01*
X146683713Y-125270387D01*
X146683714Y-125270387D01*
X146896286Y-125270387D01*
X146896287Y-125270387D01*
X147106243Y-125237133D01*
X147308412Y-125171444D01*
X147497816Y-125074938D01*
X147584138Y-125012222D01*
X147669786Y-124949996D01*
X147669788Y-124949993D01*
X147669792Y-124949991D01*
X147820104Y-124799679D01*
X147820106Y-124799675D01*
X147820109Y-124799673D01*
X147929086Y-124649676D01*
X147945051Y-124627703D01*
X148041557Y-124438299D01*
X148075061Y-124335184D01*
X148114497Y-124277511D01*
X148178856Y-124250312D01*
X148240443Y-124258943D01*
X148260409Y-124267213D01*
X148266503Y-124269737D01*
X148421148Y-124300498D01*
X148421153Y-124300499D01*
X148421156Y-124300500D01*
X148421158Y-124300500D01*
X148578844Y-124300500D01*
X148578845Y-124300499D01*
X148733497Y-124269737D01*
X148879179Y-124209394D01*
X149010289Y-124121789D01*
X149121789Y-124010289D01*
X149209394Y-123879179D01*
X149269737Y-123733497D01*
X149300500Y-123578842D01*
X149300500Y-123421158D01*
X149300500Y-123421155D01*
X149300499Y-123421153D01*
X149279910Y-123317648D01*
X149269737Y-123266503D01*
X149251049Y-123221386D01*
X149209397Y-123120827D01*
X149209390Y-123120814D01*
X149121398Y-122989125D01*
X149100520Y-122922447D01*
X149100500Y-122920234D01*
X149100500Y-121949652D01*
X149120185Y-121882613D01*
X149121398Y-121880761D01*
X149209390Y-121749072D01*
X149209390Y-121749071D01*
X149209394Y-121749066D01*
X149216736Y-121731342D01*
X149269735Y-121603388D01*
X149269737Y-121603384D01*
X149300500Y-121448729D01*
X149300500Y-121291045D01*
X149300500Y-121291042D01*
X149300499Y-121291040D01*
X149949500Y-121291040D01*
X149949500Y-121448733D01*
X149980261Y-121603376D01*
X149980264Y-121603388D01*
X150040602Y-121749059D01*
X150040609Y-121749072D01*
X150128602Y-121880761D01*
X150149480Y-121947438D01*
X150149500Y-121949652D01*
X150149500Y-122790121D01*
X150129815Y-122857160D01*
X150128602Y-122859012D01*
X150040609Y-122990701D01*
X150040602Y-122990714D01*
X149980264Y-123136385D01*
X149980261Y-123136397D01*
X149949500Y-123291040D01*
X149949500Y-123448733D01*
X149980261Y-123603376D01*
X149980264Y-123603388D01*
X150040602Y-123749059D01*
X150040609Y-123749072D01*
X150128210Y-123880175D01*
X150128213Y-123880179D01*
X150239707Y-123991673D01*
X150239711Y-123991676D01*
X150370814Y-124079277D01*
X150370827Y-124079284D01*
X150473452Y-124121792D01*
X150516503Y-124139624D01*
X150671153Y-124170386D01*
X150671156Y-124170387D01*
X150671158Y-124170387D01*
X150828844Y-124170387D01*
X150828845Y-124170386D01*
X150983497Y-124139624D01*
X151129179Y-124079281D01*
X151260289Y-123991676D01*
X151371789Y-123880176D01*
X151459394Y-123749066D01*
X151519737Y-123603384D01*
X151550500Y-123448729D01*
X151550500Y-123421153D01*
X152699500Y-123421153D01*
X152699500Y-123578846D01*
X152730261Y-123733489D01*
X152730264Y-123733501D01*
X152790602Y-123879172D01*
X152790609Y-123879185D01*
X152878210Y-124010288D01*
X152878213Y-124010292D01*
X152989707Y-124121786D01*
X152989715Y-124121792D01*
X153078532Y-124181138D01*
X153097323Y-124196559D01*
X153131284Y-124230520D01*
X153131286Y-124230521D01*
X153131290Y-124230524D01*
X153252492Y-124300499D01*
X153268216Y-124309577D01*
X153420943Y-124350500D01*
X153420945Y-124350500D01*
X153579055Y-124350500D01*
X153579057Y-124350500D01*
X153731784Y-124309577D01*
X153868716Y-124230520D01*
X153902676Y-124196559D01*
X153921467Y-124181138D01*
X153983600Y-124139622D01*
X154010289Y-124121789D01*
X154121789Y-124010289D01*
X154142966Y-123978594D01*
X154196577Y-123933789D01*
X154265902Y-123925080D01*
X154311164Y-123941945D01*
X154336251Y-123957418D01*
X154380657Y-123984809D01*
X154380660Y-123984810D01*
X154380666Y-123984814D01*
X154547203Y-124039999D01*
X154649991Y-124050500D01*
X155850008Y-124050499D01*
X155952797Y-124039999D01*
X156119334Y-123984814D01*
X156268656Y-123892712D01*
X156392712Y-123768656D01*
X156484814Y-123619334D01*
X156539999Y-123452797D01*
X156550500Y-123350009D01*
X156550499Y-122399983D01*
X166449500Y-122399983D01*
X166449500Y-123600001D01*
X166449501Y-123600018D01*
X166460000Y-123702796D01*
X166460001Y-123702799D01*
X166515185Y-123869331D01*
X166515187Y-123869336D01*
X166545955Y-123919219D01*
X166607288Y-124018656D01*
X166731344Y-124142712D01*
X166880666Y-124234814D01*
X167047203Y-124289999D01*
X167149991Y-124300500D01*
X168350008Y-124300499D01*
X168452797Y-124289999D01*
X168619334Y-124234814D01*
X168768656Y-124142712D01*
X168892712Y-124018656D01*
X168984814Y-123869334D01*
X169039999Y-123702797D01*
X169050500Y-123600009D01*
X169050499Y-122399992D01*
X169039999Y-122297203D01*
X168984814Y-122130666D01*
X168892712Y-121981344D01*
X168823488Y-121912120D01*
X168790003Y-121850797D01*
X168794987Y-121781105D01*
X168810852Y-121751552D01*
X168861858Y-121681349D01*
X168861863Y-121681341D01*
X168954755Y-121499031D01*
X169017990Y-121304417D01*
X169050000Y-121102317D01*
X169050000Y-120897682D01*
X169017990Y-120695582D01*
X168954755Y-120500968D01*
X168861859Y-120318650D01*
X168829474Y-120274077D01*
X168829474Y-120274076D01*
X168150000Y-120953551D01*
X168150000Y-120947339D01*
X168122741Y-120845606D01*
X168070080Y-120754394D01*
X167995606Y-120679920D01*
X167904394Y-120627259D01*
X167802661Y-120600000D01*
X167796446Y-120600000D01*
X168475922Y-119920524D01*
X168475921Y-119920523D01*
X168431359Y-119888147D01*
X168431350Y-119888141D01*
X168249031Y-119795244D01*
X168054417Y-119732009D01*
X167852317Y-119700000D01*
X167647683Y-119700000D01*
X167445582Y-119732009D01*
X167250968Y-119795244D01*
X167068644Y-119888143D01*
X167024077Y-119920523D01*
X167024077Y-119920524D01*
X167703554Y-120600000D01*
X167697339Y-120600000D01*
X167595606Y-120627259D01*
X167504394Y-120679920D01*
X167429920Y-120754394D01*
X167377259Y-120845606D01*
X167350000Y-120947339D01*
X167350000Y-120953553D01*
X166670524Y-120274077D01*
X166670523Y-120274077D01*
X166638143Y-120318644D01*
X166545244Y-120500968D01*
X166482009Y-120695582D01*
X166450000Y-120897682D01*
X166450000Y-121102317D01*
X166482009Y-121304417D01*
X166545244Y-121499031D01*
X166638142Y-121681352D01*
X166689147Y-121751555D01*
X166712627Y-121817361D01*
X166696802Y-121885415D01*
X166676511Y-121912121D01*
X166607287Y-121981345D01*
X166515187Y-122130663D01*
X166515185Y-122130668D01*
X166487349Y-122214670D01*
X166460001Y-122297203D01*
X166460001Y-122297204D01*
X166460000Y-122297204D01*
X166449500Y-122399983D01*
X156550499Y-122399983D01*
X156550499Y-122149992D01*
X156539999Y-122047203D01*
X156484814Y-121880666D01*
X156392712Y-121731344D01*
X156323488Y-121662120D01*
X156290003Y-121600797D01*
X156294987Y-121531105D01*
X156310852Y-121501552D01*
X156361858Y-121431349D01*
X156361863Y-121431341D01*
X156454755Y-121249031D01*
X156517990Y-121054417D01*
X156550000Y-120852317D01*
X156550000Y-120647682D01*
X156517990Y-120445582D01*
X156454755Y-120250968D01*
X156361857Y-120068646D01*
X156341532Y-120040671D01*
X156341530Y-120040669D01*
X156329475Y-120024077D01*
X156329474Y-120024076D01*
X155650000Y-120703551D01*
X155650000Y-120697339D01*
X155622741Y-120595606D01*
X155570080Y-120504394D01*
X155495606Y-120429920D01*
X155404394Y-120377259D01*
X155302661Y-120350000D01*
X155296446Y-120350000D01*
X155975922Y-119670524D01*
X155975921Y-119670523D01*
X155931359Y-119638147D01*
X155931350Y-119638141D01*
X155749031Y-119545244D01*
X155554417Y-119482009D01*
X155352317Y-119450000D01*
X155147683Y-119450000D01*
X154945582Y-119482009D01*
X154750965Y-119545245D01*
X154624083Y-119609895D01*
X154555414Y-119622791D01*
X154490674Y-119596514D01*
X154450417Y-119539407D01*
X154443789Y-119499410D01*
X154443789Y-119376396D01*
X154443788Y-119376394D01*
X154413027Y-119221751D01*
X154413026Y-119221744D01*
X154413024Y-119221739D01*
X154352686Y-119076068D01*
X154352679Y-119076055D01*
X154265078Y-118944952D01*
X154265075Y-118944948D01*
X154153581Y-118833454D01*
X154153577Y-118833451D01*
X154022474Y-118745850D01*
X154022461Y-118745843D01*
X153876790Y-118685505D01*
X153876778Y-118685502D01*
X153722134Y-118654741D01*
X153722131Y-118654741D01*
X153564447Y-118654741D01*
X153564444Y-118654741D01*
X153409799Y-118685502D01*
X153409787Y-118685505D01*
X153264116Y-118745843D01*
X153264103Y-118745850D01*
X153133000Y-118833451D01*
X153132996Y-118833454D01*
X153021502Y-118944948D01*
X153021499Y-118944952D01*
X152933898Y-119076055D01*
X152933891Y-119076068D01*
X152873553Y-119221739D01*
X152873550Y-119221751D01*
X152842789Y-119376394D01*
X152842789Y-119534087D01*
X152873550Y-119688730D01*
X152873552Y-119688738D01*
X152890061Y-119728594D01*
X152899500Y-119776047D01*
X152899500Y-122920234D01*
X152879815Y-122987273D01*
X152878602Y-122989125D01*
X152790609Y-123120814D01*
X152790602Y-123120827D01*
X152730264Y-123266498D01*
X152730261Y-123266510D01*
X152699500Y-123421153D01*
X151550500Y-123421153D01*
X151550500Y-123291045D01*
X151550500Y-123291042D01*
X151550499Y-123291040D01*
X151545495Y-123265885D01*
X151519737Y-123136390D01*
X151487655Y-123058936D01*
X151459397Y-122990714D01*
X151459390Y-122990701D01*
X151371398Y-122859012D01*
X151350520Y-122792334D01*
X151350500Y-122790121D01*
X151350500Y-121949652D01*
X151370185Y-121882613D01*
X151371398Y-121880761D01*
X151459390Y-121749072D01*
X151459390Y-121749071D01*
X151459394Y-121749066D01*
X151466736Y-121731342D01*
X151519735Y-121603388D01*
X151519737Y-121603384D01*
X151550500Y-121448729D01*
X151550500Y-121291045D01*
X151550500Y-121291042D01*
X151550499Y-121291040D01*
X151542143Y-121249031D01*
X151519737Y-121136390D01*
X151519735Y-121136385D01*
X151459397Y-120990714D01*
X151459390Y-120990701D01*
X151371789Y-120859598D01*
X151371786Y-120859594D01*
X151260292Y-120748100D01*
X151260288Y-120748097D01*
X151129185Y-120660496D01*
X151129172Y-120660489D01*
X150983501Y-120600151D01*
X150983489Y-120600148D01*
X150828845Y-120569387D01*
X150828842Y-120569387D01*
X150671158Y-120569387D01*
X150671155Y-120569387D01*
X150516510Y-120600148D01*
X150516498Y-120600151D01*
X150370827Y-120660489D01*
X150370814Y-120660496D01*
X150239711Y-120748097D01*
X150239707Y-120748100D01*
X150128213Y-120859594D01*
X150128210Y-120859598D01*
X150040609Y-120990701D01*
X150040602Y-120990714D01*
X149980264Y-121136385D01*
X149980261Y-121136397D01*
X149949500Y-121291040D01*
X149300499Y-121291040D01*
X149292143Y-121249031D01*
X149269737Y-121136390D01*
X149269735Y-121136385D01*
X149209397Y-120990714D01*
X149209390Y-120990701D01*
X149121789Y-120859598D01*
X149121786Y-120859594D01*
X149010292Y-120748100D01*
X149010288Y-120748097D01*
X148879185Y-120660496D01*
X148879172Y-120660489D01*
X148733501Y-120600151D01*
X148733489Y-120600148D01*
X148578845Y-120569387D01*
X148578842Y-120569387D01*
X148421158Y-120569387D01*
X148421155Y-120569387D01*
X148266510Y-120600148D01*
X148266498Y-120600151D01*
X148120827Y-120660489D01*
X148120814Y-120660496D01*
X147989711Y-120748097D01*
X147989707Y-120748100D01*
X147878213Y-120859594D01*
X147878210Y-120859598D01*
X147790609Y-120990701D01*
X147790602Y-120990714D01*
X147730264Y-121136385D01*
X147730261Y-121136397D01*
X147699500Y-121291040D01*
X147699500Y-121448733D01*
X147730261Y-121603376D01*
X147730264Y-121603388D01*
X147790602Y-121749059D01*
X147790609Y-121749072D01*
X147878602Y-121880761D01*
X147899480Y-121947438D01*
X147899500Y-121949652D01*
X147899500Y-122820129D01*
X147879815Y-122887168D01*
X147827011Y-122932923D01*
X147757853Y-122942867D01*
X147694297Y-122913842D01*
X147687819Y-122907810D01*
X147669786Y-122889777D01*
X147497820Y-122764838D01*
X147308414Y-122668331D01*
X147308413Y-122668330D01*
X147308412Y-122668330D01*
X147106243Y-122602641D01*
X147106241Y-122602640D01*
X147106240Y-122602640D01*
X146944957Y-122577095D01*
X146896287Y-122569387D01*
X146683713Y-122569387D01*
X146635042Y-122577095D01*
X146473760Y-122602640D01*
X146271585Y-122668331D01*
X146082179Y-122764838D01*
X145910213Y-122889777D01*
X145759890Y-123040100D01*
X145634949Y-123212069D01*
X145630484Y-123220833D01*
X145582509Y-123271629D01*
X145514688Y-123288423D01*
X145448553Y-123265885D01*
X145409516Y-123220833D01*
X145405050Y-123212069D01*
X145280109Y-123040100D01*
X145129786Y-122889777D01*
X144957820Y-122764838D01*
X144768414Y-122668331D01*
X144768413Y-122668330D01*
X144768412Y-122668330D01*
X144566243Y-122602641D01*
X144566241Y-122602640D01*
X144566240Y-122602640D01*
X144404957Y-122577095D01*
X144356287Y-122569387D01*
X144143713Y-122569387D01*
X144095042Y-122577095D01*
X143933760Y-122602640D01*
X143731585Y-122668331D01*
X143542179Y-122764838D01*
X143370213Y-122889777D01*
X143219890Y-123040100D01*
X143094949Y-123212069D01*
X143090202Y-123221386D01*
X143042227Y-123272180D01*
X142974405Y-123288974D01*
X142908271Y-123266435D01*
X142869234Y-123221382D01*
X142864626Y-123212339D01*
X142825270Y-123158169D01*
X142825269Y-123158169D01*
X142192962Y-123790477D01*
X142175925Y-123726894D01*
X142110099Y-123612880D01*
X142017007Y-123519788D01*
X141902993Y-123453962D01*
X141839409Y-123436924D01*
X142471716Y-122804615D01*
X142417550Y-122765262D01*
X142228217Y-122668791D01*
X142026129Y-122603129D01*
X141816246Y-122569887D01*
X141603754Y-122569887D01*
X141393872Y-122603129D01*
X141393869Y-122603129D01*
X141191782Y-122668791D01*
X141002439Y-122765267D01*
X140948282Y-122804614D01*
X140948282Y-122804615D01*
X141580591Y-123436924D01*
X141517007Y-123453962D01*
X141402993Y-123519788D01*
X141309901Y-123612880D01*
X141244075Y-123726894D01*
X141227037Y-123790478D01*
X140556818Y-123120259D01*
X140523333Y-123058936D01*
X140523330Y-123058923D01*
X140520499Y-123045902D01*
X140520499Y-123022015D01*
X140514091Y-122962404D01*
X140475747Y-122859598D01*
X140463798Y-122827560D01*
X140463793Y-122827551D01*
X140377547Y-122712342D01*
X140377544Y-122712339D01*
X140262335Y-122626093D01*
X140262328Y-122626089D01*
X140127482Y-122575795D01*
X140127483Y-122575795D01*
X140067883Y-122569388D01*
X140067881Y-122569387D01*
X140067873Y-122569387D01*
X140067864Y-122569387D01*
X138272129Y-122569387D01*
X138272123Y-122569388D01*
X138212516Y-122575795D01*
X138077671Y-122626089D01*
X138077664Y-122626093D01*
X137962455Y-122712339D01*
X137962452Y-122712342D01*
X137876206Y-122827551D01*
X137876202Y-122827558D01*
X137825908Y-122962404D01*
X137819501Y-123022003D01*
X137819500Y-123022022D01*
X125113115Y-123022022D01*
X125080220Y-122920781D01*
X124987287Y-122738390D01*
X124968362Y-122712342D01*
X124866971Y-122572786D01*
X124722213Y-122428028D01*
X124556613Y-122307715D01*
X124556612Y-122307714D01*
X124556610Y-122307713D01*
X124499653Y-122278691D01*
X124374223Y-122214781D01*
X124179534Y-122151522D01*
X124004995Y-122123878D01*
X123977352Y-122119500D01*
X123772648Y-122119500D01*
X123748329Y-122123351D01*
X123570465Y-122151522D01*
X123375776Y-122214781D01*
X123193386Y-122307715D01*
X123027786Y-122428028D01*
X122883028Y-122572786D01*
X122762715Y-122738386D01*
X122669781Y-122920776D01*
X122606522Y-123115465D01*
X122574500Y-123317648D01*
X120800500Y-123317648D01*
X120800500Y-123237648D01*
X120768477Y-123035466D01*
X120705220Y-122840781D01*
X120705218Y-122840778D01*
X120705218Y-122840776D01*
X120653047Y-122738386D01*
X120612287Y-122658390D01*
X120572138Y-122603129D01*
X120491971Y-122492786D01*
X120347213Y-122348028D01*
X120181613Y-122227715D01*
X120181612Y-122227714D01*
X120181610Y-122227713D01*
X120124653Y-122198691D01*
X119999223Y-122134781D01*
X119804534Y-122071522D01*
X119629995Y-122043878D01*
X119602352Y-122039500D01*
X119397648Y-122039500D01*
X119373329Y-122043351D01*
X119195465Y-122071522D01*
X119000776Y-122134781D01*
X118818386Y-122227715D01*
X118652786Y-122348028D01*
X118508028Y-122492786D01*
X118387715Y-122658386D01*
X118294781Y-122840776D01*
X118231522Y-123035465D01*
X118199500Y-123237648D01*
X115750500Y-123237648D01*
X115750500Y-116352135D01*
X117949500Y-116352135D01*
X117949500Y-118147870D01*
X117949501Y-118147876D01*
X117955908Y-118207483D01*
X118006202Y-118342328D01*
X118006206Y-118342335D01*
X118092452Y-118457544D01*
X118092455Y-118457547D01*
X118207664Y-118543793D01*
X118207671Y-118543797D01*
X118342517Y-118594091D01*
X118342516Y-118594091D01*
X118349444Y-118594835D01*
X118402127Y-118600500D01*
X120197872Y-118600499D01*
X120257483Y-118594091D01*
X120392331Y-118543796D01*
X120507546Y-118457546D01*
X120593796Y-118342331D01*
X120642810Y-118210916D01*
X120684681Y-118154984D01*
X120750145Y-118130566D01*
X120818418Y-118145417D01*
X120846673Y-118166569D01*
X120960213Y-118280109D01*
X121132179Y-118405048D01*
X121132181Y-118405049D01*
X121132184Y-118405051D01*
X121321588Y-118501557D01*
X121523757Y-118567246D01*
X121733713Y-118600500D01*
X121733714Y-118600500D01*
X121946286Y-118600500D01*
X121946287Y-118600500D01*
X122156243Y-118567246D01*
X122358412Y-118501557D01*
X122547816Y-118405051D01*
X122634138Y-118342335D01*
X122719786Y-118280109D01*
X122719788Y-118280106D01*
X122719792Y-118280104D01*
X122870104Y-118129792D01*
X122870106Y-118129788D01*
X122870109Y-118129786D01*
X122995048Y-117957820D01*
X122995047Y-117957820D01*
X122995051Y-117957816D01*
X122999514Y-117949054D01*
X123047488Y-117898259D01*
X123115308Y-117881463D01*
X123181444Y-117903999D01*
X123220486Y-117949056D01*
X123224951Y-117957820D01*
X123349890Y-118129786D01*
X123500213Y-118280109D01*
X123672179Y-118405048D01*
X123672181Y-118405049D01*
X123672184Y-118405051D01*
X123861588Y-118501557D01*
X124063757Y-118567246D01*
X124273713Y-118600500D01*
X124273714Y-118600500D01*
X124486286Y-118600500D01*
X124486287Y-118600500D01*
X124696243Y-118567246D01*
X124898412Y-118501557D01*
X125087816Y-118405051D01*
X125174138Y-118342335D01*
X125259786Y-118280109D01*
X125259788Y-118280106D01*
X125259792Y-118280104D01*
X125410104Y-118129792D01*
X125410106Y-118129788D01*
X125410109Y-118129786D01*
X125535048Y-117957820D01*
X125535047Y-117957820D01*
X125535051Y-117957816D01*
X125539514Y-117949054D01*
X125587488Y-117898259D01*
X125655308Y-117881463D01*
X125721444Y-117903999D01*
X125760486Y-117949056D01*
X125764951Y-117957820D01*
X125889890Y-118129786D01*
X126040213Y-118280109D01*
X126212179Y-118405048D01*
X126212181Y-118405049D01*
X126212184Y-118405051D01*
X126401588Y-118501557D01*
X126603757Y-118567246D01*
X126813713Y-118600500D01*
X126813714Y-118600500D01*
X127026286Y-118600500D01*
X127026287Y-118600500D01*
X127236243Y-118567246D01*
X127438412Y-118501557D01*
X127627816Y-118405051D01*
X127714138Y-118342335D01*
X127799786Y-118280109D01*
X127799788Y-118280106D01*
X127799792Y-118280104D01*
X127950104Y-118129792D01*
X127950106Y-118129788D01*
X127950109Y-118129786D01*
X128075048Y-117957820D01*
X128075047Y-117957820D01*
X128075051Y-117957816D01*
X128079514Y-117949054D01*
X128127488Y-117898259D01*
X128195308Y-117881463D01*
X128261444Y-117903999D01*
X128300486Y-117949056D01*
X128304951Y-117957820D01*
X128429890Y-118129786D01*
X128580213Y-118280109D01*
X128752179Y-118405048D01*
X128752181Y-118405049D01*
X128752184Y-118405051D01*
X128941588Y-118501557D01*
X129143757Y-118567246D01*
X129353713Y-118600500D01*
X129353714Y-118600500D01*
X129566286Y-118600500D01*
X129566287Y-118600500D01*
X129776243Y-118567246D01*
X129978412Y-118501557D01*
X130167816Y-118405051D01*
X130254138Y-118342335D01*
X130339786Y-118280109D01*
X130339788Y-118280106D01*
X130339792Y-118280104D01*
X130490104Y-118129792D01*
X130490106Y-118129788D01*
X130490109Y-118129786D01*
X130615048Y-117957820D01*
X130615047Y-117957820D01*
X130615051Y-117957816D01*
X130619514Y-117949054D01*
X130667488Y-117898259D01*
X130735308Y-117881463D01*
X130801444Y-117903999D01*
X130840486Y-117949056D01*
X130844951Y-117957820D01*
X130969890Y-118129786D01*
X131120213Y-118280109D01*
X131292179Y-118405048D01*
X131292181Y-118405049D01*
X131292184Y-118405051D01*
X131481588Y-118501557D01*
X131683757Y-118567246D01*
X131893713Y-118600500D01*
X131893714Y-118600500D01*
X132106286Y-118600500D01*
X132106287Y-118600500D01*
X132316243Y-118567246D01*
X132518412Y-118501557D01*
X132707816Y-118405051D01*
X132794138Y-118342335D01*
X132879786Y-118280109D01*
X132879788Y-118280106D01*
X132879792Y-118280104D01*
X133030104Y-118129792D01*
X133030106Y-118129788D01*
X133030109Y-118129786D01*
X133155048Y-117957820D01*
X133155047Y-117957820D01*
X133155051Y-117957816D01*
X133159514Y-117949054D01*
X133207488Y-117898259D01*
X133275308Y-117881463D01*
X133341444Y-117903999D01*
X133380486Y-117949056D01*
X133384951Y-117957820D01*
X133509890Y-118129786D01*
X133660213Y-118280109D01*
X133832179Y-118405048D01*
X133832181Y-118405049D01*
X133832184Y-118405051D01*
X134021588Y-118501557D01*
X134223757Y-118567246D01*
X134433713Y-118600500D01*
X134433714Y-118600500D01*
X134646286Y-118600500D01*
X134646287Y-118600500D01*
X134856243Y-118567246D01*
X135058412Y-118501557D01*
X135247816Y-118405051D01*
X135334138Y-118342335D01*
X135419786Y-118280109D01*
X135419788Y-118280106D01*
X135419792Y-118280104D01*
X135570104Y-118129792D01*
X135570106Y-118129788D01*
X135570109Y-118129786D01*
X135695048Y-117957820D01*
X135695047Y-117957820D01*
X135695051Y-117957816D01*
X135699514Y-117949054D01*
X135747488Y-117898259D01*
X135815308Y-117881463D01*
X135881444Y-117903999D01*
X135920486Y-117949056D01*
X135924951Y-117957820D01*
X136049890Y-118129786D01*
X136200213Y-118280109D01*
X136372179Y-118405048D01*
X136372181Y-118405049D01*
X136372184Y-118405051D01*
X136561588Y-118501557D01*
X136763757Y-118567246D01*
X136973713Y-118600500D01*
X136973714Y-118600500D01*
X137186286Y-118600500D01*
X137186287Y-118600500D01*
X137396243Y-118567246D01*
X137598412Y-118501557D01*
X137787816Y-118405051D01*
X137874138Y-118342335D01*
X137959786Y-118280109D01*
X137959788Y-118280106D01*
X137959792Y-118280104D01*
X138110104Y-118129792D01*
X138110106Y-118129788D01*
X138110109Y-118129786D01*
X138235048Y-117957820D01*
X138235047Y-117957820D01*
X138235051Y-117957816D01*
X138239514Y-117949054D01*
X138287488Y-117898259D01*
X138355308Y-117881463D01*
X138421444Y-117903999D01*
X138460486Y-117949056D01*
X138464951Y-117957820D01*
X138589890Y-118129786D01*
X138740213Y-118280109D01*
X138912179Y-118405048D01*
X138912181Y-118405049D01*
X138912184Y-118405051D01*
X139101588Y-118501557D01*
X139303757Y-118567246D01*
X139513713Y-118600500D01*
X139513714Y-118600500D01*
X139726286Y-118600500D01*
X139726287Y-118600500D01*
X139936243Y-118567246D01*
X140138412Y-118501557D01*
X140327816Y-118405051D01*
X140414138Y-118342335D01*
X140499786Y-118280109D01*
X140499788Y-118280106D01*
X140499792Y-118280104D01*
X140650104Y-118129792D01*
X140650106Y-118129788D01*
X140650109Y-118129786D01*
X140775048Y-117957820D01*
X140775047Y-117957820D01*
X140775051Y-117957816D01*
X140779514Y-117949054D01*
X140827488Y-117898259D01*
X140895308Y-117881463D01*
X140961444Y-117903999D01*
X141000486Y-117949056D01*
X141004951Y-117957820D01*
X141129890Y-118129786D01*
X141280213Y-118280109D01*
X141452179Y-118405048D01*
X141452181Y-118405049D01*
X141452184Y-118405051D01*
X141641588Y-118501557D01*
X141843757Y-118567246D01*
X142053713Y-118600500D01*
X142053714Y-118600500D01*
X142266286Y-118600500D01*
X142266287Y-118600500D01*
X142476243Y-118567246D01*
X142678412Y-118501557D01*
X142867816Y-118405051D01*
X142954138Y-118342335D01*
X143039786Y-118280109D01*
X143039788Y-118280106D01*
X143039792Y-118280104D01*
X143190104Y-118129792D01*
X143190106Y-118129788D01*
X143190109Y-118129786D01*
X143315048Y-117957820D01*
X143315047Y-117957820D01*
X143315051Y-117957816D01*
X143319514Y-117949054D01*
X143367488Y-117898259D01*
X143435308Y-117881463D01*
X143501444Y-117903999D01*
X143540486Y-117949056D01*
X143544951Y-117957820D01*
X143669890Y-118129786D01*
X143820213Y-118280109D01*
X143992179Y-118405048D01*
X143992181Y-118405049D01*
X143992184Y-118405051D01*
X144181588Y-118501557D01*
X144383757Y-118567246D01*
X144593713Y-118600500D01*
X144593714Y-118600500D01*
X144806286Y-118600500D01*
X144806287Y-118600500D01*
X145016243Y-118567246D01*
X145218412Y-118501557D01*
X145407816Y-118405051D01*
X145494138Y-118342335D01*
X145579786Y-118280109D01*
X145579788Y-118280106D01*
X145579792Y-118280104D01*
X145730104Y-118129792D01*
X145730106Y-118129788D01*
X145730109Y-118129786D01*
X145855048Y-117957820D01*
X145855047Y-117957820D01*
X145855051Y-117957816D01*
X145859514Y-117949054D01*
X145907488Y-117898259D01*
X145975308Y-117881463D01*
X146041444Y-117903999D01*
X146080486Y-117949056D01*
X146084951Y-117957820D01*
X146209890Y-118129786D01*
X146360213Y-118280109D01*
X146532179Y-118405048D01*
X146532181Y-118405049D01*
X146532184Y-118405051D01*
X146721588Y-118501557D01*
X146923757Y-118567246D01*
X147133713Y-118600500D01*
X147133714Y-118600500D01*
X147346286Y-118600500D01*
X147346287Y-118600500D01*
X147556243Y-118567246D01*
X147758412Y-118501557D01*
X147947816Y-118405051D01*
X148034138Y-118342335D01*
X148119786Y-118280109D01*
X148119788Y-118280106D01*
X148119792Y-118280104D01*
X148270104Y-118129792D01*
X148270106Y-118129788D01*
X148270109Y-118129786D01*
X148395048Y-117957820D01*
X148395047Y-117957820D01*
X148395051Y-117957816D01*
X148399514Y-117949054D01*
X148447488Y-117898259D01*
X148515308Y-117881463D01*
X148581444Y-117903999D01*
X148620486Y-117949056D01*
X148624951Y-117957820D01*
X148749890Y-118129786D01*
X148900213Y-118280109D01*
X149072179Y-118405048D01*
X149072181Y-118405049D01*
X149072184Y-118405051D01*
X149261588Y-118501557D01*
X149463757Y-118567246D01*
X149673713Y-118600500D01*
X149673714Y-118600500D01*
X149886286Y-118600500D01*
X149886287Y-118600500D01*
X150096243Y-118567246D01*
X150298412Y-118501557D01*
X150487816Y-118405051D01*
X150574138Y-118342335D01*
X150659786Y-118280109D01*
X150659788Y-118280106D01*
X150659792Y-118280104D01*
X150810104Y-118129792D01*
X150810106Y-118129788D01*
X150810109Y-118129786D01*
X150935048Y-117957820D01*
X150935047Y-117957820D01*
X150935051Y-117957816D01*
X150939514Y-117949054D01*
X150987488Y-117898259D01*
X151055308Y-117881463D01*
X151121444Y-117903999D01*
X151160486Y-117949056D01*
X151164951Y-117957820D01*
X151289890Y-118129786D01*
X151440213Y-118280109D01*
X151612179Y-118405048D01*
X151612181Y-118405049D01*
X151612184Y-118405051D01*
X151801588Y-118501557D01*
X152003757Y-118567246D01*
X152213713Y-118600500D01*
X152213714Y-118600500D01*
X152426286Y-118600500D01*
X152426287Y-118600500D01*
X152636243Y-118567246D01*
X152838412Y-118501557D01*
X153027816Y-118405051D01*
X153114138Y-118342335D01*
X153199786Y-118280109D01*
X153199788Y-118280106D01*
X153199792Y-118280104D01*
X153350104Y-118129792D01*
X153350106Y-118129788D01*
X153350109Y-118129786D01*
X153475048Y-117957820D01*
X153475047Y-117957820D01*
X153475051Y-117957816D01*
X153571557Y-117768412D01*
X153637246Y-117566243D01*
X153670500Y-117356287D01*
X153670500Y-117143713D01*
X153637246Y-116933757D01*
X153625513Y-116897648D01*
X154699500Y-116897648D01*
X154699500Y-117102351D01*
X154731522Y-117304534D01*
X154794781Y-117499223D01*
X154828928Y-117566239D01*
X154887585Y-117681359D01*
X154887715Y-117681613D01*
X155008028Y-117847213D01*
X155152786Y-117991971D01*
X155273226Y-118079474D01*
X155318390Y-118112287D01*
X155424924Y-118166569D01*
X155500776Y-118205218D01*
X155500778Y-118205218D01*
X155500781Y-118205220D01*
X155605137Y-118239127D01*
X155695465Y-118268477D01*
X155768875Y-118280104D01*
X155897648Y-118300500D01*
X155897649Y-118300500D01*
X156102351Y-118300500D01*
X156102352Y-118300500D01*
X156304534Y-118268477D01*
X156499219Y-118205220D01*
X156681610Y-118112287D01*
X156774590Y-118044732D01*
X156847213Y-117991971D01*
X156847215Y-117991968D01*
X156847219Y-117991966D01*
X156991966Y-117847219D01*
X156991968Y-117847215D01*
X156991971Y-117847213D01*
X157049222Y-117768412D01*
X157112287Y-117681610D01*
X157205220Y-117499219D01*
X157268477Y-117304534D01*
X157300500Y-117102352D01*
X157300500Y-116897682D01*
X159700000Y-116897682D01*
X159700000Y-117102317D01*
X159732009Y-117304417D01*
X159795244Y-117499031D01*
X159888141Y-117681350D01*
X159888147Y-117681359D01*
X159920523Y-117725921D01*
X159920524Y-117725922D01*
X160600000Y-117046446D01*
X160600000Y-117052661D01*
X160627259Y-117154394D01*
X160679920Y-117245606D01*
X160754394Y-117320080D01*
X160845606Y-117372741D01*
X160947339Y-117400000D01*
X160953553Y-117400000D01*
X160274076Y-118079474D01*
X160318650Y-118111859D01*
X160500968Y-118204755D01*
X160695582Y-118267990D01*
X160897683Y-118300000D01*
X161102317Y-118300000D01*
X161304417Y-118267990D01*
X161499031Y-118204755D01*
X161681349Y-118111859D01*
X161725921Y-118079474D01*
X161046447Y-117400000D01*
X161052661Y-117400000D01*
X161154394Y-117372741D01*
X161245606Y-117320080D01*
X161320080Y-117245606D01*
X161372741Y-117154394D01*
X161400000Y-117052661D01*
X161400000Y-117046447D01*
X162079474Y-117725921D01*
X162111859Y-117681349D01*
X162204755Y-117499031D01*
X162267990Y-117304417D01*
X162300000Y-117102317D01*
X162300000Y-116897682D01*
X162267990Y-116695582D01*
X162204755Y-116500968D01*
X162111859Y-116318650D01*
X162079474Y-116274077D01*
X162079474Y-116274076D01*
X161400000Y-116953551D01*
X161400000Y-116947339D01*
X161372741Y-116845606D01*
X161320080Y-116754394D01*
X161245606Y-116679920D01*
X161154394Y-116627259D01*
X161052661Y-116600000D01*
X161046446Y-116600000D01*
X161725922Y-115920524D01*
X161725921Y-115920523D01*
X161681359Y-115888147D01*
X161681350Y-115888141D01*
X161499031Y-115795244D01*
X161304417Y-115732009D01*
X161102317Y-115700000D01*
X160897683Y-115700000D01*
X160695582Y-115732009D01*
X160500968Y-115795244D01*
X160318644Y-115888143D01*
X160274077Y-115920523D01*
X160274077Y-115920524D01*
X160953554Y-116600000D01*
X160947339Y-116600000D01*
X160845606Y-116627259D01*
X160754394Y-116679920D01*
X160679920Y-116754394D01*
X160627259Y-116845606D01*
X160600000Y-116947339D01*
X160600000Y-116953553D01*
X159920524Y-116274077D01*
X159920523Y-116274077D01*
X159888143Y-116318644D01*
X159795244Y-116500968D01*
X159732009Y-116695582D01*
X159700000Y-116897682D01*
X157300500Y-116897682D01*
X157300500Y-116897648D01*
X157292257Y-116845606D01*
X157268477Y-116695465D01*
X157236158Y-116595998D01*
X157205220Y-116500781D01*
X157205218Y-116500778D01*
X157205218Y-116500776D01*
X157138692Y-116370213D01*
X157112287Y-116318390D01*
X157080092Y-116274077D01*
X156991971Y-116152786D01*
X156847213Y-116008028D01*
X156681613Y-115887715D01*
X156681612Y-115887714D01*
X156681610Y-115887713D01*
X156624653Y-115858691D01*
X156499223Y-115794781D01*
X156304534Y-115731522D01*
X156129995Y-115703878D01*
X156102352Y-115699500D01*
X155897648Y-115699500D01*
X155873329Y-115703351D01*
X155695465Y-115731522D01*
X155500776Y-115794781D01*
X155318386Y-115887715D01*
X155152786Y-116008028D01*
X155008028Y-116152786D01*
X154887715Y-116318386D01*
X154794781Y-116500776D01*
X154731522Y-116695465D01*
X154699500Y-116897648D01*
X153625513Y-116897648D01*
X153571557Y-116731588D01*
X153475051Y-116542184D01*
X153475049Y-116542181D01*
X153475048Y-116542179D01*
X153350109Y-116370213D01*
X153199786Y-116219890D01*
X153027820Y-116094951D01*
X152838414Y-115998444D01*
X152838413Y-115998443D01*
X152838412Y-115998443D01*
X152636243Y-115932754D01*
X152636241Y-115932753D01*
X152636240Y-115932753D01*
X152474957Y-115907208D01*
X152426287Y-115899500D01*
X152213713Y-115899500D01*
X152165042Y-115907208D01*
X152003760Y-115932753D01*
X151801585Y-115998444D01*
X151612179Y-116094951D01*
X151440213Y-116219890D01*
X151289890Y-116370213D01*
X151164949Y-116542182D01*
X151160484Y-116550946D01*
X151112509Y-116601742D01*
X151044688Y-116618536D01*
X150978553Y-116595998D01*
X150939516Y-116550946D01*
X150935050Y-116542182D01*
X150810109Y-116370213D01*
X150659786Y-116219890D01*
X150487820Y-116094951D01*
X150298414Y-115998444D01*
X150298413Y-115998443D01*
X150298412Y-115998443D01*
X150096243Y-115932754D01*
X150096241Y-115932753D01*
X150096240Y-115932753D01*
X149934957Y-115907208D01*
X149886287Y-115899500D01*
X149673713Y-115899500D01*
X149625042Y-115907208D01*
X149463760Y-115932753D01*
X149261585Y-115998444D01*
X149072179Y-116094951D01*
X148900213Y-116219890D01*
X148749890Y-116370213D01*
X148624949Y-116542182D01*
X148620484Y-116550946D01*
X148572509Y-116601742D01*
X148504688Y-116618536D01*
X148438553Y-116595998D01*
X148399516Y-116550946D01*
X148395050Y-116542182D01*
X148270109Y-116370213D01*
X148119786Y-116219890D01*
X147947820Y-116094951D01*
X147758414Y-115998444D01*
X147758413Y-115998443D01*
X147758412Y-115998443D01*
X147556243Y-115932754D01*
X147556241Y-115932753D01*
X147556240Y-115932753D01*
X147394957Y-115907208D01*
X147346287Y-115899500D01*
X147133713Y-115899500D01*
X147085042Y-115907208D01*
X146923760Y-115932753D01*
X146721585Y-115998444D01*
X146532179Y-116094951D01*
X146360213Y-116219890D01*
X146209890Y-116370213D01*
X146084949Y-116542182D01*
X146080484Y-116550946D01*
X146032509Y-116601742D01*
X145964688Y-116618536D01*
X145898553Y-116595998D01*
X145859516Y-116550946D01*
X145855050Y-116542182D01*
X145730109Y-116370213D01*
X145579786Y-116219890D01*
X145407820Y-116094951D01*
X145218414Y-115998444D01*
X145218413Y-115998443D01*
X145218412Y-115998443D01*
X145016243Y-115932754D01*
X145016241Y-115932753D01*
X145016240Y-115932753D01*
X144854957Y-115907208D01*
X144806287Y-115899500D01*
X144593713Y-115899500D01*
X144545042Y-115907208D01*
X144383760Y-115932753D01*
X144181585Y-115998444D01*
X143992179Y-116094951D01*
X143820213Y-116219890D01*
X143669890Y-116370213D01*
X143544949Y-116542182D01*
X143540484Y-116550946D01*
X143492509Y-116601742D01*
X143424688Y-116618536D01*
X143358553Y-116595998D01*
X143319516Y-116550946D01*
X143315050Y-116542182D01*
X143190109Y-116370213D01*
X143039786Y-116219890D01*
X142867820Y-116094951D01*
X142678414Y-115998444D01*
X142678413Y-115998443D01*
X142678412Y-115998443D01*
X142476243Y-115932754D01*
X142476241Y-115932753D01*
X142476240Y-115932753D01*
X142314957Y-115907208D01*
X142266287Y-115899500D01*
X142053713Y-115899500D01*
X142005042Y-115907208D01*
X141843760Y-115932753D01*
X141641585Y-115998444D01*
X141452179Y-116094951D01*
X141280213Y-116219890D01*
X141129890Y-116370213D01*
X141004949Y-116542182D01*
X141000484Y-116550946D01*
X140952509Y-116601742D01*
X140884688Y-116618536D01*
X140818553Y-116595998D01*
X140779516Y-116550946D01*
X140775050Y-116542182D01*
X140650109Y-116370213D01*
X140499786Y-116219890D01*
X140327820Y-116094951D01*
X140138414Y-115998444D01*
X140138413Y-115998443D01*
X140138412Y-115998443D01*
X139936243Y-115932754D01*
X139936241Y-115932753D01*
X139936240Y-115932753D01*
X139774957Y-115907208D01*
X139726287Y-115899500D01*
X139513713Y-115899500D01*
X139465042Y-115907208D01*
X139303760Y-115932753D01*
X139101585Y-115998444D01*
X138912179Y-116094951D01*
X138740213Y-116219890D01*
X138589890Y-116370213D01*
X138464949Y-116542182D01*
X138460484Y-116550946D01*
X138412509Y-116601742D01*
X138344688Y-116618536D01*
X138278553Y-116595998D01*
X138239516Y-116550946D01*
X138235050Y-116542182D01*
X138110109Y-116370213D01*
X137959786Y-116219890D01*
X137787820Y-116094951D01*
X137598414Y-115998444D01*
X137598413Y-115998443D01*
X137598412Y-115998443D01*
X137396243Y-115932754D01*
X137396241Y-115932753D01*
X137396240Y-115932753D01*
X137234957Y-115907208D01*
X137186287Y-115899500D01*
X136973713Y-115899500D01*
X136925042Y-115907208D01*
X136763760Y-115932753D01*
X136561585Y-115998444D01*
X136372179Y-116094951D01*
X136200213Y-116219890D01*
X136049890Y-116370213D01*
X135924949Y-116542182D01*
X135920484Y-116550946D01*
X135872509Y-116601742D01*
X135804688Y-116618536D01*
X135738553Y-116595998D01*
X135699516Y-116550946D01*
X135695050Y-116542182D01*
X135570109Y-116370213D01*
X135419786Y-116219890D01*
X135247820Y-116094951D01*
X135058414Y-115998444D01*
X135058413Y-115998443D01*
X135058412Y-115998443D01*
X134856243Y-115932754D01*
X134856241Y-115932753D01*
X134856240Y-115932753D01*
X134694957Y-115907208D01*
X134646287Y-115899500D01*
X134433713Y-115899500D01*
X134385042Y-115907208D01*
X134223760Y-115932753D01*
X134021585Y-115998444D01*
X133832179Y-116094951D01*
X133660213Y-116219890D01*
X133509890Y-116370213D01*
X133384949Y-116542182D01*
X133380484Y-116550946D01*
X133332509Y-116601742D01*
X133264688Y-116618536D01*
X133198553Y-116595998D01*
X133159516Y-116550946D01*
X133155050Y-116542182D01*
X133030109Y-116370213D01*
X132879786Y-116219890D01*
X132707820Y-116094951D01*
X132518414Y-115998444D01*
X132518413Y-115998443D01*
X132518412Y-115998443D01*
X132316243Y-115932754D01*
X132316241Y-115932753D01*
X132316240Y-115932753D01*
X132154957Y-115907208D01*
X132106287Y-115899500D01*
X131893713Y-115899500D01*
X131845042Y-115907208D01*
X131683760Y-115932753D01*
X131481585Y-115998444D01*
X131292179Y-116094951D01*
X131120213Y-116219890D01*
X130969890Y-116370213D01*
X130844949Y-116542182D01*
X130840484Y-116550946D01*
X130792509Y-116601742D01*
X130724688Y-116618536D01*
X130658553Y-116595998D01*
X130619516Y-116550946D01*
X130615050Y-116542182D01*
X130490109Y-116370213D01*
X130339786Y-116219890D01*
X130167820Y-116094951D01*
X129978414Y-115998444D01*
X129978413Y-115998443D01*
X129978412Y-115998443D01*
X129776243Y-115932754D01*
X129776241Y-115932753D01*
X129776240Y-115932753D01*
X129614957Y-115907208D01*
X129566287Y-115899500D01*
X129353713Y-115899500D01*
X129305042Y-115907208D01*
X129143760Y-115932753D01*
X128941585Y-115998444D01*
X128752179Y-116094951D01*
X128580213Y-116219890D01*
X128429890Y-116370213D01*
X128304949Y-116542182D01*
X128300484Y-116550946D01*
X128252509Y-116601742D01*
X128184688Y-116618536D01*
X128118553Y-116595998D01*
X128079516Y-116550946D01*
X128075050Y-116542182D01*
X127950109Y-116370213D01*
X127799786Y-116219890D01*
X127627820Y-116094951D01*
X127438414Y-115998444D01*
X127438413Y-115998443D01*
X127438412Y-115998443D01*
X127236243Y-115932754D01*
X127236241Y-115932753D01*
X127236240Y-115932753D01*
X127074957Y-115907208D01*
X127026287Y-115899500D01*
X126813713Y-115899500D01*
X126765042Y-115907208D01*
X126603760Y-115932753D01*
X126401585Y-115998444D01*
X126212179Y-116094951D01*
X126040213Y-116219890D01*
X125889890Y-116370213D01*
X125764949Y-116542182D01*
X125760484Y-116550946D01*
X125712509Y-116601742D01*
X125644688Y-116618536D01*
X125578553Y-116595998D01*
X125539516Y-116550946D01*
X125535050Y-116542182D01*
X125410109Y-116370213D01*
X125259786Y-116219890D01*
X125087820Y-116094951D01*
X124898414Y-115998444D01*
X124898413Y-115998443D01*
X124898412Y-115998443D01*
X124696243Y-115932754D01*
X124696241Y-115932753D01*
X124696240Y-115932753D01*
X124534957Y-115907208D01*
X124486287Y-115899500D01*
X124273713Y-115899500D01*
X124225042Y-115907208D01*
X124063760Y-115932753D01*
X123861585Y-115998444D01*
X123672179Y-116094951D01*
X123500213Y-116219890D01*
X123349890Y-116370213D01*
X123224949Y-116542182D01*
X123220484Y-116550946D01*
X123172509Y-116601742D01*
X123104688Y-116618536D01*
X123038553Y-116595998D01*
X122999516Y-116550946D01*
X122995050Y-116542182D01*
X122870109Y-116370213D01*
X122719786Y-116219890D01*
X122547820Y-116094951D01*
X122358414Y-115998444D01*
X122358413Y-115998443D01*
X122358412Y-115998443D01*
X122156243Y-115932754D01*
X122156241Y-115932753D01*
X122156240Y-115932753D01*
X121994957Y-115907208D01*
X121946287Y-115899500D01*
X121733713Y-115899500D01*
X121685042Y-115907208D01*
X121523760Y-115932753D01*
X121321585Y-115998444D01*
X121132179Y-116094951D01*
X120960215Y-116219889D01*
X120846673Y-116333431D01*
X120785350Y-116366915D01*
X120715658Y-116361931D01*
X120659725Y-116320059D01*
X120642810Y-116289082D01*
X120593797Y-116157671D01*
X120593793Y-116157664D01*
X120507547Y-116042455D01*
X120507544Y-116042452D01*
X120392335Y-115956206D01*
X120392328Y-115956202D01*
X120257482Y-115905908D01*
X120257483Y-115905908D01*
X120197883Y-115899501D01*
X120197881Y-115899500D01*
X120197873Y-115899500D01*
X120197864Y-115899500D01*
X118402129Y-115899500D01*
X118402123Y-115899501D01*
X118342516Y-115905908D01*
X118207671Y-115956202D01*
X118207664Y-115956206D01*
X118092455Y-116042452D01*
X118092452Y-116042455D01*
X118006206Y-116157664D01*
X118006202Y-116157671D01*
X117955908Y-116292517D01*
X117949501Y-116352116D01*
X117949500Y-116352135D01*
X115750500Y-116352135D01*
X115750500Y-114307682D01*
X167200000Y-114307682D01*
X167200000Y-114512317D01*
X167232009Y-114714417D01*
X167295244Y-114909031D01*
X167388141Y-115091350D01*
X167388147Y-115091359D01*
X167420523Y-115135921D01*
X167420524Y-115135922D01*
X168100000Y-114456446D01*
X168100000Y-114462661D01*
X168127259Y-114564394D01*
X168179920Y-114655606D01*
X168254394Y-114730080D01*
X168345606Y-114782741D01*
X168447339Y-114810000D01*
X168453553Y-114810000D01*
X167774076Y-115489474D01*
X167818650Y-115521859D01*
X168000968Y-115614755D01*
X168195582Y-115677990D01*
X168397683Y-115710000D01*
X168602317Y-115710000D01*
X168804417Y-115677990D01*
X168999031Y-115614755D01*
X169181349Y-115521859D01*
X169225921Y-115489474D01*
X168546447Y-114810000D01*
X168552661Y-114810000D01*
X168654394Y-114782741D01*
X168745606Y-114730080D01*
X168820080Y-114655606D01*
X168872741Y-114564394D01*
X168900000Y-114462661D01*
X168900000Y-114456447D01*
X169579474Y-115135921D01*
X169611859Y-115091349D01*
X169704755Y-114909031D01*
X169767990Y-114714417D01*
X169800000Y-114512317D01*
X169800000Y-114307682D01*
X169767990Y-114105582D01*
X169704755Y-113910968D01*
X169611859Y-113728650D01*
X169579474Y-113684077D01*
X169579474Y-113684076D01*
X168900000Y-114363551D01*
X168900000Y-114357339D01*
X168872741Y-114255606D01*
X168820080Y-114164394D01*
X168745606Y-114089920D01*
X168654394Y-114037259D01*
X168552661Y-114010000D01*
X168546446Y-114010000D01*
X169225922Y-113330524D01*
X169225921Y-113330523D01*
X169181359Y-113298147D01*
X169181350Y-113298141D01*
X168999031Y-113205244D01*
X168804417Y-113142009D01*
X168602317Y-113110000D01*
X168397683Y-113110000D01*
X168195582Y-113142009D01*
X168000968Y-113205244D01*
X167818644Y-113298143D01*
X167774077Y-113330523D01*
X167774077Y-113330524D01*
X168453554Y-114010000D01*
X168447339Y-114010000D01*
X168345606Y-114037259D01*
X168254394Y-114089920D01*
X168179920Y-114164394D01*
X168127259Y-114255606D01*
X168100000Y-114357339D01*
X168100000Y-114363553D01*
X167420524Y-113684077D01*
X167420523Y-113684077D01*
X167388143Y-113728644D01*
X167295244Y-113910968D01*
X167232009Y-114105582D01*
X167200000Y-114307682D01*
X115750500Y-114307682D01*
X115750500Y-108171153D01*
X152099500Y-108171153D01*
X152099500Y-108328846D01*
X152130261Y-108483489D01*
X152130264Y-108483501D01*
X152190602Y-108629172D01*
X152190609Y-108629185D01*
X152278210Y-108760288D01*
X152278213Y-108760292D01*
X152389707Y-108871786D01*
X152389711Y-108871789D01*
X152520814Y-108959390D01*
X152520827Y-108959397D01*
X152624126Y-109002184D01*
X152666503Y-109019737D01*
X152821153Y-109050499D01*
X152821156Y-109050500D01*
X152821158Y-109050500D01*
X152978844Y-109050500D01*
X152978845Y-109050499D01*
X153133497Y-109019737D01*
X153279179Y-108959394D01*
X153410289Y-108871789D01*
X153521789Y-108760289D01*
X153609394Y-108629179D01*
X153669737Y-108483497D01*
X153700500Y-108328842D01*
X153700500Y-108200096D01*
X153720185Y-108133057D01*
X153736819Y-108112415D01*
X154221024Y-107628210D01*
X154764662Y-107084572D01*
X154825983Y-107051089D01*
X154828150Y-107050638D01*
X154886085Y-107039113D01*
X154983497Y-107019737D01*
X155129179Y-106959394D01*
X155260289Y-106871789D01*
X155371789Y-106760289D01*
X155459394Y-106629179D01*
X155519737Y-106483497D01*
X155550500Y-106328842D01*
X155550500Y-106171158D01*
X155550500Y-106171155D01*
X155550499Y-106171153D01*
X155519737Y-106016503D01*
X155517244Y-106010484D01*
X155459397Y-105870827D01*
X155459390Y-105870814D01*
X155371789Y-105739711D01*
X155371786Y-105739707D01*
X155260292Y-105628213D01*
X155260288Y-105628210D01*
X155129185Y-105540609D01*
X155129172Y-105540602D01*
X154983501Y-105480264D01*
X154983489Y-105480261D01*
X154828845Y-105449500D01*
X154828842Y-105449500D01*
X154671158Y-105449500D01*
X154671155Y-105449500D01*
X154516510Y-105480261D01*
X154516498Y-105480264D01*
X154370827Y-105540602D01*
X154370814Y-105540609D01*
X154239711Y-105628210D01*
X154239707Y-105628213D01*
X154128213Y-105739707D01*
X154128210Y-105739711D01*
X154040609Y-105870814D01*
X154040602Y-105870827D01*
X153980264Y-106016498D01*
X153980261Y-106016508D01*
X153949361Y-106171850D01*
X153916976Y-106233761D01*
X153915425Y-106235339D01*
X152690770Y-107459993D01*
X152650542Y-107486873D01*
X152520824Y-107540604D01*
X152520814Y-107540609D01*
X152389711Y-107628210D01*
X152389707Y-107628213D01*
X152278213Y-107739707D01*
X152278210Y-107739711D01*
X152190609Y-107870814D01*
X152190602Y-107870827D01*
X152130264Y-108016498D01*
X152130261Y-108016510D01*
X152099500Y-108171153D01*
X115750500Y-108171153D01*
X115750500Y-96112135D01*
X155989500Y-96112135D01*
X155989500Y-97907870D01*
X155989501Y-97907876D01*
X155995908Y-97967483D01*
X156046202Y-98102328D01*
X156046206Y-98102335D01*
X156132452Y-98217544D01*
X156132455Y-98217547D01*
X156247664Y-98303793D01*
X156247671Y-98303797D01*
X156379082Y-98352810D01*
X156435016Y-98394681D01*
X156459433Y-98460145D01*
X156444582Y-98528418D01*
X156423431Y-98556673D01*
X156309889Y-98670215D01*
X156184951Y-98842179D01*
X156088444Y-99031585D01*
X156022753Y-99233760D01*
X155989500Y-99443713D01*
X155989500Y-99656286D01*
X156022753Y-99866239D01*
X156088444Y-100068414D01*
X156184951Y-100257820D01*
X156309890Y-100429786D01*
X156460213Y-100580109D01*
X156632182Y-100705050D01*
X156640946Y-100709516D01*
X156691742Y-100757491D01*
X156708536Y-100825312D01*
X156685998Y-100891447D01*
X156640946Y-100930484D01*
X156632182Y-100934949D01*
X156460213Y-101059890D01*
X156309890Y-101210213D01*
X156184951Y-101382179D01*
X156088444Y-101571585D01*
X156022753Y-101773760D01*
X155989500Y-101983713D01*
X155989500Y-102196286D01*
X156022753Y-102406239D01*
X156088444Y-102608414D01*
X156184951Y-102797820D01*
X156309890Y-102969786D01*
X156460213Y-103120109D01*
X156632182Y-103245050D01*
X156640946Y-103249516D01*
X156691742Y-103297491D01*
X156708536Y-103365312D01*
X156685998Y-103431447D01*
X156640946Y-103470484D01*
X156632182Y-103474949D01*
X156460213Y-103599890D01*
X156309890Y-103750213D01*
X156184951Y-103922179D01*
X156088444Y-104111585D01*
X156022753Y-104313760D01*
X155989500Y-104523713D01*
X155989500Y-104736286D01*
X156020436Y-104931613D01*
X156022754Y-104946243D01*
X156076705Y-105112287D01*
X156088444Y-105148414D01*
X156184951Y-105337820D01*
X156309890Y-105509786D01*
X156460213Y-105660109D01*
X156632182Y-105785050D01*
X156640946Y-105789516D01*
X156691742Y-105837491D01*
X156708536Y-105905312D01*
X156685998Y-105971447D01*
X156640946Y-106010484D01*
X156632182Y-106014949D01*
X156460213Y-106139890D01*
X156309890Y-106290213D01*
X156184951Y-106462179D01*
X156088444Y-106651585D01*
X156022753Y-106853760D01*
X155989500Y-107063713D01*
X155989500Y-107276286D01*
X156021649Y-107479270D01*
X156022754Y-107486243D01*
X156068882Y-107628211D01*
X156088444Y-107688414D01*
X156184951Y-107877820D01*
X156309890Y-108049786D01*
X156460213Y-108200109D01*
X156632182Y-108325050D01*
X156640946Y-108329516D01*
X156691742Y-108377491D01*
X156708536Y-108445312D01*
X156685998Y-108511447D01*
X156640946Y-108550484D01*
X156632182Y-108554949D01*
X156460213Y-108679890D01*
X156309890Y-108830213D01*
X156184951Y-109002179D01*
X156088444Y-109191585D01*
X156022753Y-109393760D01*
X156021765Y-109400000D01*
X155989500Y-109603713D01*
X155989500Y-109816287D01*
X156022754Y-110026243D01*
X156080756Y-110204755D01*
X156088444Y-110228414D01*
X156184951Y-110417820D01*
X156309890Y-110589786D01*
X156460213Y-110740109D01*
X156632179Y-110865048D01*
X156632181Y-110865049D01*
X156632184Y-110865051D01*
X156641493Y-110869794D01*
X156692290Y-110917766D01*
X156709087Y-110985587D01*
X156686552Y-111051722D01*
X156641505Y-111090760D01*
X156632446Y-111095376D01*
X156632440Y-111095380D01*
X156578282Y-111134727D01*
X156578282Y-111134728D01*
X157210591Y-111767037D01*
X157147007Y-111784075D01*
X157032993Y-111849901D01*
X156939901Y-111942993D01*
X156874075Y-112057007D01*
X156857037Y-112120591D01*
X156224728Y-111488282D01*
X156224727Y-111488282D01*
X156185380Y-111542439D01*
X156088904Y-111731782D01*
X156023242Y-111933869D01*
X156023242Y-111933872D01*
X155990000Y-112143753D01*
X155990000Y-112356246D01*
X156023242Y-112566127D01*
X156023242Y-112566130D01*
X156088904Y-112768217D01*
X156185375Y-112957550D01*
X156224728Y-113011716D01*
X156857037Y-112379408D01*
X156874075Y-112442993D01*
X156939901Y-112557007D01*
X157032993Y-112650099D01*
X157147007Y-112715925D01*
X157210590Y-112732962D01*
X156578282Y-113365269D01*
X156578282Y-113365270D01*
X156632449Y-113404624D01*
X156821782Y-113501095D01*
X157023870Y-113566757D01*
X157233754Y-113600000D01*
X157446246Y-113600000D01*
X157656127Y-113566757D01*
X157656130Y-113566757D01*
X157858217Y-113501095D01*
X158047554Y-113404622D01*
X158101717Y-113365270D01*
X157469408Y-112732962D01*
X157532993Y-112715925D01*
X157647007Y-112650099D01*
X157740099Y-112557007D01*
X157805925Y-112442993D01*
X157822962Y-112379408D01*
X158455270Y-113011717D01*
X158455270Y-113011716D01*
X158494622Y-112957554D01*
X158591095Y-112768217D01*
X158656757Y-112566130D01*
X158656757Y-112566127D01*
X158690000Y-112356246D01*
X158690000Y-112143753D01*
X158656757Y-111933872D01*
X158656757Y-111933869D01*
X158591095Y-111731782D01*
X158494624Y-111542449D01*
X158455270Y-111488282D01*
X158455269Y-111488282D01*
X157822962Y-112120590D01*
X157805925Y-112057007D01*
X157740099Y-111942993D01*
X157647007Y-111849901D01*
X157532993Y-111784075D01*
X157469409Y-111767037D01*
X158101716Y-111134728D01*
X158047547Y-111095373D01*
X158047547Y-111095372D01*
X158038500Y-111090763D01*
X157987706Y-111042788D01*
X157970912Y-110974966D01*
X157993451Y-110908832D01*
X158038508Y-110869793D01*
X158047816Y-110865051D01*
X158127007Y-110807515D01*
X158219786Y-110740109D01*
X158219788Y-110740106D01*
X158219792Y-110740104D01*
X158370104Y-110589792D01*
X158370106Y-110589788D01*
X158370109Y-110589786D01*
X158495048Y-110417820D01*
X158495047Y-110417820D01*
X158495051Y-110417816D01*
X158591557Y-110228412D01*
X158657246Y-110026243D01*
X158690500Y-109816287D01*
X158690500Y-109603713D01*
X158657246Y-109393757D01*
X158591557Y-109191588D01*
X158495051Y-109002184D01*
X158495049Y-109002181D01*
X158468545Y-108965700D01*
X158468544Y-108965699D01*
X158419127Y-108897682D01*
X162200000Y-108897682D01*
X162200000Y-109102317D01*
X162232009Y-109304417D01*
X162295244Y-109499031D01*
X162388141Y-109681350D01*
X162388147Y-109681359D01*
X162420523Y-109725921D01*
X162420524Y-109725922D01*
X163100000Y-109046446D01*
X163100000Y-109052661D01*
X163127259Y-109154394D01*
X163179920Y-109245606D01*
X163254394Y-109320080D01*
X163345606Y-109372741D01*
X163447339Y-109400000D01*
X163453553Y-109400000D01*
X162774076Y-110079474D01*
X162818650Y-110111859D01*
X163000968Y-110204755D01*
X163195582Y-110267990D01*
X163397683Y-110300000D01*
X163602317Y-110300000D01*
X163804417Y-110267990D01*
X163999031Y-110204755D01*
X164181349Y-110111859D01*
X164225921Y-110079474D01*
X163546447Y-109400000D01*
X163552661Y-109400000D01*
X163654394Y-109372741D01*
X163745606Y-109320080D01*
X163820080Y-109245606D01*
X163872741Y-109154394D01*
X163900000Y-109052661D01*
X163900000Y-109046448D01*
X164579474Y-109725922D01*
X164579474Y-109725921D01*
X164611859Y-109681349D01*
X164704755Y-109499031D01*
X164767990Y-109304417D01*
X164800000Y-109102317D01*
X164800000Y-108897682D01*
X164767990Y-108695582D01*
X164704755Y-108500968D01*
X164611859Y-108318650D01*
X164579474Y-108274077D01*
X164579474Y-108274076D01*
X163900000Y-108953551D01*
X163900000Y-108947339D01*
X163872741Y-108845606D01*
X163820080Y-108754394D01*
X163745606Y-108679920D01*
X163654394Y-108627259D01*
X163552661Y-108600000D01*
X163546446Y-108600000D01*
X164225922Y-107920524D01*
X164225921Y-107920523D01*
X164181359Y-107888147D01*
X164181350Y-107888141D01*
X163999031Y-107795244D01*
X163804417Y-107732009D01*
X163602317Y-107700000D01*
X163397683Y-107700000D01*
X163195582Y-107732009D01*
X163000968Y-107795244D01*
X162818644Y-107888143D01*
X162774077Y-107920523D01*
X162774077Y-107920524D01*
X163453554Y-108600000D01*
X163447339Y-108600000D01*
X163345606Y-108627259D01*
X163254394Y-108679920D01*
X163179920Y-108754394D01*
X163127259Y-108845606D01*
X163100000Y-108947339D01*
X163100000Y-108953553D01*
X162420524Y-108274077D01*
X162420523Y-108274077D01*
X162388143Y-108318644D01*
X162295244Y-108500968D01*
X162232009Y-108695582D01*
X162200000Y-108897682D01*
X158419127Y-108897682D01*
X158370109Y-108830214D01*
X158370105Y-108830209D01*
X158219786Y-108679890D01*
X158047820Y-108554951D01*
X158047115Y-108554591D01*
X158039054Y-108550485D01*
X157988259Y-108502512D01*
X157971463Y-108434692D01*
X157993999Y-108368556D01*
X158039054Y-108329515D01*
X158047816Y-108325051D01*
X158117978Y-108274076D01*
X158219786Y-108200109D01*
X158219788Y-108200106D01*
X158219792Y-108200104D01*
X158370104Y-108049792D01*
X158370106Y-108049788D01*
X158370109Y-108049786D01*
X158482641Y-107894898D01*
X158488406Y-107886960D01*
X158495051Y-107877816D01*
X158591557Y-107688412D01*
X158657246Y-107486243D01*
X158690500Y-107276287D01*
X158690500Y-107063713D01*
X158657246Y-106853757D01*
X158591557Y-106651588D01*
X158495051Y-106462184D01*
X158495049Y-106462181D01*
X158495048Y-106462179D01*
X158370109Y-106290213D01*
X158219786Y-106139890D01*
X158047820Y-106014951D01*
X158047115Y-106014591D01*
X158039054Y-106010485D01*
X157988259Y-105962512D01*
X157971463Y-105894692D01*
X157993999Y-105828556D01*
X158039054Y-105789515D01*
X158047816Y-105785051D01*
X158110227Y-105739707D01*
X158219786Y-105660109D01*
X158219788Y-105660106D01*
X158219792Y-105660104D01*
X158370104Y-105509792D01*
X158370106Y-105509788D01*
X158370109Y-105509786D01*
X158495048Y-105337820D01*
X158495047Y-105337820D01*
X158495051Y-105337816D01*
X158591557Y-105148412D01*
X158657246Y-104946243D01*
X158690500Y-104736287D01*
X158690500Y-104523713D01*
X158657246Y-104313757D01*
X158591557Y-104111588D01*
X158495051Y-103922184D01*
X158495050Y-103922182D01*
X158477225Y-103897648D01*
X162199500Y-103897648D01*
X162199500Y-104102351D01*
X162231522Y-104304534D01*
X162294781Y-104499223D01*
X162387715Y-104681613D01*
X162508028Y-104847213D01*
X162652786Y-104991971D01*
X162807749Y-105104556D01*
X162818390Y-105112287D01*
X162934607Y-105171503D01*
X163000776Y-105205218D01*
X163000778Y-105205218D01*
X163000781Y-105205220D01*
X163105137Y-105239127D01*
X163195465Y-105268477D01*
X163296557Y-105284488D01*
X163397648Y-105300500D01*
X163397649Y-105300500D01*
X163602351Y-105300500D01*
X163602352Y-105300500D01*
X163804534Y-105268477D01*
X163999219Y-105205220D01*
X164181610Y-105112287D01*
X164274590Y-105044732D01*
X164347213Y-104991971D01*
X164347215Y-104991968D01*
X164347219Y-104991966D01*
X164491966Y-104847219D01*
X164491968Y-104847215D01*
X164491971Y-104847213D01*
X164544732Y-104774590D01*
X164612287Y-104681610D01*
X164705220Y-104499219D01*
X164768477Y-104304534D01*
X164793326Y-104147648D01*
X167199500Y-104147648D01*
X167199500Y-104352351D01*
X167231522Y-104554534D01*
X167294781Y-104749223D01*
X167387715Y-104931613D01*
X167508028Y-105097213D01*
X167652786Y-105241971D01*
X167784708Y-105337816D01*
X167818390Y-105362287D01*
X167934607Y-105421503D01*
X168000776Y-105455218D01*
X168000778Y-105455218D01*
X168000781Y-105455220D01*
X168105137Y-105489127D01*
X168195465Y-105518477D01*
X168296557Y-105534488D01*
X168397648Y-105550500D01*
X168397649Y-105550500D01*
X168602351Y-105550500D01*
X168602352Y-105550500D01*
X168804534Y-105518477D01*
X168999219Y-105455220D01*
X169181610Y-105362287D01*
X169274590Y-105294732D01*
X169347213Y-105241971D01*
X169347215Y-105241968D01*
X169347219Y-105241966D01*
X169491966Y-105097219D01*
X169491968Y-105097215D01*
X169491971Y-105097213D01*
X169544732Y-105024590D01*
X169612287Y-104931610D01*
X169705220Y-104749219D01*
X169768477Y-104554534D01*
X169800500Y-104352352D01*
X169800500Y-104147648D01*
X169768477Y-103945466D01*
X169705220Y-103750781D01*
X169705218Y-103750778D01*
X169705218Y-103750776D01*
X169671503Y-103684607D01*
X169612287Y-103568390D01*
X169563163Y-103500776D01*
X169491971Y-103402786D01*
X169347213Y-103258028D01*
X169181613Y-103137715D01*
X169181612Y-103137714D01*
X169181610Y-103137713D01*
X169124653Y-103108691D01*
X168999223Y-103044781D01*
X168804534Y-102981522D01*
X168629995Y-102953878D01*
X168602352Y-102949500D01*
X168397648Y-102949500D01*
X168373329Y-102953351D01*
X168195465Y-102981522D01*
X168000776Y-103044781D01*
X167818386Y-103137715D01*
X167652786Y-103258028D01*
X167508028Y-103402786D01*
X167387715Y-103568386D01*
X167294781Y-103750776D01*
X167231522Y-103945465D01*
X167199500Y-104147648D01*
X164793326Y-104147648D01*
X164800500Y-104102352D01*
X164800500Y-103897648D01*
X164777148Y-103750213D01*
X164768477Y-103695465D01*
X164705218Y-103500776D01*
X164671503Y-103434607D01*
X164612287Y-103318390D01*
X164590612Y-103288556D01*
X164491971Y-103152786D01*
X164347213Y-103008028D01*
X164181613Y-102887715D01*
X164181612Y-102887714D01*
X164181610Y-102887713D01*
X164124653Y-102858691D01*
X163999223Y-102794781D01*
X163804534Y-102731522D01*
X163629995Y-102703878D01*
X163602352Y-102699500D01*
X163397648Y-102699500D01*
X163373329Y-102703351D01*
X163195465Y-102731522D01*
X163000776Y-102794781D01*
X162818386Y-102887715D01*
X162652786Y-103008028D01*
X162508028Y-103152786D01*
X162387715Y-103318386D01*
X162294781Y-103500776D01*
X162231522Y-103695465D01*
X162199500Y-103897648D01*
X158477225Y-103897648D01*
X158370109Y-103750213D01*
X158219786Y-103599890D01*
X158047820Y-103474951D01*
X158047115Y-103474591D01*
X158039054Y-103470485D01*
X157988259Y-103422512D01*
X157971463Y-103354692D01*
X157993999Y-103288556D01*
X158039054Y-103249515D01*
X158047816Y-103245051D01*
X158174816Y-103152781D01*
X158219786Y-103120109D01*
X158219788Y-103120106D01*
X158219792Y-103120104D01*
X158370104Y-102969792D01*
X158370106Y-102969788D01*
X158370109Y-102969786D01*
X158495048Y-102797820D01*
X158495047Y-102797820D01*
X158495051Y-102797816D01*
X158591557Y-102608412D01*
X158657246Y-102406243D01*
X158690500Y-102196287D01*
X158690500Y-101983713D01*
X158657246Y-101773757D01*
X158591557Y-101571588D01*
X158495051Y-101382184D01*
X158495049Y-101382181D01*
X158495048Y-101382179D01*
X158370109Y-101210213D01*
X158219786Y-101059890D01*
X158047820Y-100934951D01*
X158047115Y-100934591D01*
X158039054Y-100930485D01*
X157988259Y-100882512D01*
X157971463Y-100814692D01*
X157993999Y-100748556D01*
X158039054Y-100709515D01*
X158047816Y-100705051D01*
X158069789Y-100689086D01*
X158219786Y-100580109D01*
X158219788Y-100580106D01*
X158219792Y-100580104D01*
X158370104Y-100429792D01*
X158370106Y-100429788D01*
X158370109Y-100429786D01*
X158495048Y-100257820D01*
X158495047Y-100257820D01*
X158495051Y-100257816D01*
X158591557Y-100068412D01*
X158657246Y-99866243D01*
X158690500Y-99656287D01*
X158690500Y-99443713D01*
X158657246Y-99233757D01*
X158591557Y-99031588D01*
X158495051Y-98842184D01*
X158495049Y-98842181D01*
X158495048Y-98842179D01*
X158370109Y-98670213D01*
X158256569Y-98556673D01*
X158223084Y-98495350D01*
X158228068Y-98425658D01*
X158269940Y-98369725D01*
X158300915Y-98352810D01*
X158432331Y-98303796D01*
X158547546Y-98217546D01*
X158633796Y-98102331D01*
X158684091Y-97967483D01*
X158690500Y-97907873D01*
X158690500Y-97651577D01*
X162799500Y-97651577D01*
X162799500Y-97848422D01*
X162830290Y-98042826D01*
X162891117Y-98230029D01*
X162954330Y-98354091D01*
X162980476Y-98405405D01*
X163096172Y-98564646D01*
X163235354Y-98703828D01*
X163394595Y-98819524D01*
X163439068Y-98842184D01*
X163569970Y-98908882D01*
X163569972Y-98908882D01*
X163569975Y-98908884D01*
X163670317Y-98941487D01*
X163757173Y-98969709D01*
X163951578Y-99000500D01*
X163951583Y-99000500D01*
X164148422Y-99000500D01*
X164342826Y-98969709D01*
X164530025Y-98908884D01*
X164705405Y-98819524D01*
X164864646Y-98703828D01*
X165003828Y-98564646D01*
X165119524Y-98405405D01*
X165208884Y-98230025D01*
X165269709Y-98042826D01*
X165291083Y-97907876D01*
X165300500Y-97848422D01*
X165300500Y-97651577D01*
X166199500Y-97651577D01*
X166199500Y-97848422D01*
X166230290Y-98042826D01*
X166291117Y-98230029D01*
X166354330Y-98354091D01*
X166380476Y-98405405D01*
X166496172Y-98564646D01*
X166635354Y-98703828D01*
X166794595Y-98819524D01*
X166839068Y-98842184D01*
X166969970Y-98908882D01*
X166969972Y-98908882D01*
X166969975Y-98908884D01*
X167070317Y-98941487D01*
X167157173Y-98969709D01*
X167351578Y-99000500D01*
X167351583Y-99000500D01*
X167548422Y-99000500D01*
X167742826Y-98969709D01*
X167930025Y-98908884D01*
X168105405Y-98819524D01*
X168264646Y-98703828D01*
X168403828Y-98564646D01*
X168519524Y-98405405D01*
X168608884Y-98230025D01*
X168669709Y-98042826D01*
X168691083Y-97907876D01*
X168700500Y-97848422D01*
X168700500Y-97651577D01*
X168669709Y-97457173D01*
X168608882Y-97269970D01*
X168519523Y-97094594D01*
X168403828Y-96935354D01*
X168264646Y-96796172D01*
X168105405Y-96680476D01*
X167930029Y-96591117D01*
X167742826Y-96530290D01*
X167548422Y-96499500D01*
X167548417Y-96499500D01*
X167351583Y-96499500D01*
X167351578Y-96499500D01*
X167157173Y-96530290D01*
X166969970Y-96591117D01*
X166794594Y-96680476D01*
X166703741Y-96746485D01*
X166635354Y-96796172D01*
X166635352Y-96796174D01*
X166635351Y-96796174D01*
X166496174Y-96935351D01*
X166496174Y-96935352D01*
X166496172Y-96935354D01*
X166446485Y-97003741D01*
X166380476Y-97094594D01*
X166291117Y-97269970D01*
X166230290Y-97457173D01*
X166199500Y-97651577D01*
X165300500Y-97651577D01*
X165269709Y-97457173D01*
X165208882Y-97269970D01*
X165119523Y-97094594D01*
X165003828Y-96935354D01*
X164864646Y-96796172D01*
X164705405Y-96680476D01*
X164530029Y-96591117D01*
X164342826Y-96530290D01*
X164148422Y-96499500D01*
X164148417Y-96499500D01*
X163951583Y-96499500D01*
X163951578Y-96499500D01*
X163757173Y-96530290D01*
X163569970Y-96591117D01*
X163394594Y-96680476D01*
X163303741Y-96746485D01*
X163235354Y-96796172D01*
X163235352Y-96796174D01*
X163235351Y-96796174D01*
X163096174Y-96935351D01*
X163096174Y-96935352D01*
X163096172Y-96935354D01*
X163046485Y-97003741D01*
X162980476Y-97094594D01*
X162891117Y-97269970D01*
X162830290Y-97457173D01*
X162799500Y-97651577D01*
X158690500Y-97651577D01*
X158690499Y-96935354D01*
X158690499Y-96112129D01*
X158690498Y-96112123D01*
X158690497Y-96112116D01*
X158684091Y-96052517D01*
X158633796Y-95917669D01*
X158633795Y-95917668D01*
X158633793Y-95917664D01*
X158547547Y-95802455D01*
X158547544Y-95802452D01*
X158432335Y-95716206D01*
X158432328Y-95716202D01*
X158297482Y-95665908D01*
X158297483Y-95665908D01*
X158237883Y-95659501D01*
X158237881Y-95659500D01*
X158237873Y-95659500D01*
X158237864Y-95659500D01*
X156442129Y-95659500D01*
X156442123Y-95659501D01*
X156382516Y-95665908D01*
X156247671Y-95716202D01*
X156247664Y-95716206D01*
X156132455Y-95802452D01*
X156132452Y-95802455D01*
X156046206Y-95917664D01*
X156046202Y-95917671D01*
X155995908Y-96052517D01*
X155989501Y-96112116D01*
X155989501Y-96112123D01*
X155989500Y-96112135D01*
X115750500Y-96112135D01*
X115750500Y-95763159D01*
X115750610Y-95757942D01*
X115752368Y-95716202D01*
X115752624Y-95710121D01*
X115753375Y-95700773D01*
X115778781Y-95486619D01*
X115780836Y-95474487D01*
X115807620Y-95353228D01*
X115833069Y-95238011D01*
X115836627Y-95225208D01*
X115836628Y-95225206D01*
X115911397Y-95003060D01*
X115916767Y-94989723D01*
X116009043Y-94794177D01*
X116016544Y-94780567D01*
X116122589Y-94613814D01*
X116132397Y-94600457D01*
X116250495Y-94460350D01*
X116262585Y-94447894D01*
X116393535Y-94330663D01*
X116407578Y-94319798D01*
X116554820Y-94221898D01*
X116570189Y-94213194D01*
X116749042Y-94128106D01*
X116760916Y-94123195D01*
X116798922Y-94109739D01*
X116845075Y-94093400D01*
X116853031Y-94090881D01*
X116956597Y-94061889D01*
X116964434Y-94059969D01*
X117076158Y-94036425D01*
X117083804Y-94035062D01*
X117205920Y-94017237D01*
X117213312Y-94016384D01*
X117345803Y-94005125D01*
X117352893Y-94004728D01*
X117482900Y-94001158D01*
X117505170Y-94000547D01*
X117508573Y-94000500D01*
X172741426Y-94000500D01*
X172744829Y-94000547D01*
G37*
%TD.AperFunction*%
%TD*%
M02*
