%TF.GenerationSoftware,KiCad,Pcbnew,10.0.0*%
%TF.CreationDate,2026-05-22T16:29:41+02:00*%
%TF.ProjectId,iotpcb,696f7470-6362-42e6-9b69-6361645f7063,rev?*%
%TF.SameCoordinates,Original*%
%TF.FileFunction,Legend,Bot*%
%TF.FilePolarity,Positive*%
%FSLAX46Y46*%
G04 Gerber Fmt 4.6, Leading zero omitted, Abs format (unit mm)*
G04 Created by KiCad (PCBNEW 10.0.0) date 2026-05-22 16:29:41*
%MOMM*%
%LPD*%
G01*
G04 APERTURE LIST*
%ADD10C,0.150000*%
%ADD11C,0.120000*%
G04 APERTURE END LIST*
D10*
X158833333Y-135104819D02*
X158833333Y-135819104D01*
X158833333Y-135819104D02*
X158880952Y-135961961D01*
X158880952Y-135961961D02*
X158976190Y-136057200D01*
X158976190Y-136057200D02*
X159119047Y-136104819D01*
X159119047Y-136104819D02*
X159214285Y-136104819D01*
X157833333Y-136104819D02*
X158404761Y-136104819D01*
X158119047Y-136104819D02*
X158119047Y-135104819D01*
X158119047Y-135104819D02*
X158214285Y-135247676D01*
X158214285Y-135247676D02*
X158309523Y-135342914D01*
X158309523Y-135342914D02*
X158404761Y-135390533D01*
%TO.C,J1*%
D11*
X160950000Y-136750000D02*
X156050000Y-136750000D01*
X158600000Y-136750000D02*
X158600000Y-136250000D01*
X158500000Y-136750000D02*
X158500000Y-136250000D01*
X156050000Y-136750000D02*
X156050000Y-133250000D01*
X158600000Y-136250000D02*
X158400000Y-136250000D01*
X158400000Y-136250000D02*
X158400000Y-136750000D01*
X161560000Y-135250000D02*
X160950000Y-135250000D01*
X155440000Y-135250000D02*
X156050000Y-135250000D01*
X161560000Y-133950000D02*
X160950000Y-133950000D01*
X155440000Y-133950000D02*
X156050000Y-133950000D01*
X160950000Y-133250000D02*
X160950000Y-136750000D01*
X159000000Y-133250000D02*
X160950000Y-133250000D01*
X158000000Y-133250000D02*
X158000000Y-132640000D01*
X156050000Y-133250000D02*
X158000000Y-133250000D01*
X159800000Y-132640000D02*
X159800000Y-132440000D01*
X159000000Y-132640000D02*
X159000000Y-133250000D01*
X159800000Y-132540000D02*
X160100000Y-132540000D01*
X160100000Y-132440000D02*
X160100000Y-132640000D01*
X159800000Y-132440000D02*
X160100000Y-132440000D01*
X161860000Y-132340000D02*
X161860000Y-133590000D01*
X160610000Y-132340000D02*
X161860000Y-132340000D01*
X155440000Y-132640000D02*
X161560000Y-132640000D01*
X161560000Y-137360000D01*
X155440000Y-137360000D01*
X155440000Y-132640000D01*
%TD*%
M02*
