%TF.GenerationSoftware,KiCad,Pcbnew,10.0.0*%
%TF.CreationDate,2026-05-22T16:29:41+02:00*%
%TF.ProjectId,iotpcb,696f7470-6362-42e6-9b69-6361645f7063,rev?*%
%TF.SameCoordinates,Original*%
%TF.FileFunction,Profile,NP*%
%FSLAX46Y46*%
G04 Gerber Fmt 4.6, Leading zero omitted, Abs format (unit mm)*
G04 Created by KiCad (PCBNEW 10.0.0) date 2026-05-22 16:29:41*
%MOMM*%
%LPD*%
G01*
G04 APERTURE LIST*
%ADD10C,0.050000*%
%TA.AperFunction,Profile*%
%ADD11C,0.050000*%
%TD*%
G04 APERTURE END LIST*
D10*
X115250000Y-167500000D02*
X115250010Y-167509118D01*
X115250040Y-167518213D01*
X115250090Y-167527286D01*
X115250159Y-167536337D01*
X115250249Y-167545367D01*
X115250358Y-167554374D01*
X115250487Y-167563359D01*
X115250636Y-167572322D01*
X115250804Y-167581264D01*
X115250992Y-167590183D01*
X115251199Y-167599081D01*
X115251426Y-167607957D01*
X115251672Y-167616812D01*
X115251938Y-167625644D01*
X115252223Y-167634456D01*
X115252527Y-167643245D01*
X115252851Y-167652014D01*
X115253193Y-167660761D01*
X115253555Y-167669486D01*
X115253936Y-167678190D01*
X115254336Y-167686874D01*
X115254755Y-167695535D01*
X115255193Y-167704176D01*
X115255650Y-167712795D01*
X115256126Y-167721393D01*
X115256621Y-167729970D01*
X115257134Y-167738527D01*
X115257666Y-167747062D01*
X115258217Y-167755577D01*
X115258787Y-167764070D01*
X115259375Y-167772543D01*
X115259982Y-167780995D01*
X115260607Y-167789427D01*
X115261251Y-167797837D01*
X115261913Y-167806227D01*
X115262594Y-167814596D01*
X115263293Y-167822946D01*
X115264010Y-167831274D01*
X115264746Y-167839582D01*
X115265500Y-167847870D01*
X115266272Y-167856137D01*
X115267063Y-167864384D01*
X115267871Y-167872611D01*
X115268697Y-167880817D01*
X115269542Y-167889004D01*
X115270405Y-167897170D01*
X115271285Y-167905317D01*
X115272184Y-167913443D01*
X115273100Y-167921550D01*
X115274034Y-167929636D01*
X115274986Y-167937703D01*
X115275956Y-167945749D01*
X115276943Y-167953777D01*
X115277949Y-167961783D01*
X115278971Y-167969771D01*
X115280012Y-167977739D01*
X115281070Y-167985687D01*
X115282146Y-167993616D01*
X115283239Y-168001525D01*
X115284349Y-168009415D01*
X115285477Y-168017286D01*
X115286623Y-168025136D01*
X115287786Y-168032968D01*
X115288966Y-168040780D01*
X115290163Y-168048574D01*
X115291378Y-168056347D01*
X115292610Y-168064102D01*
X115293859Y-168071837D01*
X115295125Y-168079555D01*
X115296408Y-168087251D01*
X115297709Y-168094931D01*
X115299026Y-168102590D01*
X115300361Y-168110231D01*
X115301712Y-168117852D01*
X115303080Y-168125456D01*
X115304466Y-168133040D01*
X115305868Y-168140607D01*
X115307287Y-168148153D01*
X115308723Y-168155682D01*
X115310175Y-168163191D01*
X115311645Y-168170683D01*
X115313131Y-168178155D01*
X115314634Y-168185610D01*
X115316153Y-168193045D01*
X115317690Y-168200464D01*
X115319242Y-168207862D01*
X115320812Y-168215244D01*
X115322397Y-168222606D01*
X115324000Y-168229951D01*
X115325619Y-168237276D01*
X115327254Y-168244586D01*
X115328906Y-168251875D01*
X115330574Y-168259148D01*
X115332258Y-168266401D01*
X115333959Y-168273639D01*
X115335676Y-168280856D01*
X115337410Y-168288057D01*
X115339159Y-168295239D01*
X115340925Y-168302405D01*
X115342707Y-168309551D01*
X115344505Y-168316681D01*
X115346319Y-168323792D01*
X115348150Y-168330887D01*
X115349996Y-168337963D01*
X115351859Y-168345023D01*
X115353737Y-168352063D01*
X115355632Y-168359089D01*
X115357543Y-168366094D01*
X115359470Y-168373085D01*
X115361412Y-168380055D01*
X115363371Y-168387011D01*
X115365345Y-168393947D01*
X115367335Y-168400869D01*
X115369341Y-168407771D01*
X115371363Y-168414658D01*
X115373400Y-168421525D01*
X115375454Y-168428379D01*
X115377523Y-168435212D01*
X115379608Y-168442031D01*
X115381708Y-168448830D01*
X115383825Y-168455616D01*
X115385956Y-168462381D01*
X115388104Y-168469133D01*
X115390267Y-168475865D01*
X115392446Y-168482583D01*
X115394640Y-168489282D01*
X115396850Y-168495967D01*
X115399075Y-168502632D01*
X115401316Y-168509284D01*
X115403572Y-168515915D01*
X115405845Y-168522534D01*
X115408131Y-168529133D01*
X115412752Y-168542285D01*
X115417435Y-168555371D01*
X115422179Y-168568392D01*
X115426984Y-168581348D01*
X115431850Y-168594240D01*
X115436777Y-168607067D01*
X115441765Y-168619830D01*
X115446814Y-168632529D01*
X115451924Y-168645165D01*
X115457094Y-168657737D01*
X115462324Y-168670247D01*
X115467615Y-168682694D01*
X115472966Y-168695078D01*
X115478377Y-168707401D01*
X115483848Y-168719661D01*
X115489378Y-168731860D01*
X115494969Y-168743997D01*
X115500619Y-168756074D01*
X115506329Y-168768089D01*
X115512099Y-168780044D01*
X115517928Y-168791938D01*
X115523816Y-168803772D01*
X115529763Y-168815547D01*
X115535770Y-168827261D01*
X115541836Y-168838917D01*
X115547962Y-168850513D01*
X115554146Y-168862050D01*
X115560389Y-168873528D01*
X115566691Y-168884948D01*
X115573053Y-168896309D01*
X115579473Y-168907612D01*
X115585952Y-168918858D01*
X115592490Y-168930045D01*
X115599087Y-168941175D01*
X115605742Y-168952248D01*
X115612457Y-168963264D01*
X115619230Y-168974223D01*
X115626062Y-168985125D01*
X115632952Y-168995971D01*
X115639901Y-169006760D01*
X115646909Y-169017493D01*
X115653976Y-169028170D01*
X115661102Y-169038792D01*
X115668286Y-169049357D01*
X115675529Y-169059867D01*
X115682831Y-169070322D01*
X115690191Y-169080722D01*
X115697611Y-169091067D01*
X115705089Y-169101356D01*
X115712626Y-169111591D01*
X115720222Y-169121772D01*
X115727877Y-169131898D01*
X115735591Y-169141969D01*
X115743364Y-169151987D01*
X115751196Y-169161950D01*
X115759086Y-169171860D01*
X115767036Y-169181715D01*
X115775046Y-169191517D01*
X115783114Y-169201266D01*
X115791242Y-169210960D01*
X115799429Y-169220602D01*
X115807675Y-169230190D01*
X115815981Y-169239724D01*
X115824347Y-169249206D01*
X115832771Y-169258635D01*
X115841256Y-169268010D01*
X115849800Y-169277333D01*
X115858404Y-169286603D01*
X115867068Y-169295820D01*
X115875792Y-169304984D01*
X115884576Y-169314096D01*
X115893420Y-169323155D01*
X115902324Y-169332161D01*
X115911288Y-169341115D01*
X115920312Y-169350016D01*
X115929397Y-169358865D01*
X115938542Y-169367662D01*
X115947748Y-169376406D01*
X115957015Y-169385097D01*
X115966342Y-169393736D01*
X115975730Y-169402323D01*
X115985179Y-169410857D01*
X115994689Y-169419339D01*
X116004259Y-169427768D01*
X116013891Y-169436145D01*
X116023584Y-169444470D01*
X116033339Y-169452742D01*
X116043154Y-169460961D01*
X116053032Y-169469128D01*
X116062970Y-169477243D01*
X116072971Y-169485304D01*
X116083033Y-169493313D01*
X116093156Y-169501269D01*
X116103342Y-169509173D01*
X116113589Y-169517023D01*
X116123898Y-169524820D01*
X116134270Y-169532565D01*
X116144703Y-169540256D01*
X116155199Y-169547894D01*
X116165756Y-169555479D01*
X116176376Y-169563010D01*
X116187059Y-169570488D01*
X116197803Y-169577912D01*
X116208610Y-169585282D01*
X116219480Y-169592598D01*
X116230412Y-169599861D01*
X116241406Y-169607069D01*
X116252463Y-169614223D01*
X116263583Y-169621322D01*
X116274765Y-169628367D01*
X116286009Y-169635357D01*
X116297316Y-169642292D01*
X116308686Y-169649171D01*
X116320118Y-169655996D01*
X116331612Y-169662765D01*
X116343169Y-169669478D01*
X116354789Y-169676136D01*
X116366470Y-169682737D01*
X116378214Y-169689282D01*
X116390021Y-169695771D01*
X116401889Y-169702203D01*
X116413819Y-169708578D01*
X116425812Y-169714895D01*
X116437866Y-169721156D01*
X116449982Y-169727358D01*
X116462159Y-169733503D01*
X116474398Y-169739589D01*
X116486698Y-169745617D01*
X116499058Y-169751586D01*
X116511480Y-169757496D01*
X116523962Y-169763347D01*
X116536505Y-169769138D01*
X116549107Y-169774869D01*
X116561769Y-169780540D01*
X116574491Y-169786150D01*
X116587272Y-169791699D01*
X116600111Y-169797187D01*
X116613009Y-169802614D01*
X116625965Y-169807979D01*
X116638978Y-169813281D01*
X116652049Y-169818521D01*
X116665176Y-169823697D01*
X116678358Y-169828811D01*
X116691597Y-169833860D01*
X116704890Y-169838846D01*
X116718237Y-169843767D01*
X116731638Y-169848623D01*
X116745092Y-169853413D01*
X116758598Y-169858138D01*
X116772154Y-169862796D01*
X116785762Y-169867388D01*
X116799418Y-169871913D01*
X116813123Y-169876370D01*
X116826876Y-169880759D01*
X116840674Y-169885079D01*
X116854518Y-169889331D01*
X116868406Y-169893512D01*
X116882336Y-169897624D01*
X116896308Y-169901666D01*
X116910319Y-169905636D01*
X116924368Y-169909534D01*
X116938454Y-169913361D01*
X116952575Y-169917115D01*
X116966728Y-169920795D01*
X116980912Y-169924402D01*
X116995124Y-169927934D01*
X117009363Y-169931392D01*
X117023626Y-169934773D01*
X117037910Y-169938079D01*
X117052213Y-169941308D01*
X117066532Y-169944459D01*
X117080863Y-169947532D01*
X117095203Y-169950526D01*
X117109548Y-169953441D01*
X117123895Y-169956275D01*
X117138240Y-169959029D01*
X117152577Y-169961701D01*
X117166903Y-169964290D01*
X117181211Y-169966797D01*
X117195496Y-169969220D01*
X117209753Y-169971558D01*
X117223974Y-169973811D01*
X117238152Y-169975977D01*
X117252280Y-169978057D01*
X117266348Y-169980048D01*
X117280347Y-169981951D01*
X117294267Y-169983764D01*
X117308095Y-169985487D01*
X117321819Y-169987118D01*
X117335424Y-169988657D01*
X117348894Y-169990103D01*
X117362210Y-169991454D01*
X117375350Y-169992710D01*
X117388291Y-169993870D01*
X117401003Y-169994932D01*
X117413453Y-169995896D01*
X117425599Y-169996760D01*
X117437392Y-169997524D01*
X117448769Y-169998186D01*
X117459649Y-169998746D01*
X117469923Y-169999203D01*
X117479435Y-169999555D01*
X117487943Y-169999803D01*
X117495007Y-169999948D01*
X117500000Y-170000000D01*
X117500000Y-93500000D02*
X117491794Y-93500010D01*
X117483608Y-93500040D01*
X117475442Y-93500090D01*
X117467296Y-93500159D01*
X117459170Y-93500249D01*
X117451064Y-93500358D01*
X117442977Y-93500487D01*
X117434910Y-93500636D01*
X117426862Y-93500804D01*
X117418835Y-93500992D01*
X117410826Y-93501199D01*
X117402838Y-93501426D01*
X117394868Y-93501672D01*
X117386918Y-93501938D01*
X117378988Y-93502223D01*
X117371076Y-93502527D01*
X117363184Y-93502851D01*
X117355312Y-93503194D01*
X117347458Y-93503555D01*
X117339623Y-93503936D01*
X117331808Y-93504337D01*
X117324011Y-93504756D01*
X117316234Y-93505194D01*
X117308475Y-93505651D01*
X117300735Y-93506127D01*
X117293015Y-93506621D01*
X117285312Y-93507135D01*
X117277629Y-93507667D01*
X117269964Y-93508219D01*
X117262319Y-93508788D01*
X117254691Y-93509377D01*
X117247082Y-93509984D01*
X117239491Y-93510609D01*
X117231920Y-93511253D01*
X117224366Y-93511916D01*
X117216831Y-93512597D01*
X117209314Y-93513296D01*
X117201816Y-93514014D01*
X117194335Y-93514750D01*
X117186873Y-93515505D01*
X117179428Y-93516277D01*
X117172003Y-93517068D01*
X117164594Y-93517877D01*
X117157205Y-93518704D01*
X117149832Y-93519549D01*
X117142479Y-93520413D01*
X117135142Y-93521294D01*
X117127824Y-93522193D01*
X117120523Y-93523110D01*
X117113241Y-93524045D01*
X117105975Y-93524998D01*
X117098728Y-93525969D01*
X117091497Y-93526958D01*
X117084285Y-93527964D01*
X117077089Y-93528988D01*
X117069912Y-93530030D01*
X117062752Y-93531089D01*
X117055609Y-93532166D01*
X117048483Y-93533261D01*
X117041376Y-93534373D01*
X117034284Y-93535503D01*
X117027211Y-93536650D01*
X117020154Y-93537815D01*
X117013115Y-93538997D01*
X117006091Y-93540196D01*
X116999087Y-93541413D01*
X116992097Y-93542647D01*
X116985127Y-93543898D01*
X116978171Y-93545167D01*
X116971234Y-93546453D01*
X116964312Y-93547756D01*
X116957409Y-93549076D01*
X116950520Y-93550414D01*
X116943650Y-93551768D01*
X116936795Y-93553140D01*
X116929958Y-93554528D01*
X116923136Y-93555934D01*
X116916332Y-93557357D01*
X116909543Y-93558796D01*
X116902772Y-93560253D01*
X116896015Y-93561726D01*
X116889277Y-93563216D01*
X116882553Y-93564724D01*
X116875848Y-93566247D01*
X116869156Y-93567789D01*
X116862483Y-93569346D01*
X116855824Y-93570920D01*
X116849183Y-93572511D01*
X116842556Y-93574119D01*
X116835947Y-93575743D01*
X116829352Y-93577384D01*
X116822775Y-93579042D01*
X116816211Y-93580716D01*
X116809666Y-93582407D01*
X116803134Y-93584114D01*
X116796621Y-93585838D01*
X116790120Y-93587579D01*
X116783638Y-93589335D01*
X116777169Y-93591109D01*
X116770718Y-93592898D01*
X116764280Y-93594705D01*
X116757860Y-93596527D01*
X116751453Y-93598366D01*
X116745064Y-93600221D01*
X116738688Y-93602093D01*
X116732330Y-93603980D01*
X116725984Y-93605885D01*
X116719657Y-93607804D01*
X116713342Y-93609742D01*
X116707045Y-93611694D01*
X116700760Y-93613663D01*
X116694493Y-93615648D01*
X116682002Y-93619667D01*
X116669571Y-93623750D01*
X116657200Y-93627898D01*
X116644888Y-93632110D01*
X116632636Y-93636386D01*
X116620442Y-93640726D01*
X116608307Y-93645130D01*
X116596231Y-93649598D01*
X116584212Y-93654129D01*
X116572251Y-93658724D01*
X116560348Y-93663382D01*
X116548502Y-93668103D01*
X116536713Y-93672888D01*
X116524980Y-93677736D01*
X116513304Y-93682646D01*
X116501684Y-93687620D01*
X116490120Y-93692657D01*
X116478612Y-93697757D01*
X116467159Y-93702919D01*
X116455761Y-93708144D01*
X116444418Y-93713431D01*
X116433130Y-93718782D01*
X116421896Y-93724194D01*
X116410716Y-93729670D01*
X116399590Y-93735207D01*
X116388518Y-93740807D01*
X116377499Y-93746470D01*
X116366533Y-93752195D01*
X116355621Y-93757982D01*
X116344761Y-93763831D01*
X116333954Y-93769743D01*
X116323199Y-93775718D01*
X116312496Y-93781754D01*
X116301846Y-93787853D01*
X116291247Y-93794014D01*
X116280699Y-93800238D01*
X116270204Y-93806523D01*
X116259759Y-93812872D01*
X116249365Y-93819282D01*
X116239022Y-93825755D01*
X116228729Y-93832291D01*
X116218488Y-93838889D01*
X116208296Y-93845549D01*
X116198154Y-93852273D01*
X116188063Y-93859058D01*
X116178021Y-93865907D01*
X116168029Y-93872818D01*
X116158086Y-93879792D01*
X116148193Y-93886829D01*
X116138349Y-93893928D01*
X116128554Y-93901091D01*
X116118808Y-93908317D01*
X116109111Y-93915606D01*
X116099463Y-93922958D01*
X116089863Y-93930373D01*
X116080311Y-93937852D01*
X116070808Y-93945395D01*
X116061353Y-93953001D01*
X116051946Y-93960670D01*
X116042588Y-93968404D01*
X116033277Y-93976201D01*
X116024014Y-93984063D01*
X116014799Y-93991988D01*
X116005632Y-93999978D01*
X115996512Y-94008032D01*
X115987439Y-94016150D01*
X115978415Y-94024333D01*
X115969437Y-94032581D01*
X115960507Y-94040893D01*
X115951625Y-94049271D01*
X115942790Y-94057714D01*
X115934001Y-94066221D01*
X115925261Y-94074795D01*
X115916567Y-94083433D01*
X115907920Y-94092137D01*
X115899321Y-94100907D01*
X115890769Y-94109743D01*
X115882263Y-94118645D01*
X115873805Y-94127613D01*
X115865394Y-94136648D01*
X115857031Y-94145749D01*
X115848714Y-94154916D01*
X115840444Y-94164150D01*
X115832222Y-94173452D01*
X115824047Y-94182820D01*
X115815919Y-94192255D01*
X115807838Y-94201758D01*
X115799805Y-94211328D01*
X115791819Y-94220966D01*
X115783880Y-94230672D01*
X115775989Y-94240446D01*
X115768145Y-94250287D01*
X115760349Y-94260197D01*
X115752601Y-94270176D01*
X115744901Y-94280222D01*
X115737248Y-94290338D01*
X115729643Y-94300522D01*
X115722087Y-94310775D01*
X115714578Y-94321098D01*
X115707118Y-94331489D01*
X115699706Y-94341950D01*
X115692343Y-94352480D01*
X115685028Y-94363080D01*
X115677762Y-94373749D01*
X115670546Y-94384488D01*
X115663378Y-94395298D01*
X115656259Y-94406177D01*
X115649190Y-94417126D01*
X115642170Y-94428146D01*
X115635200Y-94439236D01*
X115628280Y-94450396D01*
X115621410Y-94461627D01*
X115614590Y-94472928D01*
X115607821Y-94484300D01*
X115601103Y-94495743D01*
X115594435Y-94507257D01*
X115587818Y-94518841D01*
X115581253Y-94530496D01*
X115574739Y-94542222D01*
X115568277Y-94554019D01*
X115561867Y-94565887D01*
X115555509Y-94577825D01*
X115549204Y-94589835D01*
X115542952Y-94601915D01*
X115536752Y-94614067D01*
X115530606Y-94626289D01*
X115524514Y-94638581D01*
X115518475Y-94650945D01*
X115512491Y-94663379D01*
X115506561Y-94675883D01*
X115500685Y-94688458D01*
X115494865Y-94701103D01*
X115489101Y-94713818D01*
X115483392Y-94726603D01*
X115477739Y-94739457D01*
X115472142Y-94752381D01*
X115466602Y-94765374D01*
X115461120Y-94778436D01*
X115455695Y-94791567D01*
X115450327Y-94804766D01*
X115445018Y-94818034D01*
X115439768Y-94831368D01*
X115434577Y-94844770D01*
X115429445Y-94858239D01*
X115424372Y-94871775D01*
X115419361Y-94885376D01*
X115414409Y-94899042D01*
X115409519Y-94912774D01*
X115404690Y-94926569D01*
X115399924Y-94940428D01*
X115395220Y-94954350D01*
X115390578Y-94968334D01*
X115386000Y-94982379D01*
X115381486Y-94996485D01*
X115377036Y-95010650D01*
X115372652Y-95024873D01*
X115368332Y-95039155D01*
X115364078Y-95053492D01*
X115359891Y-95067885D01*
X115355771Y-95082332D01*
X115351718Y-95096832D01*
X115347733Y-95111383D01*
X115343816Y-95125984D01*
X115339969Y-95140633D01*
X115336192Y-95155329D01*
X115332485Y-95170069D01*
X115328849Y-95184852D01*
X115325284Y-95199676D01*
X115321792Y-95214539D01*
X115318372Y-95229437D01*
X115315026Y-95244370D01*
X115311754Y-95259333D01*
X115308557Y-95274325D01*
X115305435Y-95289341D01*
X115302389Y-95304380D01*
X115299421Y-95319437D01*
X115296529Y-95334509D01*
X115293717Y-95349591D01*
X115290983Y-95364679D01*
X115288329Y-95379769D01*
X115285755Y-95394856D01*
X115283263Y-95409933D01*
X115280854Y-95424996D01*
X115278527Y-95440037D01*
X115276284Y-95455051D01*
X115274126Y-95470028D01*
X115272053Y-95484961D01*
X115270067Y-95499841D01*
X115268168Y-95514658D01*
X115266358Y-95529400D01*
X115264636Y-95544056D01*
X115263005Y-95558611D01*
X115261465Y-95573051D01*
X115260017Y-95587358D01*
X115258663Y-95601513D01*
X115257402Y-95615492D01*
X115256237Y-95629271D01*
X115255169Y-95642819D01*
X115254198Y-95656101D01*
X115253325Y-95669073D01*
X115252552Y-95681685D01*
X115251881Y-95693869D01*
X115251311Y-95705544D01*
X115250843Y-95716595D01*
X115250480Y-95726864D01*
X115250220Y-95736103D01*
X115250063Y-95743879D01*
X115250000Y-95750000D01*
X175000000Y-167750000D02*
X174999990Y-167758206D01*
X174999960Y-167766392D01*
X174999910Y-167774558D01*
X174999841Y-167782704D01*
X174999751Y-167790830D01*
X174999642Y-167798936D01*
X174999513Y-167807023D01*
X174999364Y-167815090D01*
X174999196Y-167823138D01*
X174999008Y-167831165D01*
X174998801Y-167839174D01*
X174998574Y-167847162D01*
X174998328Y-167855132D01*
X174998062Y-167863082D01*
X174997777Y-167871012D01*
X174997473Y-167878924D01*
X174997149Y-167886816D01*
X174996806Y-167894688D01*
X174996445Y-167902542D01*
X174996064Y-167910377D01*
X174995663Y-167918192D01*
X174995244Y-167925989D01*
X174994806Y-167933766D01*
X174994349Y-167941525D01*
X174993873Y-167949265D01*
X174993379Y-167956985D01*
X174992865Y-167964688D01*
X174992333Y-167972371D01*
X174991781Y-167980036D01*
X174991212Y-167987681D01*
X174990623Y-167995309D01*
X174990016Y-168002918D01*
X174989391Y-168010509D01*
X174988747Y-168018080D01*
X174988084Y-168025634D01*
X174987403Y-168033169D01*
X174986704Y-168040686D01*
X174985986Y-168048184D01*
X174985250Y-168055665D01*
X174984495Y-168063127D01*
X174983723Y-168070572D01*
X174982932Y-168077997D01*
X174982123Y-168085406D01*
X174981296Y-168092795D01*
X174980451Y-168100168D01*
X174979587Y-168107521D01*
X174978706Y-168114858D01*
X174977807Y-168122176D01*
X174976890Y-168129477D01*
X174975955Y-168136759D01*
X174975002Y-168144025D01*
X174974031Y-168151272D01*
X174973042Y-168158503D01*
X174972036Y-168165715D01*
X174971012Y-168172911D01*
X174969970Y-168180088D01*
X174968911Y-168187248D01*
X174967834Y-168194391D01*
X174966739Y-168201517D01*
X174965627Y-168208624D01*
X174964497Y-168215716D01*
X174963350Y-168222789D01*
X174962185Y-168229846D01*
X174961003Y-168236885D01*
X174959804Y-168243909D01*
X174958587Y-168250913D01*
X174957353Y-168257903D01*
X174956102Y-168264873D01*
X174954833Y-168271829D01*
X174953547Y-168278766D01*
X174952244Y-168285688D01*
X174950924Y-168292591D01*
X174949586Y-168299480D01*
X174948232Y-168306350D01*
X174946860Y-168313205D01*
X174945472Y-168320042D01*
X174944066Y-168326864D01*
X174942643Y-168333668D01*
X174941204Y-168340457D01*
X174939747Y-168347228D01*
X174938274Y-168353985D01*
X174936784Y-168360723D01*
X174935276Y-168367447D01*
X174933753Y-168374152D01*
X174932211Y-168380844D01*
X174930654Y-168387517D01*
X174929080Y-168394176D01*
X174927489Y-168400817D01*
X174925881Y-168407444D01*
X174924257Y-168414053D01*
X174922616Y-168420648D01*
X174920958Y-168427225D01*
X174919284Y-168433789D01*
X174917593Y-168440334D01*
X174915886Y-168446866D01*
X174914162Y-168453379D01*
X174912421Y-168459880D01*
X174910665Y-168466362D01*
X174908891Y-168472831D01*
X174907102Y-168479282D01*
X174905295Y-168485720D01*
X174903473Y-168492140D01*
X174901634Y-168498547D01*
X174899779Y-168504936D01*
X174897907Y-168511312D01*
X174896020Y-168517670D01*
X174894115Y-168524016D01*
X174892196Y-168530343D01*
X174890258Y-168536658D01*
X174888306Y-168542955D01*
X174886337Y-168549240D01*
X174884352Y-168555507D01*
X174880333Y-168567998D01*
X174876250Y-168580429D01*
X174872102Y-168592800D01*
X174867890Y-168605112D01*
X174863614Y-168617364D01*
X174859274Y-168629558D01*
X174854870Y-168641693D01*
X174850402Y-168653769D01*
X174845871Y-168665788D01*
X174841276Y-168677749D01*
X174836618Y-168689652D01*
X174831897Y-168701498D01*
X174827112Y-168713287D01*
X174822264Y-168725020D01*
X174817354Y-168736696D01*
X174812380Y-168748316D01*
X174807343Y-168759880D01*
X174802243Y-168771388D01*
X174797081Y-168782841D01*
X174791856Y-168794239D01*
X174786569Y-168805582D01*
X174781218Y-168816870D01*
X174775806Y-168828104D01*
X174770330Y-168839284D01*
X174764793Y-168850410D01*
X174759193Y-168861482D01*
X174753530Y-168872501D01*
X174747805Y-168883467D01*
X174742018Y-168894379D01*
X174736169Y-168905239D01*
X174730257Y-168916046D01*
X174724282Y-168926801D01*
X174718246Y-168937504D01*
X174712147Y-168948154D01*
X174705986Y-168958753D01*
X174699762Y-168969301D01*
X174693477Y-168979796D01*
X174687128Y-168990241D01*
X174680718Y-169000635D01*
X174674245Y-169010978D01*
X174667709Y-169021271D01*
X174661111Y-169031512D01*
X174654451Y-169041704D01*
X174647727Y-169051846D01*
X174640942Y-169061937D01*
X174634093Y-169071979D01*
X174627182Y-169081971D01*
X174620208Y-169091914D01*
X174613171Y-169101807D01*
X174606072Y-169111651D01*
X174598909Y-169121446D01*
X174591683Y-169131192D01*
X174584394Y-169140889D01*
X174577042Y-169150537D01*
X174569627Y-169160137D01*
X174562148Y-169169689D01*
X174554605Y-169179192D01*
X174546999Y-169188647D01*
X174539330Y-169198054D01*
X174531596Y-169207412D01*
X174523799Y-169216723D01*
X174515937Y-169225986D01*
X174508012Y-169235201D01*
X174500022Y-169244368D01*
X174491968Y-169253488D01*
X174483850Y-169262561D01*
X174475667Y-169271585D01*
X174467419Y-169280563D01*
X174459107Y-169289493D01*
X174450729Y-169298375D01*
X174442286Y-169307210D01*
X174433779Y-169315999D01*
X174425205Y-169324739D01*
X174416567Y-169333433D01*
X174407863Y-169342080D01*
X174399093Y-169350679D01*
X174390257Y-169359231D01*
X174381355Y-169367737D01*
X174372387Y-169376195D01*
X174363352Y-169384606D01*
X174354251Y-169392969D01*
X174345084Y-169401286D01*
X174335850Y-169409556D01*
X174326548Y-169417778D01*
X174317180Y-169425953D01*
X174307745Y-169434081D01*
X174298242Y-169442162D01*
X174288672Y-169450195D01*
X174279034Y-169458181D01*
X174269328Y-169466120D01*
X174259554Y-169474011D01*
X174249713Y-169481855D01*
X174239803Y-169489651D01*
X174229824Y-169497399D01*
X174219778Y-169505099D01*
X174209662Y-169512752D01*
X174199478Y-169520357D01*
X174189225Y-169527913D01*
X174178902Y-169535422D01*
X174168511Y-169542882D01*
X174158050Y-169550294D01*
X174147520Y-169557657D01*
X174136920Y-169564972D01*
X174126251Y-169572238D01*
X174115512Y-169579454D01*
X174104702Y-169586622D01*
X174093823Y-169593741D01*
X174082874Y-169600810D01*
X174071854Y-169607830D01*
X174060764Y-169614800D01*
X174049604Y-169621720D01*
X174038373Y-169628590D01*
X174027072Y-169635410D01*
X174015700Y-169642179D01*
X174004257Y-169648897D01*
X173992743Y-169655565D01*
X173981159Y-169662182D01*
X173969504Y-169668747D01*
X173957778Y-169675261D01*
X173945981Y-169681723D01*
X173934113Y-169688133D01*
X173922175Y-169694491D01*
X173910165Y-169700796D01*
X173898085Y-169707048D01*
X173885933Y-169713248D01*
X173873711Y-169719394D01*
X173861419Y-169725486D01*
X173849055Y-169731525D01*
X173836621Y-169737509D01*
X173824117Y-169743439D01*
X173811542Y-169749315D01*
X173798897Y-169755135D01*
X173786182Y-169760899D01*
X173773397Y-169766608D01*
X173760543Y-169772261D01*
X173747619Y-169777858D01*
X173734626Y-169783398D01*
X173721564Y-169788880D01*
X173708433Y-169794305D01*
X173695234Y-169799673D01*
X173681966Y-169804982D01*
X173668632Y-169810232D01*
X173655230Y-169815423D01*
X173641761Y-169820555D01*
X173628225Y-169825628D01*
X173614624Y-169830639D01*
X173600958Y-169835591D01*
X173587226Y-169840481D01*
X173573431Y-169845310D01*
X173559572Y-169850076D01*
X173545650Y-169854780D01*
X173531666Y-169859422D01*
X173517621Y-169864000D01*
X173503515Y-169868514D01*
X173489350Y-169872964D01*
X173475127Y-169877348D01*
X173460845Y-169881668D01*
X173446508Y-169885922D01*
X173432115Y-169890109D01*
X173417668Y-169894229D01*
X173403168Y-169898282D01*
X173388617Y-169902267D01*
X173374016Y-169906184D01*
X173359367Y-169910031D01*
X173344671Y-169913808D01*
X173329931Y-169917515D01*
X173315148Y-169921151D01*
X173300324Y-169924716D01*
X173285461Y-169928208D01*
X173270563Y-169931628D01*
X173255630Y-169934974D01*
X173240667Y-169938246D01*
X173225675Y-169941443D01*
X173210659Y-169944565D01*
X173195620Y-169947611D01*
X173180563Y-169950579D01*
X173165491Y-169953471D01*
X173150409Y-169956283D01*
X173135321Y-169959017D01*
X173120231Y-169961671D01*
X173105144Y-169964245D01*
X173090067Y-169966737D01*
X173075004Y-169969146D01*
X173059963Y-169971473D01*
X173044949Y-169973716D01*
X173029972Y-169975874D01*
X173015039Y-169977947D01*
X173000159Y-169979933D01*
X172985342Y-169981832D01*
X172970600Y-169983642D01*
X172955944Y-169985364D01*
X172941389Y-169986995D01*
X172926949Y-169988535D01*
X172912642Y-169989983D01*
X172898487Y-169991337D01*
X172884508Y-169992598D01*
X172870729Y-169993763D01*
X172857181Y-169994831D01*
X172843899Y-169995802D01*
X172830927Y-169996675D01*
X172818315Y-169997448D01*
X172806131Y-169998119D01*
X172794456Y-169998689D01*
X172783405Y-169999157D01*
X172773136Y-169999520D01*
X172763897Y-169999780D01*
X172756121Y-169999937D01*
X172750000Y-170000000D01*
D11*
X175000000Y-95750000D02*
X175000000Y-167750000D01*
D10*
X172750000Y-93500000D02*
X172758206Y-93500010D01*
X172766392Y-93500040D01*
X172774558Y-93500090D01*
X172782704Y-93500159D01*
X172790830Y-93500249D01*
X172798936Y-93500358D01*
X172807023Y-93500487D01*
X172815090Y-93500636D01*
X172823138Y-93500804D01*
X172831165Y-93500992D01*
X172839174Y-93501199D01*
X172847162Y-93501426D01*
X172855132Y-93501672D01*
X172863082Y-93501938D01*
X172871012Y-93502223D01*
X172878924Y-93502527D01*
X172886816Y-93502851D01*
X172894688Y-93503194D01*
X172902542Y-93503555D01*
X172910377Y-93503936D01*
X172918192Y-93504337D01*
X172925989Y-93504756D01*
X172933766Y-93505194D01*
X172941525Y-93505651D01*
X172949265Y-93506127D01*
X172956985Y-93506621D01*
X172964688Y-93507135D01*
X172972371Y-93507667D01*
X172980036Y-93508219D01*
X172987681Y-93508788D01*
X172995309Y-93509377D01*
X173002918Y-93509984D01*
X173010509Y-93510609D01*
X173018080Y-93511253D01*
X173025634Y-93511916D01*
X173033169Y-93512597D01*
X173040686Y-93513296D01*
X173048184Y-93514014D01*
X173055665Y-93514750D01*
X173063127Y-93515505D01*
X173070572Y-93516277D01*
X173077997Y-93517068D01*
X173085406Y-93517877D01*
X173092795Y-93518704D01*
X173100168Y-93519549D01*
X173107521Y-93520413D01*
X173114858Y-93521294D01*
X173122176Y-93522193D01*
X173129477Y-93523110D01*
X173136759Y-93524045D01*
X173144025Y-93524998D01*
X173151272Y-93525969D01*
X173158503Y-93526958D01*
X173165715Y-93527964D01*
X173172911Y-93528988D01*
X173180088Y-93530030D01*
X173187248Y-93531089D01*
X173194391Y-93532166D01*
X173201517Y-93533261D01*
X173208624Y-93534373D01*
X173215716Y-93535503D01*
X173222789Y-93536650D01*
X173229846Y-93537815D01*
X173236885Y-93538997D01*
X173243909Y-93540196D01*
X173250913Y-93541413D01*
X173257903Y-93542647D01*
X173264873Y-93543898D01*
X173271829Y-93545167D01*
X173278766Y-93546453D01*
X173285688Y-93547756D01*
X173292591Y-93549076D01*
X173299480Y-93550414D01*
X173306350Y-93551768D01*
X173313205Y-93553140D01*
X173320042Y-93554528D01*
X173326864Y-93555934D01*
X173333668Y-93557357D01*
X173340457Y-93558796D01*
X173347228Y-93560253D01*
X173353985Y-93561726D01*
X173360723Y-93563216D01*
X173367447Y-93564724D01*
X173374152Y-93566247D01*
X173380844Y-93567789D01*
X173387517Y-93569346D01*
X173394176Y-93570920D01*
X173400817Y-93572511D01*
X173407444Y-93574119D01*
X173414053Y-93575743D01*
X173420648Y-93577384D01*
X173427225Y-93579042D01*
X173433789Y-93580716D01*
X173440334Y-93582407D01*
X173446866Y-93584114D01*
X173453379Y-93585838D01*
X173459880Y-93587579D01*
X173466362Y-93589335D01*
X173472831Y-93591109D01*
X173479282Y-93592898D01*
X173485720Y-93594705D01*
X173492140Y-93596527D01*
X173498547Y-93598366D01*
X173504936Y-93600221D01*
X173511312Y-93602093D01*
X173517670Y-93603980D01*
X173524016Y-93605885D01*
X173530343Y-93607804D01*
X173536658Y-93609742D01*
X173542955Y-93611694D01*
X173549240Y-93613663D01*
X173555507Y-93615648D01*
X173567998Y-93619667D01*
X173580429Y-93623750D01*
X173592800Y-93627898D01*
X173605112Y-93632110D01*
X173617364Y-93636386D01*
X173629558Y-93640726D01*
X173641693Y-93645130D01*
X173653769Y-93649598D01*
X173665788Y-93654129D01*
X173677749Y-93658724D01*
X173689652Y-93663382D01*
X173701498Y-93668103D01*
X173713287Y-93672888D01*
X173725020Y-93677736D01*
X173736696Y-93682646D01*
X173748316Y-93687620D01*
X173759880Y-93692657D01*
X173771388Y-93697757D01*
X173782841Y-93702919D01*
X173794239Y-93708144D01*
X173805582Y-93713431D01*
X173816870Y-93718782D01*
X173828104Y-93724194D01*
X173839284Y-93729670D01*
X173850410Y-93735207D01*
X173861482Y-93740807D01*
X173872501Y-93746470D01*
X173883467Y-93752195D01*
X173894379Y-93757982D01*
X173905239Y-93763831D01*
X173916046Y-93769743D01*
X173926801Y-93775718D01*
X173937504Y-93781754D01*
X173948154Y-93787853D01*
X173958753Y-93794014D01*
X173969301Y-93800238D01*
X173979796Y-93806523D01*
X173990241Y-93812872D01*
X174000635Y-93819282D01*
X174010978Y-93825755D01*
X174021271Y-93832291D01*
X174031512Y-93838889D01*
X174041704Y-93845549D01*
X174051846Y-93852273D01*
X174061937Y-93859058D01*
X174071979Y-93865907D01*
X174081971Y-93872818D01*
X174091914Y-93879792D01*
X174101807Y-93886829D01*
X174111651Y-93893928D01*
X174121446Y-93901091D01*
X174131192Y-93908317D01*
X174140889Y-93915606D01*
X174150537Y-93922958D01*
X174160137Y-93930373D01*
X174169689Y-93937852D01*
X174179192Y-93945395D01*
X174188647Y-93953001D01*
X174198054Y-93960670D01*
X174207412Y-93968404D01*
X174216723Y-93976201D01*
X174225986Y-93984063D01*
X174235201Y-93991988D01*
X174244368Y-93999978D01*
X174253488Y-94008032D01*
X174262561Y-94016150D01*
X174271585Y-94024333D01*
X174280563Y-94032581D01*
X174289493Y-94040893D01*
X174298375Y-94049271D01*
X174307210Y-94057714D01*
X174315999Y-94066221D01*
X174324739Y-94074795D01*
X174333433Y-94083433D01*
X174342080Y-94092137D01*
X174350679Y-94100907D01*
X174359231Y-94109743D01*
X174367737Y-94118645D01*
X174376195Y-94127613D01*
X174384606Y-94136648D01*
X174392969Y-94145749D01*
X174401286Y-94154916D01*
X174409556Y-94164150D01*
X174417778Y-94173452D01*
X174425953Y-94182820D01*
X174434081Y-94192255D01*
X174442162Y-94201758D01*
X174450195Y-94211328D01*
X174458181Y-94220966D01*
X174466120Y-94230672D01*
X174474011Y-94240446D01*
X174481855Y-94250287D01*
X174489651Y-94260197D01*
X174497399Y-94270176D01*
X174505099Y-94280222D01*
X174512752Y-94290338D01*
X174520357Y-94300522D01*
X174527913Y-94310775D01*
X174535422Y-94321098D01*
X174542882Y-94331489D01*
X174550294Y-94341950D01*
X174557657Y-94352480D01*
X174564972Y-94363080D01*
X174572238Y-94373749D01*
X174579454Y-94384488D01*
X174586622Y-94395298D01*
X174593741Y-94406177D01*
X174600810Y-94417126D01*
X174607830Y-94428146D01*
X174614800Y-94439236D01*
X174621720Y-94450396D01*
X174628590Y-94461627D01*
X174635410Y-94472928D01*
X174642179Y-94484300D01*
X174648897Y-94495743D01*
X174655565Y-94507257D01*
X174662182Y-94518841D01*
X174668747Y-94530496D01*
X174675261Y-94542222D01*
X174681723Y-94554019D01*
X174688133Y-94565887D01*
X174694491Y-94577825D01*
X174700796Y-94589835D01*
X174707048Y-94601915D01*
X174713248Y-94614067D01*
X174719394Y-94626289D01*
X174725486Y-94638581D01*
X174731525Y-94650945D01*
X174737509Y-94663379D01*
X174743439Y-94675883D01*
X174749315Y-94688458D01*
X174755135Y-94701103D01*
X174760899Y-94713818D01*
X174766608Y-94726603D01*
X174772261Y-94739457D01*
X174777858Y-94752381D01*
X174783398Y-94765374D01*
X174788880Y-94778436D01*
X174794305Y-94791567D01*
X174799673Y-94804766D01*
X174804982Y-94818034D01*
X174810232Y-94831368D01*
X174815423Y-94844770D01*
X174820555Y-94858239D01*
X174825628Y-94871775D01*
X174830639Y-94885376D01*
X174835591Y-94899042D01*
X174840481Y-94912774D01*
X174845310Y-94926569D01*
X174850076Y-94940428D01*
X174854780Y-94954350D01*
X174859422Y-94968334D01*
X174864000Y-94982379D01*
X174868514Y-94996485D01*
X174872964Y-95010650D01*
X174877348Y-95024873D01*
X174881668Y-95039155D01*
X174885922Y-95053492D01*
X174890109Y-95067885D01*
X174894229Y-95082332D01*
X174898282Y-95096832D01*
X174902267Y-95111383D01*
X174906184Y-95125984D01*
X174910031Y-95140633D01*
X174913808Y-95155329D01*
X174917515Y-95170069D01*
X174921151Y-95184852D01*
X174924716Y-95199676D01*
X174928208Y-95214539D01*
X174931628Y-95229437D01*
X174934974Y-95244370D01*
X174938246Y-95259333D01*
X174941443Y-95274325D01*
X174944565Y-95289341D01*
X174947611Y-95304380D01*
X174950579Y-95319437D01*
X174953471Y-95334509D01*
X174956283Y-95349591D01*
X174959017Y-95364679D01*
X174961671Y-95379769D01*
X174964245Y-95394856D01*
X174966737Y-95409933D01*
X174969146Y-95424996D01*
X174971473Y-95440037D01*
X174973716Y-95455051D01*
X174975874Y-95470028D01*
X174977947Y-95484961D01*
X174979933Y-95499841D01*
X174981832Y-95514658D01*
X174983642Y-95529400D01*
X174985364Y-95544056D01*
X174986995Y-95558611D01*
X174988535Y-95573051D01*
X174989983Y-95587358D01*
X174991337Y-95601513D01*
X174992598Y-95615492D01*
X174993763Y-95629271D01*
X174994831Y-95642819D01*
X174995802Y-95656101D01*
X174996675Y-95669073D01*
X174997448Y-95681685D01*
X174998119Y-95693869D01*
X174998689Y-95705544D01*
X174999157Y-95716595D01*
X174999520Y-95726864D01*
X174999780Y-95736103D01*
X174999937Y-95743879D01*
X175000000Y-95750000D01*
D11*
X117500000Y-170000000D02*
X172750000Y-170000000D01*
X115250000Y-95750000D02*
X115250000Y-167500000D01*
X172750000Y-93500000D02*
X117500000Y-93500000D01*
M02*
