%TF.GenerationSoftware,KiCad,Pcbnew,10.0.0*%
%TF.CreationDate,2026-05-22T16:29:41+02:00*%
%TF.ProjectId,iotpcb,696f7470-6362-42e6-9b69-6361645f7063,rev?*%
%TF.SameCoordinates,Original*%
%TF.FileFunction,Soldermask,Bot*%
%TF.FilePolarity,Negative*%
%FSLAX46Y46*%
G04 Gerber Fmt 4.6, Leading zero omitted, Abs format (unit mm)*
G04 Created by KiCad (PCBNEW 10.0.0) date 2026-05-22 16:29:41*
%MOMM*%
%LPD*%
G01*
G04 APERTURE LIST*
G04 Aperture macros list*
%AMRoundRect*
0 Rectangle with rounded corners*
0 $1 Rounding radius*
0 $2 $3 $4 $5 $6 $7 $8 $9 X,Y pos of 4 corners*
0 Add a 4 corners polygon primitive as box body*
4,1,4,$2,$3,$4,$5,$6,$7,$8,$9,$2,$3,0*
0 Add four circle primitives for the rounded corners*
1,1,$1+$1,$2,$3*
1,1,$1+$1,$4,$5*
1,1,$1+$1,$6,$7*
1,1,$1+$1,$8,$9*
0 Add four rect primitives between the rounded corners*
20,1,$1+$1,$2,$3,$4,$5,0*
20,1,$1+$1,$4,$5,$6,$7,0*
20,1,$1+$1,$6,$7,$8,$9,0*
20,1,$1+$1,$8,$9,$2,$3,0*%
G04 Aperture macros list end*
%ADD10C,1.600000*%
%ADD11C,1.500000*%
%ADD12RoundRect,0.250000X0.550000X-0.550000X0.550000X0.550000X-0.550000X0.550000X-0.550000X-0.550000X0*%
%ADD13RoundRect,0.250000X0.625000X-0.350000X0.625000X0.350000X-0.625000X0.350000X-0.625000X-0.350000X0*%
%ADD14O,1.750000X1.200000*%
%ADD15R,1.700000X1.700000*%
%ADD16C,1.700000*%
%ADD17R,1.500000X1.500000*%
%ADD18RoundRect,0.250000X0.350000X0.625000X-0.350000X0.625000X-0.350000X-0.625000X0.350000X-0.625000X0*%
%ADD19O,1.200000X1.750000*%
%ADD20O,1.200000X2.000000*%
%ADD21R,1.200000X2.000000*%
G04 APERTURE END LIST*
D10*
%TO.C,R6*%
X171000000Y-139420000D03*
X171000000Y-149580000D03*
%TD*%
%TO.C,R5*%
X168250000Y-126420000D03*
X168250000Y-136580000D03*
%TD*%
%TO.C,R4*%
X168500000Y-104250000D03*
X168500000Y-114410000D03*
%TD*%
D11*
%TO.C,R3*%
X164050000Y-97750000D03*
X167450000Y-97750000D03*
%TD*%
D10*
%TO.C,C6*%
X163500000Y-104000000D03*
X163500000Y-109000000D03*
%TD*%
%TO.C,C1*%
X156000000Y-117000000D03*
X161000000Y-117000000D03*
%TD*%
D12*
%TO.C,C3*%
X167750000Y-123000000D03*
D10*
X167750000Y-121000000D03*
%TD*%
D13*
%TO.C,J_SOIL1*%
X119750000Y-162000000D03*
D14*
X119750000Y-160000000D03*
X119750000Y-158000000D03*
%TD*%
D15*
%TO.C,J2*%
X157340000Y-97010000D03*
D16*
X157340000Y-99550000D03*
X157340000Y-102090000D03*
X157340000Y-104630000D03*
X157340000Y-107170000D03*
X157340000Y-109710000D03*
X157340000Y-112250000D03*
%TD*%
%TO.C,U3*%
X141710000Y-123919887D03*
D15*
X139170000Y-123919887D03*
D16*
X144250000Y-123919887D03*
X146790000Y-123919887D03*
%TD*%
D10*
%TO.C,R1*%
X154670000Y-139250000D03*
X164830000Y-139250000D03*
%TD*%
D15*
%TO.C,J3*%
X119300000Y-117250000D03*
D16*
X121840000Y-117250000D03*
X124380000Y-117250000D03*
X126920000Y-117250000D03*
X129460000Y-117250000D03*
X132000000Y-117250000D03*
X134540000Y-117250000D03*
X137080000Y-117250000D03*
X139620000Y-117250000D03*
X142160000Y-117250000D03*
X144700000Y-117250000D03*
X147240000Y-117250000D03*
X149780000Y-117250000D03*
X152320000Y-117250000D03*
%TD*%
D10*
%TO.C,C2*%
X154750000Y-132250000D03*
X154750000Y-127250000D03*
%TD*%
D12*
%TO.C,C4*%
X155250000Y-122750000D03*
D10*
X155250000Y-120750000D03*
%TD*%
D17*
%TO.C,U2*%
X129500000Y-124630000D03*
D11*
X129500000Y-127170000D03*
X129500000Y-129710000D03*
X129500000Y-132250000D03*
%TD*%
D10*
%TO.C,R2*%
X119500000Y-123340000D03*
X119500000Y-133500000D03*
%TD*%
%TO.C,C5*%
X123875000Y-123420000D03*
X123875000Y-128420000D03*
%TD*%
D18*
%TO.C,J1*%
X159500000Y-134450000D03*
D19*
X157500000Y-134450000D03*
%TD*%
D20*
%TO.C,U6*%
X166530000Y-167000000D03*
X133510000Y-167000000D03*
X136050000Y-167000000D03*
X138590000Y-167000000D03*
X141130000Y-167000000D03*
X143670000Y-167000000D03*
X146210000Y-167000000D03*
X148750000Y-167000000D03*
X151290000Y-167000000D03*
X153830000Y-167000000D03*
X156370000Y-167000000D03*
X158910000Y-167000000D03*
X161450000Y-167000000D03*
X163990000Y-167000000D03*
D21*
X130970000Y-167000000D03*
D20*
X166530000Y-144140000D03*
X163990000Y-144140000D03*
X161450000Y-144140000D03*
X158910000Y-144140000D03*
X156370000Y-144140000D03*
X153830000Y-144140000D03*
X151290000Y-144140000D03*
X148750000Y-144140000D03*
X146210000Y-144140000D03*
X143670000Y-144140000D03*
X141130000Y-144140000D03*
X138590000Y-144140000D03*
X136050000Y-144140000D03*
X133510000Y-144140000D03*
X130970000Y-144140000D03*
%TD*%
M02*
